<svg xmlns="http://www.w3.org/2000/svg" width="512" height="512"><path d="m111.141 154.619 3.123-.014c3.458-.012 6.915-.003 10.373.007q3.716-.006 7.43-.016c6.033-.012 12.065-.01 18.097-.002a7179 7179 0 0 0 16.818.003l4.251-.003c13.288-.008 26.575.002 39.862.018q17.106.018 34.212-.003a20819 20819 0 0 1 43.958-.01l2.105.001q7.346.003 14.69-.009 9.883-.013 19.766.015 3.633.006 7.266-.004c3.298-.008 6.596.002 9.894.017l2.925-.02 2.675.023 2.307.002c2.737.489 4.103 1.47 6.107 3.376.873 3.429 1.33 5.893.313 9.313-1.682 2.162-2.722 2.722-5.313 3.687-2.79.169-5.478.233-8.266.195l-2.404-.008c-2.527-.011-5.053-.037-7.58-.062q-2.574-.016-5.148-.027c-4.201-.02-8.401-.06-12.602-.098v30h87v-30c-6.687.197-6.687.197-13.372.45-4.647.07-6.92.068-10.769-2.747-2.431-3.535-2.547-5.496-1.859-9.703 2.22-3.009 3.4-3.904 7.129-4.502l3.648.006 3.994-.002 2.073.031c2.084.03 4.164.021 6.248.008 11.631.074 11.631.074 15.908 3.459 4.067 4.816 3.421 10.179 3.388 16.153l.016 3.452c.014 3.827.007 7.652 0 11.479q.008 4.11.02 8.219c.018 6.674.019 13.348.014 20.023a9403 9403 0 0 0 .005 18.613l.004 4.704c.014 14.707.009 29.414-.003 44.121-.01 13.456.003 26.912.027 40.367q.037 20.724.027 41.448-.006 11.634.017 23.27.022 9.904-.002 19.809-.015 5.053.004 10.106c.013 3.653.002 7.304-.016 10.956l.03 3.227c-.059 5.817-.418 9.567-4.531 14.053-3.162 1.987-5.614 2.252-9.317 2.257l-3.285.02-3.607-.01-3.834.014c-3.514.012-7.028.012-10.542.01-3.788 0-7.577.01-11.366.02q-11.135.024-22.271.023-9.05.001-18.1.012a45897 45897 0 0 1-54.096.025h-2.798c-14.966-.001-29.932.018-44.897.046q-23.043.043-46.085.04c-8.626 0-17.253.006-25.88.027q-11.014.029-22.032.009a1755 1755 0 0 0-11.242.01c-4.062.02-8.123.007-12.185-.009l-3.593.032c-6.24-.053-10.164-.253-14.87-4.526-1.837-2.702-2.255-4.829-2.29-8.062l-.04-2.387-.006-2.551-.02-2.645q-.015-2.763-.015-5.527a711 711 0 0 0-.078-8.453q-.009-2.687-.012-5.375l-.043-2.55c.03-3.82.05-5.813 2.314-8.985 3.194-2.136 5.435-1.934 9.19-1.465 3.185 1.76 3.833 2.499 5 6v30h87V217h-87l.14 33.95q.032 10.629.055 21.259c.024 11.255.052 22.509.107 33.763q.06 12.294.074 24.588c.006 4.34.018 8.68.047 13.02q.039 6.128.03 12.256 0 2.249.024 4.497c.02 2.048.013 4.096.004 6.143l.011 3.472c-.605 3.752-1.809 5.4-4.492 8.052-3.437 1.063-3.437 1.063-7 1-2.684-1.473-2.684-1.473-5-4-.497-3.02-.668-5.476-.621-8.496l-.02-2.623c-.015-2.906.005-5.81.026-8.717q-.006-3.12-.017-6.243c-.014-5.657.003-11.314.026-16.97.02-5.916.014-11.832.012-17.747q.002-14.904.052-29.807c.037-11.492.046-22.983.039-34.474-.007-11.048.004-22.095.024-33.142q.011-7.057.009-14.113 0-8.31.04-16.619.01-3.051.005-6.103c-.004-2.775.011-5.549.03-8.323l-.016-2.448c.056-4.567.455-7.622 3.411-11.175 4.513-3.93 9.466-3.42 15.141-3.381M109 171v30h87v-30zm103 0v30h88v-30zm0 46v217h88V217zm104 0v217h87V217z"/><path d="m86.819-.267 2.692-.014c2.978-.013 5.956-.011 8.935-.01l6.407-.02c5.806-.018 11.613-.022 17.42-.024q5.45-.001 10.903-.01 19.048-.028 38.097-.026c11.8.002 23.601-.02 35.402-.051q15.23-.038 30.46-.036c6.053 0 12.106-.005 18.16-.026q8.563-.029 17.126-.005 3.12.003 6.24-.015c39.868-.218 73.098 14.334 101.469 42.305q1.42 1.414 2.839 2.832l3.035 3.015q3.155 3.139 6.302 6.288 3.184 3.183 6.388 6.346c27.68 27.333 50.967 58.335 51.44 99.037q.015 3.806.013 7.61l.011 4.249q.014 5.816.017 11.631.007 6.28.022 12.561c.02 10.1.03 20.2.039 30.3l.015 14.276a76999 76999 0 0 1 .044 59.763l.002 3.089c.008 16.526.033 33.051.066 49.577q.049 25.46.054 50.92c.002 9.527.01 19.054.036 28.581q.034 12.165.02 24.328c-.004 4.137-.002 8.274.017 12.41q.026 5.683.001 11.366a597 597 0 0 0 .03 6.047c-.057 8.07-.84 13.708-6.267 19.996l-1.691 1.352-1.684 1.398c-4.27 2.788-7.975 3.478-13.032 3.484l-3.773.02-4.137-.01-4.4.014c-4.033.012-8.065.012-12.097.01-4.349 0-8.697.01-13.046.02-8.52.017-17.04.022-25.56.023q-10.386.001-20.774.012a60480 60480 0 0 1-62.097.025h-3.212c-17.176-.001-34.351.018-51.527.046q-26.45.043-52.899.04c-9.9 0-19.801.006-29.702.027q-12.645.029-25.289.009c-4.3-.007-8.601-.007-12.902.01a1403 1403 0 0 1-11.816-.004q-2.134-.005-4.27.012c-8.871.065-15.42-.26-22.37-6.257l-1.351-1.691-1.398-1.684c-2.942-4.507-3.478-8.38-3.484-13.714l-.01-2.056c-.01-2.277-.005-4.554 0-6.83l-.014-4.943c-.012-4.53-.012-9.06-.01-13.59 0-4.885-.01-9.769-.02-14.653a17169 17169 0 0 1-.023-28.707q-.002-11.662-.012-23.325-.026-33.045-.025-66.09v-7.204c.001-19.29-.018-38.58-.046-57.87q-.043-29.69-.04-59.38c0-11.118-.006-22.236-.027-33.354q-.029-14.194-.009-28.388c.007-4.831.007-9.662-.01-14.493q-.023-6.627.004-13.254.005-2.403-.012-4.807a460 460 0 0 1 .013-6.511l-.001-3.66c.601-3.675 1.527-4.865 4.499-7.05 3.753-.47 6.038-.531 9.375 1.313 3.174 3.295 2.752 6.866 2.758 11.204l.007 2.024c.006 2.255.005 4.51.005 6.764l.01 4.88q.014 6.72.016 13.444.008 7.242.023 14.485.022 12.555.036 25.11.022 18.155.058 36.31.057 29.46.105 58.917l.006 3.564a200276 200276 0 0 1 .083 57.224q.04 29.348.101 58.696.038 18.118.054 36.237.01 12.405.042 24.81.018 7.167.019 14.334 0 6.552.024 13.103.006 2.379.002 4.758-.003 3.216.017 6.432l.005 3.62c-.031 2.912-.031 2.912 2.254 4.771 3.261 1.142 6.386 1.126 9.82 1.129l3.624.01 3.987-.005 4.232.007q5.82.008 11.642.004c4.183 0 8.367.006 12.55.01q12.296.012 24.592.012 9.992 0 19.984.006 28.315.013 56.63.012h6.173q24.788.002 49.574.023 25.438.023 50.875.02 14.288-.001 28.574.014 12.162.015 24.324.005 6.207-.007 12.414.005 5.68.011 11.36-.002c2.023-.003 4.045.005 6.067.013l3.633-.014h3.136c3.221-.286 6.443-.883 8.809-3.249.1-1.698.131-3.4.134-5.1l.014-3.37v-3.75l.01-3.946q.014-5.449.017-10.898.007-5.867.022-11.735c.02-9.459.03-18.918.039-28.377l.015-13.363a67254 67254 0 0 0 .046-58.865c.008-15.47.033-30.938.066-46.407q.049-23.823.054-47.647c.002-8.917.01-17.833.036-26.75q.034-11.399.02-22.796c-.004-3.875-.002-7.748.017-11.622q.026-5.333.001-10.664a517 517 0 0 1 .03-5.635c-.12-15.986-5.792-29.987-16.779-41.528-12.217-11.347-26.81-15.62-43.117-15.785-.855-.01-1.71-.018-2.592-.027a961 961 0 0 0-10.738-.04c-20.184.02-20.184.02-27.295-5.695-5.738-6.22-7.136-10.987-7.246-19.402l-.1-5.139q-.071-4.027-.13-8.056c-.329-21.168-2.582-38.471-17.618-54.657-16.08-15.352-35.99-15.898-56.853-15.891l-5.418-.01q-7.32-.014-14.64-.012l-9.15-.006q-15.969-.014-31.938-.012-14.88-.001-29.761-.026-12.79-.019-25.58-.018-7.634.002-15.267-.013-7.17-.014-14.339-.003-2.631.003-5.261-.007a1114 1114 0 0 0-7.18.005l-2.104-.016c-4.09.03-8.36.208-11.415 3.263a69 69 0 0 0-.158 4.44l-.03 2.863-.023 3.119-.086 6.484q-.063 5.132-.104 10.264a1625 1625 0 0 1-.122 9.877l-.01 3.094C78.31 68.124 78.31 68.124 75 72c-3 2-3 2-6.5 1.813-4.451-1.034-4.451-1.034-6.5-3.813-.388-2.357-.388-2.357-.404-5.17l-.038-3.198.008-3.456-.015-3.562q-.01-3.735.003-7.472c.008-3.797-.02-7.593-.052-11.39q-.003-3.631.002-7.264l-.034-3.425c.067-7.674 1.12-13.11 6.276-19.086l1.692-1.352 1.683-1.398C76.276-.14 80.85-.29 86.82-.267M324 24c1.777 3.144 3.548 6.276 5.46 9.34 8.554 13.741 11.624 27.247 11.716 43.273l.072 4.78c.035 2.473.065 4.945.078 7.419.015 2.413.056 4.826.1 7.239l-.006 2.238c.077 3.236.39 5.404 2.105 8.176 3.48 2.158 6.681 2.081 10.65 2.039l2.432.028c2.569.03 5.137.032 7.706.03 21.245.031 38.36 2.813 56.687 14.438q2.495 1.507 5 3c-.61-4.515-2.415-8.17-4.562-12.125-.358-.66-.715-1.322-1.083-2.003-7.755-14.052-18.705-25.36-29.93-36.684a5113 5113 0 0 0-8.28-8.337 1322 1322 0 0 1-5.639-5.702c-12.868-13.07-25.204-24.896-41.693-33.274l-2.19-1.164c-4.094-2.146-4.094-2.146-8.623-2.711"/><path d="M136 31c2.207 1.102 2.207 1.102 4 3 .39 3.137.39 3.137.25 6.688l-.11 3.574L140 47l3.063.625c4.553 1.317 7.885 3.766 10.937 7.375 1.125 3.063 1.125 3.063 1 6-1.138 2.327-2.168 4.168-4 6-4.653.401-7.573.561-11.5-2.062-2.857-1.881-4.542-2.136-7.937-1.688L128 64l-1 6c8.375 4.262 8.375 4.262 16.938 8.125 5.963 2.648 9.553 5.63 12.269 11.605 2.289 6.55 2.4 12.629-.133 19.102-3.34 6.74-7.238 11.013-14.074 14.168h-2l.176 2.703.137 3.547.175 3.516C140 136 140 136 137.707 138.426 135 140 135 140 131.375 139.938c-4.389-1.22-4.389-1.22-6.375-3.938-.379-2.777-.379-2.777-.562-5.937-.337-3.224-.337-3.224-1.438-6.063-3.103-2.158-6.404-2.948-10-4-3.3-2.334-3.861-3.55-5.062-7.437C108 109 108 109 110 106.063c3.726-2.562 5.558-2.698 10-2.063l2.25 1.5c4.384 2.391 8.87 2.177 13.75 1.5 3.031-1.949 3.714-3.121 4.813-6.5.191-2.56.106-4.115-.813-6.5-2.025-.72-4.06-1.422-6.121-2.031-3.504-1.18-6.808-2.672-10.129-4.281l-3.516-1.676C115.276 82.928 111.48 78.783 110 73c-.812-7.544.679-13.518 4.875-19.812 2.224-2.29 4.275-3.763 7.125-5.188h2l-.07-1.758c-.111-4.807.006-8.79 2.07-13.242 3.71-2.473 5.61-2.385 10-2m42.776 30.612 2.978-.03 3.263.014 3.44-.02c3.763-.02 7.526-.015 11.29-.01l7.827-.015q8.21-.014 16.42.003c6.327.011 12.653-.003 18.979-.03 6.086-.024 12.173-.027 18.259-.02q3.885 0 7.769-.019c3.618-.014 7.235-.004 10.852.013l3.258-.029c7.214.072 7.214.072 10.554 2.344 1.978 3.241 1.866 5.471 1.335 9.187-2.219 2.907-3.52 3.84-7 5a77 77 0 0 1-4.541.14l-2.82.018-3.09.003-3.257.015q-5.346.021-10.69.027l-7.418.017q-7.78.015-15.56.02c-6.65.006-13.3.03-19.951.058-5.108.019-10.215.024-15.323.026q-3.678.004-7.356.024c-3.429.017-6.856.015-10.285.008l-3.076.028c-8.72-.051-8.72-.051-12.633-3.384-2-3-2-3-1.813-6.5 1.259-5.42 3.082-6.872 8.589-6.888m1.344 31.195 3.237-.049c4.882-.044 9.764-.085 14.645-.108q3.868-.025 7.735-.082c3.71-.055 7.42-.077 11.13-.091l3.498-.07c7.951.022 7.951.022 11.397 2.9 1.688 3.672 1.308 5.84.238 9.693-1.579 2.06-2.691 2.846-5 4a84 84 0 0 1-4.83.177l-3.044.039-3.302.022-3.386.025q-3.552.02-7.104.032c-3.621.017-7.242.061-10.863.105q-3.45.015-6.897.026l-3.283.053c-7.507-.022-7.507-.022-11.452-2.322C170.455 104.361 170 102.666 170 99c2.511-5.38 4.407-6.115 10.12-6.193m168.661 294.529 2.578-.015q2.692-.005 5.386.027c2.746.027 5.489 0 8.235-.032q2.62.006 5.239.02l2.484-.03c4.119.084 5.707.144 8.818 3.044 1.8 3.224 2.021 5.01 1.479 8.65-1.78 3.136-2.523 3.841-6 5-2.6.12-5.173.188-7.773.203l-2.306.017q-2.413.014-4.826.02c-2.454.01-4.907.041-7.36.072q-2.348.01-4.696.016l-2.213.038c-4.453-.02-7.29-.612-10.826-3.366-1.427-2.853-1.31-4.835-1-8 3.236-5.848 6.678-5.74 12.781-5.664m0-30.965 2.578-.007q2.692 0 5.386.04c2.746.033 5.49.02 8.235 0q2.62.01 5.239.03l2.484-.015c3.762.077 5.703.153 8.818 2.398 2.158 3.186 1.949 5.423 1.479 9.183-1.76 3.185-2.499 3.833-6 5-2.6.12-5.173.188-7.773.203l-2.306.017q-2.413.014-4.826.02c-2.454.01-4.907.041-7.36.072q-2.348.01-4.696.016l-2.213.038c-4.453-.02-7.29-.612-10.826-3.366-1.427-2.853-1.31-4.835-1-8 3.238-5.857 6.675-5.728 12.781-5.629m0-31 2.578-.007q2.692 0 5.386.04c2.746.033 5.49.02 8.235 0q2.62.01 5.239.03l2.484-.015c3.76.077 5.701.151 8.815 2.398 2.18 3.212 2.023 5.394 1.482 9.183-1.867 2.365-3.32 3.66-6 5-2.568.123-5.107.188-7.676.203l-2.31.017q-2.421.014-4.844.02c-2.463.01-4.924.04-7.387.072q-2.355.01-4.709.016l-2.223.038c-4.461-.02-7.309-.604-10.851-3.366-1.427-2.853-1.31-4.835-1-8 3.238-5.857 6.675-5.728 12.781-5.629m-207 .063 2.578-.02q2.692-.01 5.386.01c2.746.013 5.49-.02 8.235-.059q2.62 0 5.239.006l2.484-.04c4.12.067 5.702.114 8.815 3.017 1.813 3.243 2.105 4.992 1.482 8.652-1.867 2.303-3.356 3.678-6 5-2.568.123-5.107.188-7.676.203l-2.31.017q-2.421.014-4.844.02c-2.463.01-4.924.04-7.387.072q-2.355.01-4.709.016l-2.223.038c-4.461-.02-7.309-.604-10.851-3.366-1.546-3.092-1.294-5.594-1-9 3.338-4.973 7.303-4.6 12.781-4.566m103.586 31.328 2.519-.025q2.64-.02 5.28-.032c2.692-.017 5.381-.061 8.072-.105q2.565-.015 5.13-.026l2.436-.053c3.65.014 5.74.129 8.68 2.385 1.593 2.2 2.352 3.388 2.516 6.094-.752 2.804-1.552 4.538-3.576 6.625-3.426 1.943-6.678 1.824-10.514 1.809l-2.368.015q-2.475.01-4.95-.003c-2.518-.008-5.033.02-7.551.052q-2.409.003-4.818-.002l-2.27.034c-3.679-.049-5.775-.416-8.904-2.413C232.62 368.61 232 367.487 232 364c3.008-7.449 5.905-7.17 13.367-7.238m103.414-62.391 2.578-.007q2.692 0 5.386.04c2.746.033 5.49.02 8.235 0q2.62.01 5.239.03l2.484-.015c3.76.077 5.701.151 8.815 2.398 2.18 3.212 2.023 5.394 1.482 9.183-2.219 2.907-3.52 3.84-7 5-2.455.108-4.88.164-7.336.168l-2.17.01q-2.272.007-4.545.007c-2.309.002-4.617.02-6.926.04q-2.21.005-4.421.005l-2.081.022c-3.937-.018-7.041-.353-10.521-2.252-2.342-3.513-2.496-4.865-2-9 3.25-5.853 6.67-5.728 12.781-5.629m-103.316.329 2.514-.014a916 916 0 0 1 5.263-.002c2.682.003 5.363-.02 8.045-.045q2.558-.004 5.115-.002l2.428-.028c3.311.027 5.725.145 8.653 1.765 2.053 2.2 2.374 3.632 2.517 6.626-.764 3.208-1.482 4.6-4.102 6.624-3.6 1.71-6.745 1.808-10.648 1.774l-2.23.01q-2.325.002-4.649-.017c-2.364-.016-4.726 0-7.09.02q-2.265-.004-4.531-.013l-2.128.019c-4.366-.062-7.17-.704-10.622-3.417-1.674-3.347-2.226-5.098-1.312-8.75 3.024-5.184 7.437-4.557 12.777-4.55m-103.684-.266 2.578-.02q2.692-.01 5.386.01c2.746.013 5.49-.02 8.235-.059q2.62 0 5.239.006l2.484-.04c4.12.067 5.702.114 8.815 3.017 1.813 3.243 2.105 4.992 1.482 8.652-2.232 2.848-3.55 3.85-7 5-2.443.12-4.857.188-7.3.203l-2.164.017q-2.265.014-4.532.02c-2.298.01-4.595.04-6.893.072q-2.205.01-4.412.016l-2.065.038c-4.597-.022-7.733-.941-11.634-3.366-1.546-3.092-1.294-5.594-1-9 3.338-4.973 7.303-4.6 12.781-4.566m103.684 31.23 2.514-.02q2.631-.015 5.263-.015c2.682-.004 5.363-.04 8.045-.078q2.558-.009 5.115-.012l2.428-.043c3.639.03 5.723.16 8.653 2.412 1.595 2.2 2.353 3.385 2.517 6.092-.774 3.174-1.506 4.617-4.102 6.627-3.6 1.705-6.747 1.805-10.648 1.771l-2.23.01q-2.325.002-4.649-.017c-2.364-.016-4.726 0-7.09.02q-2.265-.004-4.531-.013l-2.128.019c-4.366-.062-7.17-.704-10.622-3.417-1.674-3.347-2.226-5.098-1.312-8.75 3.019-5.176 7.441-4.571 12.777-4.586m-3.217-61.968 2.592.003 2.66-.013a1028 1028 0 0 1 5.576-.002c2.847.003 5.693-.02 8.54-.045q2.705-.004 5.411-.002l2.586-.028c5.962.047 5.962.047 8.085 1.766 1.776 2.216 2.1 3.8 2.302 6.625-.936 3.097-1.704 4.704-4 7-2.978.212-5.86.304-8.84.3l-2.66.014a1028 1028 0 0 1-5.576.002 852 852 0 0 0-8.54.045q-2.705.004-5.411.002l-2.586.028c-5.962-.047-5.962-.047-8.085-1.766-1.776-2.216-2.1-3.8-2.302-6.625 1.875-6.2 3.831-7.226 10.248-7.304m106.533-31.227 2.578-.012q2.692-.004 5.386.022c2.746.02 5.49 0 8.235-.026q2.62.004 5.239.016l2.484-.025c3.764.062 5.697.124 8.815 2.37 2.18 3.214 2.023 5.396 1.482 9.186-1.638 2.412-2.923 3.779-5.842 4.378-2.322.17-4.61.202-6.94.188l-2.577.02q-2.692.01-5.386-.01c-2.746-.013-5.49.02-8.235.059q-2.62 0-5.239-.006l-2.484.04c-4.12-.067-5.702-.114-8.815-3.017-1.813-3.243-2.105-4.992-1.482-8.652 3.416-4.955 7.262-4.586 12.781-4.531m-106.533.227 2.592.003 2.66-.013a1028 1028 0 0 1 5.576-.002c2.847.003 5.693-.02 8.54-.045q2.705-.004 5.411-.002l2.586-.028c5.962.047 5.962.047 8.085 1.766 1.776 2.216 2.1 3.8 2.302 6.625-.936 3.097-1.704 4.704-4 7-2.978.212-5.86.304-8.84.3l-2.66.014a1028 1028 0 0 1-5.576.002 852 852 0 0 0-8.54.045q-2.705.004-5.411.002l-2.586.028c-5.962-.047-5.962-.047-8.085-1.766-1.776-2.216-2.1-3.8-2.302-6.625 1.875-6.2 3.831-7.226 10.248-7.304m-100.467-.227 2.578-.012q2.692-.004 5.386.022c2.746.02 5.49 0 8.235-.026q2.62.004 5.239.016l2.484-.025c3.788.062 5.695.113 8.815 2.406 2.043 2.964 2.059 4.617 1.482 8.15-1.482 2.652-1.482 2.652-4 5-2.926.735-5.777.677-8.781.629l-2.578.007q-2.692 0-5.386-.04a427 427 0 0 0-8.235 0q-2.62-.01-5.239-.03l-2.484.015c-3.76-.077-5.701-.151-8.815-2.398-2.18-3.212-2.023-5.394-1.482-9.183 3.371-4.97 7.283-4.586 12.781-4.531m207 30.902 2.578-.007q2.692 0 5.386.04c2.746.033 5.49.02 8.235 0q2.62.01 5.239.03l2.484-.015c3.76.077 5.701.151 8.815 2.398 2.18 3.212 2.023 5.394 1.482 9.183-1.637 2.414-2.919 3.782-5.842 4.371-2.322.16-4.611.183-6.94.16l-2.577.012q-2.692.004-5.386-.022c-2.746-.02-5.49 0-8.235.026q-2.62-.004-5.239-.016l-2.484.025c-3.788-.062-5.695-.113-8.815-2.406-2.043-2.964-2.059-4.617-1.482-8.15 3.268-5.847 6.66-5.728 12.781-5.629m-207 .063 2.578-.02q2.692-.01 5.386.01c2.746.013 5.49-.02 8.235-.059q2.62 0 5.239.006l2.484-.04c4.106.067 5.71.137 8.85 2.982 1.975 3.667 1.546 5.73.447 9.687-1.318 1.686-1.318 1.686-3 3-2.966.31-5.717.444-8.684.434l-2.581.015q-2.702.01-5.404-.003c-2.755-.008-5.508.02-8.263.052q-2.625.003-5.252-.002l-2.494.034c-3.774-.046-5.713-.092-8.842-2.342-2.176-3.216-2.021-5.398-1.48-9.188 3.369-4.962 7.286-4.6 12.781-4.566"/></svg>