<?xml version="1.0" encoding="UTF-8"?>
<svg version="1.1" xmlns="http://www.w3.org/2000/svg" width="512" height="512">
<path d="M0 0 C1.54575758 -0.00701996 1.54575758 -0.00701996 3.12274259 -0.01418173 C6.58052953 -0.02616088 10.0379223 -0.01666287 13.49571228 -0.00723267 C15.97268912 -0.01129703 18.44966416 -0.01663815 20.92663574 -0.02316284 C26.95858725 -0.03543486 32.99038368 -0.03362147 39.02232916 -0.02492492 C43.92397787 -0.01815042 48.82559519 -0.01723063 53.72724724 -0.02049637 C54.42480593 -0.02095607 55.12236462 -0.02141577 55.84106145 -0.0218894 C57.25811487 -0.02284857 58.67516827 -0.02382121 60.09222167 -0.02480717 C73.37958193 -0.03336166 86.6668801 -0.02352569 99.95423018 -0.00740607 C111.35806259 0.00600012 122.7618034 0.00366667 134.16563416 -0.01016235 C147.40691891 -0.02621207 160.64814926 -0.03254078 173.88944238 -0.02332556 C175.30098402 -0.02236991 176.71252566 -0.02142679 178.12406731 -0.02049637 C178.81858531 -0.02003354 179.51310331 -0.01957072 180.22866731 -0.01909386 C185.12555245 -0.01650236 190.02240311 -0.02087835 194.91928291 -0.02793503 C201.50778057 -0.03722071 208.09613167 -0.03062253 214.68462181 -0.01325226 C217.10661658 -0.00927594 219.52862588 -0.01044092 221.95061493 -0.01704025 C225.24876978 -0.02520033 228.54636361 -0.0150009 231.84448242 0 C232.80993943 -0.00669217 233.77539643 -0.01338433 234.77010971 -0.02027929 C236.09415429 -0.00854443 236.09415429 -0.00854443 237.44494724 0.00342751 C238.58687765 0.00415809 238.58687765 0.00415809 239.75187737 0.00490344 C242.48913384 0.49346583 243.85439923 1.47528031 245.85874939 3.38095093 C246.73156088 6.80985319 247.18797768 9.27354669 246.17124939 12.69345093 C244.48942324 14.85579884 243.45010803 15.41581795 240.85874939 16.38095093 C238.0679072 16.54953259 235.38102946 16.61379334 232.59312439 16.57626343 C231.79972656 16.57343353 231.00632874 16.57060364 230.18888855 16.56768799 C227.66202022 16.55651872 225.13551007 16.53142037 222.60874939 16.50595093 C220.89260869 16.49591691 219.17646241 16.48679179 217.46031189 16.47860718 C213.259543 16.45829398 209.05954578 16.41913999 204.85874939 16.38095093 C204.85874939 26.28095093 204.85874939 36.18095093 204.85874939 46.38095093 C233.56874939 46.38095093 262.27874939 46.38095093 291.85874939 46.38095093 C291.85874939 36.48095093 291.85874939 26.58095093 291.85874939 16.38095093 C285.17179544 16.57803544 285.17179544 16.57803544 278.48692322 16.83139038 C273.84017217 16.90045227 271.5666706 16.89868435 267.71812439 14.08407593 C265.28642012 10.54890922 265.17031374 8.58805765 265.85874939 4.38095093 C268.07910411 1.37215332 269.25781006 0.47731693 272.9874115 -0.12075806 C274.19147644 -0.11890503 275.39554138 -0.117052 276.63609314 -0.11514282 C277.95415955 -0.11578735 279.27222595 -0.11643188 280.63023376 -0.11709595 C281.6563678 -0.10150635 281.6563678 -0.10150635 282.70323181 -0.08560181 C284.78648333 -0.05668463 286.86718091 -0.06498934 288.95054626 -0.07803345 C300.58210795 -0.00416422 300.58210795 -0.00416422 304.85874939 3.38095093 C308.92536132 8.19659737 308.28008061 13.55993137 308.24642944 19.5337677 C308.25450775 21.24279246 308.25450775 21.24279246 308.26274925 22.98634297 C308.27708202 26.81256819 308.26991178 30.63845006 308.26280212 34.46469116 C308.26685864 37.20443624 308.27536512 39.94416365 308.28359985 42.68389893 C308.30080019 49.35818625 308.30162533 56.03237948 308.29638695 62.70668321 C308.29234634 68.13129383 308.29378751 73.55587663 308.29913521 78.98048592 C308.29988363 79.75240192 308.30063205 80.52431791 308.30140315 81.31962531 C308.30293462 82.88774626 308.30447297 84.4558672 308.30601812 86.02398814 C308.31974761 100.73111351 308.31430231 115.43818571 308.30283291 130.14530987 C308.29289987 143.60106633 308.30584159 157.05668528 308.3297671 170.51242053 C308.35414768 184.32815373 308.36376855 198.14382286 308.35711437 211.95957714 C308.35361985 219.71633691 308.35586953 227.47299091 308.3733654 235.22973442 C308.38807439 241.83284435 308.38874001 248.43577405 308.37129449 255.0388804 C308.36277105 258.40786389 308.36282757 261.77626027 308.37594604 265.14526939 C308.38908356 268.79753608 308.37767129 272.44892221 308.35995483 276.10115051 C308.36955984 277.16583744 308.37916485 278.23052437 308.38906091 279.32747453 C308.33084513 285.14490716 307.97191933 288.89452363 303.85874939 293.38095093 C300.69635542 295.36828856 298.24494964 295.63265168 294.54193306 295.63821983 C293.45781643 295.64466873 292.3736998 295.65111762 291.25673115 295.65776193 C290.06628127 295.65466473 288.87583138 295.65156752 287.64930725 295.64837646 C286.38422171 295.65290758 285.11913618 295.65743869 283.81571472 295.66210711 C280.30182174 295.67435655 276.78802383 295.67407437 273.27411437 295.67171836 C269.48533516 295.67131068 265.69658662 295.68234459 261.90782166 295.6918335 C254.4841086 295.70845493 247.0604273 295.71394355 239.63669719 295.71505825 C233.60327667 295.71600815 227.56986664 295.72011553 221.53644943 295.7264595 C204.43583687 295.74407476 187.33524943 295.75329789 170.23462774 295.75179856 C169.31249706 295.75171864 168.39036639 295.75163873 167.44029236 295.7515564 C166.51703765 295.75147464 165.59378294 295.75139287 164.64255081 295.75130863 C149.67680652 295.75049557 134.71116284 295.76963753 119.74544765 295.79783313 C104.38389628 295.82654646 89.02239401 295.84037429 73.66081512 295.83864558 C65.03436846 295.83798116 56.40802728 295.84349628 47.78160477 295.86500168 C40.43737953 295.88319307 33.09330758 295.88757766 25.74906959 295.87398283 C22.00144802 295.86744287 18.25412071 295.86737264 14.50652695 295.88468933 C10.44484707 295.90326444 6.38385149 295.89089258 2.32215881 295.87542725 C1.13617037 295.88571437 -0.04981807 295.8960015 -1.27174556 295.90660036 C-7.51174161 295.853914 -11.43551075 295.65406637 -16.14125061 291.38095093 C-17.97804305 288.67878679 -18.39603301 286.55202284 -18.43177795 283.31845093 C-18.44453766 282.53083374 -18.45729736 281.74321655 -18.47044373 280.93173218 C-18.47266937 280.08997437 -18.47489502 279.24821655 -18.47718811 278.38095093 C-18.48384491 277.50825562 -18.49050171 276.6355603 -18.49736023 275.73641968 C-18.50747101 273.89399317 -18.51217774 272.05153015 -18.51185608 270.20907593 C-18.51623537 267.39075586 -18.55258714 264.57399467 -18.59046936 261.75595093 C-18.59633663 259.96428961 -18.60030663 258.17262086 -18.60218811 256.38095093 C-18.61655914 255.53919312 -18.63093018 254.6974353 -18.64573669 253.83016968 C-18.61590018 250.01109612 -18.59595814 248.01781132 -16.33119202 244.84579468 C-13.13746354 242.70952145 -10.89665089 242.91152589 -7.14125061 243.38095093 C-3.95621491 245.14110223 -3.30828089 245.87986009 -2.14125061 249.38095093 C-2.14125061 259.28095093 -2.14125061 269.18095093 -2.14125061 279.38095093 C26.56874939 279.38095093 55.27874939 279.38095093 84.85874939 279.38095093 C84.85874939 207.77095093 84.85874939 136.16095093 84.85874939 62.38095093 C56.14874939 62.38095093 27.43874939 62.38095093 -2.14125061 62.38095093 C-2.09484436 73.58419312 -2.04843811 84.7874353 -2.00062561 96.33016968 C-1.98019371 103.41676189 -1.960773 110.50333282 -1.94593811 117.5899353 C-1.92218921 128.84448524 -1.89424703 140.09891553 -1.8394928 151.35336304 C-1.79963726 159.54936541 -1.7738207 167.74527086 -1.76489663 175.94136745 C-1.75967969 180.28161256 -1.74740981 184.62158039 -1.71833038 188.96173668 C-1.69118146 193.04685686 -1.68280448 197.13158551 -1.68881989 201.21678734 C-1.6877194 202.71599963 -1.67976212 204.215225 -1.66442871 205.71435928 C-1.64451314 207.76191484 -1.65169946 209.80968044 -1.66023254 211.85731506 C-1.65654537 213.00310374 -1.6528582 214.14889242 -1.6490593 215.32940197 C-2.25423427 219.0814411 -3.45776895 220.72952826 -6.14125061 223.38095093 C-9.57875061 224.44345093 -9.57875061 224.44345093 -13.14125061 224.38095093 C-15.82506561 222.9080267 -15.82506561 222.9080267 -18.14125061 220.38095093 C-18.63819972 217.36148987 -18.80938257 214.90459726 -18.76271057 211.88523865 C-18.76909939 211.01963568 -18.77548821 210.15403271 -18.78207064 209.26219934 C-18.79735472 206.35608444 -18.77683681 203.45132541 -18.75648499 200.54525757 C-18.75998518 198.46413215 -18.7656426 196.38300941 -18.77330017 194.30189514 C-18.7875732 188.64477493 -18.77046117 182.98813933 -18.747015 177.33106542 C-18.72693858 171.41568364 -18.73278393 165.50032262 -18.73512268 159.58491516 C-18.73506907 149.64908842 -18.71528982 139.7134516 -18.6832428 129.77767944 C-18.64635853 118.28623643 -18.63756548 106.79504239 -18.64454031 95.30354792 C-18.65084336 84.2563872 -18.640094 73.20931198 -18.62057495 62.1621685 C-18.61239452 57.45772522 -18.6096926 52.75332561 -18.61126709 48.04887581 C-18.61214536 42.50929132 -18.5979451 36.96994381 -18.57204056 31.43042183 C-18.56487165 29.39587045 -18.5627986 27.36129387 -18.56615829 25.32673264 C-18.5698664 22.55211267 -18.55514864 19.77818683 -18.53565979 17.00364685 C-18.54098772 16.1960585 -18.54631564 15.38847015 -18.55180502 14.55640942 C-18.49635529 9.98918097 -18.09765386 6.93386386 -15.14125061 3.38095093 C-10.62845426 -0.54956811 -5.67479095 -0.0394265 0 0 Z M-2.14125061 16.38095093 C-2.14125061 26.28095093 -2.14125061 36.18095093 -2.14125061 46.38095093 C26.56874939 46.38095093 55.27874939 46.38095093 84.85874939 46.38095093 C84.85874939 36.48095093 84.85874939 26.58095093 84.85874939 16.38095093 C56.14874939 16.38095093 27.43874939 16.38095093 -2.14125061 16.38095093 Z M100.85874939 16.38095093 C100.85874939 26.28095093 100.85874939 36.18095093 100.85874939 46.38095093 C129.89874939 46.38095093 158.93874939 46.38095093 188.85874939 46.38095093 C188.85874939 36.48095093 188.85874939 26.58095093 188.85874939 16.38095093 C159.81874939 16.38095093 130.77874939 16.38095093 100.85874939 16.38095093 Z M100.85874939 62.38095093 C100.85874939 133.99095093 100.85874939 205.60095093 100.85874939 279.38095093 C129.89874939 279.38095093 158.93874939 279.38095093 188.85874939 279.38095093 C188.85874939 207.77095093 188.85874939 136.16095093 188.85874939 62.38095093 C159.81874939 62.38095093 130.77874939 62.38095093 100.85874939 62.38095093 Z M204.85874939 62.38095093 C204.85874939 133.99095093 204.85874939 205.60095093 204.85874939 279.38095093 C233.56874939 279.38095093 262.27874939 279.38095093 291.85874939 279.38095093 C291.85874939 207.77095093 291.85874939 136.16095093 291.85874939 62.38095093 C263.14874939 62.38095093 234.43874939 62.38095093 204.85874939 62.38095093 Z " fill="#000000" transform="translate(111.14125061035156,154.61904907226563)"/>
<path d="M0 0 C0.88854233 -0.00453111 1.77708465 -0.00906223 2.69255251 -0.01373065 C5.67069311 -0.02639266 8.64865125 -0.02475303 11.6268158 -0.02310181 C13.76256546 -0.02908645 15.89831296 -0.03589185 18.03405762 -0.04345703 C23.8407159 -0.06114369 29.64731524 -0.0658139 35.45399785 -0.0670886 C39.08831026 -0.06851075 42.72260773 -0.07278185 46.35691643 -0.07808304 C59.05594201 -0.09660131 71.7549256 -0.10475255 84.45396423 -0.10317993 C96.25472093 -0.10198226 108.05529361 -0.12300623 119.85600382 -0.15466726 C130.00920815 -0.18092803 140.16235282 -0.19154294 150.3155908 -0.19026911 C156.36925334 -0.18976179 162.42275285 -0.19531541 168.4763813 -0.21662521 C174.18510704 -0.2361697 179.89351718 -0.23602248 185.60225487 -0.22159195 C187.68212476 -0.21952178 189.76201524 -0.22409585 191.84185028 -0.23631287 C231.71023334 -0.45506404 264.94001511 14.09715728 293.31126404 42.0682373 C294.25791756 43.01183126 295.20415542 43.95584238 296.15000916 44.90023804 C297.1615547 45.90532545 298.17323591 46.91027632 299.18504333 47.9151001 C301.28935912 50.00755316 303.38961753 52.103982 305.4874115 54.20297241 C307.60981293 56.32553624 309.73902116 58.44086101 311.87510681 60.5496521 C339.55602437 87.88216424 362.84185101 118.88419226 363.31548023 159.58621979 C363.3248595 162.12321123 363.32878836 164.66022635 363.32843018 167.19723511 C363.33173389 168.61324555 363.33546051 170.02925506 363.33957165 171.44526339 C363.34954091 175.32248496 363.35330017 179.19969105 363.35596097 183.07692361 C363.35987879 187.26375749 363.36945558 191.45057928 363.37817383 195.6374054 C363.39788951 205.73726739 363.40799508 215.83713031 363.41690162 225.93700671 C363.42128977 230.69579302 363.42665495 235.45457822 363.43189049 240.21336365 C363.44889262 256.03387979 363.46338881 271.85439526 363.47063923 287.67491913 C363.47254902 291.77557883 363.47446938 295.87623852 363.47642517 299.97689819 C363.47690891 300.99605656 363.47739265 302.01521494 363.47789105 303.06525689 C363.48619926 319.59105324 363.51155403 336.11677739 363.54400585 352.64254218 C363.57706424 369.61562179 363.59508661 386.58866466 363.59828347 403.56177664 C363.60044895 413.0891986 363.60920394 422.61651506 363.63474464 432.14390564 C363.65643436 440.25322507 363.66451032 448.36241333 363.65477786 456.47175848 C363.65022908 460.60850207 363.65215315 464.74497488 363.67153931 468.88168144 C363.68914137 472.67036807 363.68819768 476.45858579 363.67264201 480.2472772 C363.66913594 482.26310373 363.68531377 484.27893501 363.70224649 486.29469347 C363.64481352 494.36525682 362.86177883 500.00230431 357.43516541 506.29086304 C356.87700134 506.73687866 356.31883728 507.18289429 355.74375916 507.64242554 C355.18817322 508.10390991 354.63258728 508.56539429 354.06016541 509.04086304 C349.79072754 511.82798048 346.0847992 512.51806926 341.02858257 512.52469444 C339.7834721 512.53114334 338.53836162 512.53759223 337.25552052 512.54423654 C335.87657423 512.54129436 334.49762833 512.53815893 333.11868286 512.53485107 C331.65163782 512.5385877 330.18459476 512.54318927 328.71755487 512.54858172 C324.68531343 512.56082562 320.65315487 512.56054962 316.62089908 512.55819297 C312.27245036 512.55778515 307.92402835 512.56882058 303.57559204 512.57830811 C295.05578932 512.59492671 286.53601427 512.60041804 278.01619669 512.60153286 C271.09132268 512.60248293 264.16645781 512.60659116 257.24158669 512.61293411 C237.61148798 512.63054888 217.98141116 512.63977262 198.35130449 512.63827316 C197.29286287 512.63819325 196.23442125 512.63811334 195.14390564 512.63803101 C193.55430634 512.63790836 193.55430634 512.63790836 191.93259392 512.63778324 C174.75671784 512.63697028 157.58092945 512.65610994 140.40507873 512.68430774 C122.77216205 512.71302766 105.13928815 512.72684852 87.50634748 512.72512019 C77.60553461 512.72445598 67.70481365 512.72996188 57.80402184 512.75147629 C49.37439324 512.76967635 40.94489823 512.7740451 32.51525851 512.76045744 C28.21449824 512.75392184 23.91399434 512.75383186 19.61325836 512.77116394 C15.67456534 512.7868737 11.73633239 512.78405276 7.79765073 512.76659568 C6.37438124 512.76352113 4.9510776 512.76717537 3.52784839 512.77831583 C-5.344091 512.84315087 -11.89195574 512.5189177 -18.84217834 506.52133179 C-19.28819397 505.96316772 -19.73420959 505.40500366 -20.19374084 504.82992554 C-20.65522522 504.2743396 -21.11670959 503.71875366 -21.59217834 503.14633179 C-24.53413446 498.63970475 -25.06978785 494.76691579 -25.07600975 489.43202877 C-25.07951582 488.75379683 -25.0830219 488.0755649 -25.08663422 487.37678048 C-25.09595286 485.09960087 -25.0910238 482.82267673 -25.08616638 480.54548645 C-25.08990239 478.89822448 -25.09450371 477.25096428 -25.09989703 475.6037069 C-25.11214811 471.07347786 -25.1118641 466.54332255 -25.10950828 462.01308072 C-25.10910066 457.1289176 -25.12013385 452.24477829 -25.12962341 447.36062622 C-25.14624471 437.79139482 -25.15173342 428.22218805 -25.15284817 418.65294342 C-25.15379788 410.87801627 -25.15790428 403.10309726 -25.16424942 395.32817268 C-25.18186301 373.29829812 -25.19108782 351.26844305 -25.18958847 329.23856138 C-25.18950856 328.05062806 -25.18942865 326.86269473 -25.18934631 325.63876343 C-25.18926455 324.44938488 -25.18918279 323.26000634 -25.18909855 322.03458602 C-25.18828507 302.74469096 -25.20743806 283.45487388 -25.23562305 264.16500138 C-25.26431644 244.37152099 -25.27816538 224.57807868 -25.27643549 204.78457695 C-25.27577048 193.66658203 -25.2813116 182.54866891 -25.3027916 171.43069267 C-25.32095655 161.96779822 -25.32538925 152.50502266 -25.31177275 143.04211836 C-25.30522002 138.21124416 -25.30520865 133.38059836 -25.32247925 128.54974556 C-25.33811322 124.13140202 -25.33544637 119.71346985 -25.31791098 115.29513694 C-25.31481966 113.69293601 -25.31855293 112.09070511 -25.32963113 110.48853951 C-25.34365392 108.31751533 -25.3332461 106.14795393 -25.31651878 103.97698116 C-25.31695352 102.76914311 -25.31738826 101.56130506 -25.31783617 100.31686586 C-24.71650676 96.64278183 -23.79085445 95.45204037 -20.81874084 93.26742554 C-17.06524623 92.79823871 -14.78025631 92.73606173 -11.44374084 94.57992554 C-8.26993681 97.87579895 -8.69137692 101.44655887 -8.68566227 105.78422642 C-8.68341924 106.45230799 -8.68117622 107.12038956 -8.67886522 107.80871603 C-8.67251259 110.06332537 -8.6732901 112.31787711 -8.67398071 114.57249451 C-8.6708481 116.19883052 -8.66727356 117.82516572 -8.6632933 119.45149988 C-8.65357644 123.93308192 -8.65004177 128.41465121 -8.64745033 132.89624226 C-8.64356216 137.72449997 -8.63392474 142.55274636 -8.62489319 147.3809967 C-8.60994255 155.7508884 -8.59840359 164.12077918 -8.58894539 172.49067879 C-8.57508905 184.5944273 -8.55390436 196.69815482 -8.53051686 208.80188828 C-8.4925839 228.44086776 -8.45762014 248.07985103 -8.42591858 267.71884155 C-8.42401809 268.89492265 -8.42211759 270.07100374 -8.42015951 271.28272366 C-8.39331324 287.98233933 -8.36944337 304.68195795 -8.34677451 321.38157975 C-8.34517721 322.55796404 -8.34357991 323.73434832 -8.3419342 324.94638062 C-8.33954401 326.70881654 -8.33954401 326.70881654 -8.33710552 328.50685722 C-8.31037257 348.07201207 -8.27598904 367.63714449 -8.23528045 387.20227522 C-8.21045766 399.28126996 -8.19215776 411.36024054 -8.18212485 423.43925678 C-8.17475424 431.70947584 -8.16025918 439.97966249 -8.14006061 448.24986012 C-8.12862867 453.02774491 -8.12053767 457.80557732 -8.12106895 462.58347702 C-8.12149426 466.9511263 -8.11286734 471.31865742 -8.09681915 475.68627637 C-8.09263824 477.27234371 -8.09188835 478.85842428 -8.09478325 480.44449449 C-8.09821836 482.58862826 -8.08954961 484.73237059 -8.07766056 486.8764658 C-8.07592431 488.07095862 -8.07418806 489.26545144 -8.0723992 490.49614102 C-8.10373662 493.40890342 -8.10373662 493.40890342 -5.81874084 495.26742554 C-2.55730956 496.40986896 0.56741152 496.39372262 4.00062466 496.39605999 C5.19682664 496.39928444 6.39302863 496.40250888 7.62547916 496.40583104 C8.94112151 496.40428244 10.25676387 496.40273383 11.61227417 496.40113831 C13.02284527 496.40300615 14.43341586 496.40530675 15.84398562 496.40800363 C19.7246393 496.41413121 23.60527147 496.41398691 27.48592889 496.41280925 C31.66936411 496.41260549 35.85279237 496.41812163 40.03622437 496.42286682 C48.23363961 496.43117894 56.43104767 496.43392191 64.62846678 496.4344792 C71.28975285 496.43495405 77.95103654 496.43700723 84.61232185 496.44017982 C103.48879686 496.44898755 122.36526618 496.45359896 141.24174326 496.45284935 C142.76870915 496.45278942 142.76870915 496.45278942 144.32652283 496.45272827 C145.34573952 496.45268739 146.36495621 496.45264651 147.41505826 496.45260439 C163.93987754 496.45219778 180.46467405 496.46177087 196.98948675 496.47586664 C213.94773524 496.49021828 230.90597263 496.49713751 247.86422735 496.49627286 C257.38878278 496.4959405 266.91331434 496.49870494 276.4378643 496.50945091 C284.54587803 496.51853994 292.65385705 496.52074432 300.76187366 496.51394149 C304.9001647 496.51066832 309.03838911 496.51064824 313.17667389 496.51929474 C316.96339896 496.52712548 320.75000416 496.52576361 324.53672618 496.51701061 C326.55891957 496.51473607 328.58111658 496.52233102 330.60329574 496.53025025 C332.40151034 496.52335206 332.40151034 496.52335206 334.23605251 496.51631451 C335.78832441 496.51664056 335.78832441 496.51664056 337.37195534 496.5169732 C340.59349161 496.23080734 343.81508447 495.63360022 346.18125916 493.26742554 C346.28213488 491.56986122 346.31233713 489.86807079 346.31548023 488.1675148 C346.322167 486.49929889 346.322167 486.49929889 346.32898885 484.79738164 C346.32880449 483.56016763 346.32862013 482.32295363 346.32843018 481.04824829 C346.33394521 479.09449473 346.33394521 479.09449473 346.33957165 477.10127139 C346.34962154 473.46872201 346.35331328 469.83618915 346.35596097 466.20362782 C346.35985555 462.29196926 346.36943489 458.38032388 346.37817383 454.46867371 C346.39796897 445.00954552 346.40801127 435.55041621 346.41690162 426.09127247 C346.42128217 421.6369559 346.42664983 417.18264052 346.43189049 412.72832489 C346.44891077 397.91863375 346.4634025 383.10894335 346.47063923 368.29924393 C346.47254916 364.45286305 346.47446948 360.60648217 346.47642517 356.76010132 C346.47690891 355.80408951 346.47739265 354.84807771 346.47789105 353.86309585 C346.48618202 338.39427357 346.51149956 322.92552886 346.54400585 307.45674041 C346.57710884 291.57432013 346.59509118 275.6919392 346.59828347 259.80948424 C346.60044628 250.89268806 346.60916053 241.97600478 346.63474464 233.05924225 C346.65649646 225.46043303 346.66448034 217.86176409 346.65477786 210.26292726 C346.65024521 206.38889037 346.65205827 202.5151426 346.67153931 198.64114571 C346.68925996 195.08629565 346.6881022 191.53194371 346.67264201 187.97708771 C346.66916981 186.09883252 346.68522611 184.22057157 346.70224649 182.3423903 C346.5822772 166.35602197 340.91013331 152.35521175 329.92344666 140.81430054 C317.70666666 129.46766156 303.11274903 125.19364675 286.80625916 125.02914429 C285.95105179 125.02023666 285.09584442 125.01132904 284.21472168 125.00215149 C280.635084 124.97257625 277.05594562 124.9526362 273.47618103 124.96200562 C253.29273325 124.98218906 253.29273325 124.98218906 246.18125916 119.26742554 C240.44370079 113.04765278 239.04497577 108.280433 238.93516541 99.86508179 C238.90218469 98.15218687 238.86897387 96.43929636 238.83555603 94.72640991 C238.78849742 92.04114292 238.74414288 89.35588801 238.70445251 86.67050171 C238.37649449 65.50248034 236.12300331 48.19911654 221.08750916 32.01351929 C205.00698963 16.66128416 185.09771896 16.11523383 164.23472595 16.12216187 C162.42857799 16.11916568 160.62243067 16.1157621 158.81628418 16.11198425 C153.93652752 16.10319239 149.05678842 16.10080834 144.1770246 16.10016847 C141.12657792 16.09945588 138.07613566 16.09731773 135.02569008 16.09467125 C124.37987104 16.08543778 113.73406449 16.08133435 103.08824158 16.0821228 C93.16790757 16.08272489 83.2476277 16.07214227 73.3273074 16.05637914 C64.80055634 16.04331341 56.27382302 16.03793841 47.74706203 16.03857821 C42.65812414 16.03883324 37.56923453 16.03597864 32.48030663 16.02540016 C27.70075041 16.01573408 22.92128887 16.01562972 18.14172935 16.02291679 C16.38774477 16.02396409 14.63375433 16.02159116 12.87977982 16.01555634 C10.48660529 16.00785477 8.09375934 16.01246873 5.70059204 16.02018738 C5.00604296 16.01504381 4.31149388 16.00990025 3.59589785 16.00460082 C-0.49397235 16.03377333 -4.76350071 16.2121854 -7.81874084 19.26742554 C-7.92555882 20.74464511 -7.96494008 22.22682344 -7.97645569 23.70785522 C-7.99184891 25.12502838 -7.99184891 25.12502838 -8.0075531 26.5708313 C-8.01485443 27.59992615 -8.02215576 28.629021 -8.02967834 29.68930054 C-8.05775336 31.85076636 -8.08641787 34.01222459 -8.11561584 36.17367554 C-8.15685904 39.59489683 -8.19372968 43.0159774 -8.22010803 46.43734741 C-8.24772109 49.72996661 -8.29360325 53.02193279 -8.34217834 56.31430054 C-8.34543121 57.33529846 -8.34868408 58.35629639 -8.35203552 59.40823364 C-8.50747892 68.39144472 -8.50747892 68.39144472 -11.81874084 72.26742554 C-14.81874084 74.26742554 -14.81874084 74.26742554 -18.31874084 74.07992554 C-22.77010854 73.04657232 -22.77010854 73.04657232 -24.81874084 70.26742554 C-25.2064209 67.91044617 -25.2064209 67.91044617 -25.22279358 65.09677124 C-25.23547775 64.04169876 -25.24816193 62.98662628 -25.26123047 61.89958191 C-25.25829483 60.75897812 -25.25535919 59.61837433 -25.25233459 58.44320679 C-25.25757645 57.26783859 -25.2628183 56.0924704 -25.26821899 54.88148499 C-25.27464885 52.39075511 -25.27328982 49.8999949 -25.26478577 47.40927124 C-25.2563126 43.6120829 -25.2849669 39.81641689 -25.31678772 36.01937866 C-25.31840079 33.59815515 -25.31782017 31.17692899 -25.31483459 28.75570679 C-25.32606857 27.62522415 -25.33730255 26.49474152 -25.34887695 25.33000183 C-25.28165192 17.65628105 -24.22965683 12.22012013 -19.07264709 6.24398804 C-18.51448303 5.79797241 -17.95631897 5.35195679 -17.38124084 4.89242554 C-16.82565491 4.43094116 -16.27006897 3.96945679 -15.69764709 3.49398804 C-10.5424403 0.12863474 -5.96882795 -0.02233225 0 0 Z M237.18125916 24.26742554 C238.95824569 27.4113248 240.72933338 30.54361928 242.64219666 33.60726929 C251.19521759 47.34854403 254.26542553 60.85452898 254.35704041 76.88070679 C254.38020263 78.47381948 254.40431839 80.06691855 254.42930603 81.66000366 C254.46458405 84.13316565 254.49389821 86.60580828 254.50718689 89.07919312 C254.52263589 91.49280276 254.56276572 93.9049765 254.60704041 96.31820679 C254.60513199 97.05678421 254.60322357 97.79536163 254.60125732 98.55632019 C254.67845426 101.79286354 254.99108784 103.95997278 256.7061615 106.73275757 C260.18545021 108.89006757 263.38737273 108.81387507 267.35704041 108.77133179 C268.15925522 108.78075302 268.96147003 108.79017426 269.78799438 108.79988098 C272.35684034 108.82851444 274.92476691 108.83161455 277.49375916 108.82992554 C298.73885138 108.86055277 315.85520004 111.64292357 334.18125916 123.26742554 C335.84565584 124.27119914 337.51174142 125.27219274 339.18125916 126.26742554 C338.57179128 121.75221286 336.76605348 118.09791452 334.61875916 114.14242554 C334.26160828 113.48153931 333.9044574 112.82065308 333.53648376 112.13973999 C325.78162475 98.08777897 314.83146067 86.77944382 303.60704041 75.45492554 C302.72074448 74.56055786 301.83444855 73.66619019 300.92129517 72.74472046 C299.05799884 70.86769535 297.19321783 68.99214299 295.32701111 67.11801147 C293.44121825 65.22336665 291.56162883 63.32288683 289.68736267 61.4168396 C276.81876438 48.34634114 264.48349914 36.52015126 247.99375916 28.14242554 C247.27123962 27.75828491 246.54872009 27.37414429 245.80430603 26.97836304 C241.71018534 24.83243097 241.71018534 24.83243097 237.18125916 24.26742554 Z " fill="#000000" transform="translate(86.81874084472656,-0.267425537109375)"/>
<path d="M0 0 C2.20703125 1.1015625 2.20703125 1.1015625 4 3 C4.390625 6.13671875 4.390625 6.13671875 4.25 9.6875 C4.21390625 10.86699219 4.1778125 12.04648437 4.140625 13.26171875 C4.09421875 14.16535156 4.0478125 15.06898437 4 16 C5.010625 16.20625 6.02125 16.4125 7.0625 16.625 C11.6158552 17.94185629 14.9483888 20.3912126 18 24 C19.125 27.0625 19.125 27.0625 19 30 C17.86220128 32.32731556 16.83159286 34.16840714 15 36 C10.34740025 36.40108618 7.42681082 36.56140584 3.5 33.9375 C0.64259445 32.05675962 -1.04246622 31.80249994 -4.4375 32.25 C-5.613125 32.4975 -6.78875 32.745 -8 33 C-8.33 34.98 -8.66 36.96 -9 39 C-0.62493363 43.26151312 -0.62493363 43.26151312 7.9375 47.125 C13.90110964 49.77310103 17.49114608 52.75552139 20.20703125 58.73046875 C22.49567994 65.28073915 22.60617859 71.35892126 20.07421875 77.83203125 C16.73492657 84.57133001 12.83592392 88.84495819 6 92 C5.34 92 4.68 92 4 92 C4.05800781 92.89203125 4.11601562 93.7840625 4.17578125 94.703125 C4.22089844 95.87359375 4.26601562 97.0440625 4.3125 98.25 C4.37050781 99.41015625 4.42851562 100.5703125 4.48828125 101.765625 C4 105 4 105 1.70703125 107.42578125 C-1 109 -1 109 -4.625 108.9375 C-9.01397026 107.7183416 -9.01397026 107.7183416 -11 105 C-11.37890625 102.22265625 -11.37890625 102.22265625 -11.5625 99.0625 C-11.89906944 95.8390045 -11.89906944 95.8390045 -13 93 C-16.10250335 90.84197554 -19.40376992 90.05156324 -23 89 C-26.3004437 86.66553982 -26.86108133 85.44944276 -28.0625 81.5625 C-28 78 -28 78 -26 75.0625 C-22.27375038 72.50070339 -20.44199587 72.36542916 -16 73 C-15.2575 73.495 -14.515 73.99 -13.75 74.5 C-9.36579734 76.89138327 -4.88050953 76.6768041 0 76 C3.03104348 74.05147205 3.71439734 72.87877742 4.8125 69.5 C5.00443929 66.94080948 4.91909259 65.3848034 4 63 C1.97469199 62.27912766 -0.05936084 61.57767272 -2.12109375 60.96875 C-5.62487747 59.78972916 -8.92902866 58.29709876 -12.25 56.6875 C-13.41015625 56.13449219 -14.5703125 55.58148438 -15.765625 55.01171875 C-20.7235346 51.92799478 -24.52050962 47.78346239 -26 42 C-26.81242939 34.4560128 -25.32131435 28.48197152 -21.125 22.1875 C-18.90098551 19.89807332 -16.84982146 18.42491073 -14 17 C-13.34 17 -12.68 17 -12 17 C-12.02320312 16.41992188 -12.04640625 15.83984375 -12.0703125 15.2421875 C-12.18136555 10.43517692 -12.06352697 6.45287399 -10 2 C-6.28986601 -0.47342266 -4.38939738 -0.38503486 0 0 Z " fill="#000000" transform="translate(136,31)"/>
<path d="M0 0 C0.98279938 -0.00990463 1.96559875 -0.01980927 2.97817993 -0.03001404 C4.59362953 -0.02326157 4.59362953 -0.02326157 6.24171448 -0.01637268 C7.37689514 -0.02323593 8.51207581 -0.03009918 9.68165588 -0.03717041 C13.44472156 -0.05551421 17.20737333 -0.05158994 20.97047424 -0.0459137 C23.57977434 -0.05047187 26.18907323 -0.05577635 28.79837036 -0.0617981 C34.27187579 -0.07183371 39.74526311 -0.06852187 45.21876526 -0.05836487 C51.54513887 -0.04688461 57.87108851 -0.06095564 64.19740623 -0.08776134 C70.28378549 -0.11258461 76.36996905 -0.11509731 82.45639229 -0.10864449 C85.04601306 -0.10849081 87.63564181 -0.11457305 90.22523308 -0.12693596 C93.84302908 -0.14177276 97.45988586 -0.13122144 101.07765198 -0.11402893 C102.15259415 -0.1236969 103.22753632 -0.13336487 104.33505249 -0.14332581 C111.54939033 -0.07134386 111.54939033 -0.07134386 114.88980103 2.20028687 C116.86747258 5.44171639 116.75517568 7.67211378 116.22438049 11.38768005 C114.0057502 14.29485078 112.70493121 15.22749648 109.22438049 16.38768005 C107.71294354 16.48278433 106.19768921 16.52255551 104.68327332 16.52812195 C103.75240402 16.53383209 102.82153473 16.53954224 101.86245728 16.54542542 C100.33352089 16.5471022 100.33352089 16.5471022 98.7736969 16.54881287 C97.16111748 16.55626022 97.16111748 16.55626022 95.51596069 16.56385803 C91.952615 16.57848668 88.38931381 16.58528251 84.82594299 16.59080505 C82.35356138 16.59655549 79.88117979 16.60231323 77.40879822 16.608078 C72.221998 16.61858969 67.0352133 16.62443141 61.84840393 16.62791443 C55.1979641 16.63340251 48.54779463 16.6574366 41.89740944 16.68588638 C36.78965147 16.70449665 31.68194292 16.70971749 26.5741539 16.71125031 C24.1221187 16.7142805 21.67008444 16.72232128 19.21808243 16.73543549 C15.78984703 16.75246349 12.36211351 16.75062353 8.93385315 16.74412537 C7.91861069 16.75334015 6.90336823 16.76255493 5.85736084 16.77204895 C-2.86186811 16.72019817 -2.86186811 16.72019817 -6.77561951 13.38768005 C-8.77561951 10.38768005 -8.77561951 10.38768005 -8.58811951 6.88768005 C-7.32982862 1.46735007 -5.50646565 0.01565225 0 0 Z " fill="#000000" transform="translate(178.77561950683594,61.61231994628906)"/>
<path d="M0 0 C1.06805878 -0.01606293 2.13611755 -0.03212585 3.23654175 -0.04867554 C8.11830065 -0.09302931 12.99992286 -0.1341781 17.88183594 -0.15722656 C20.46005263 -0.17380569 23.03822301 -0.20112093 25.61621094 -0.23925781 C29.32657805 -0.2938849 33.03586753 -0.31587867 36.74658203 -0.33056641 C37.90084686 -0.35323578 39.05511169 -0.37590515 40.24435425 -0.39926147 C48.19542788 -0.37816912 48.19542788 -0.37816912 51.64160156 2.49902344 C53.32921825 6.17183655 52.94975191 8.33958453 51.87939453 12.19287109 C50.30053487 14.25225326 49.1879703 15.03858321 46.87939453 16.19287109 C45.27231696 16.30323646 43.66081228 16.35198594 42.05004883 16.36987305 C41.04528 16.38270828 40.04051117 16.39554352 39.0052948 16.4087677 C37.9157399 16.41615463 36.826185 16.42354156 35.70361328 16.43115234 C34.58630325 16.43922409 33.46899323 16.44729584 32.31782532 16.45561218 C29.94977372 16.46946056 27.5817021 16.48017933 25.21362305 16.48803711 C21.59206315 16.50525146 17.97141553 16.54913238 14.35009766 16.59326172 C12.05127626 16.60338824 9.75244708 16.61190447 7.45361328 16.61865234 C6.37013107 16.63616043 5.28664886 16.65366852 4.17033386 16.67170715 C-3.33650964 16.65005341 -3.33650964 16.65005341 -7.28149414 14.34985352 C-9.66517534 11.55417804 -10.12060547 9.8585076 -10.12060547 6.19287109 C-7.60962638 0.81220162 -5.7134709 0.07793566 0 0 Z " fill="#000000" transform="translate(180.12060546875,92.80712890625)"/>
<path d="M0 0 C0.85049927 -0.00478363 1.70099854 -0.00956726 2.57727051 -0.01449585 C4.37265882 -0.01789324 6.16810913 -0.00870186 7.96337891 0.01220703 C10.71006317 0.03897783 13.45266144 0.01245696 16.19921875 -0.01953125 C17.94532151 -0.01622712 19.69142173 -0.00982081 21.4375 0 C22.25738403 -0.01012115 23.07726807 -0.02024231 23.92199707 -0.03067017 C28.04062416 0.05389624 29.6283881 0.11382784 32.74023438 3.01416016 C34.53885055 6.2377698 34.76082985 8.02438352 34.21875 11.6640625 C32.43890595 14.7999782 31.69566793 15.50508986 28.21875 16.6640625 C25.61868181 16.78465597 23.04619924 16.85213677 20.4453125 16.8671875 C19.30417496 16.87573761 19.30417496 16.87573761 18.13998413 16.88446045 C16.53116238 16.89389998 14.92232138 16.90044028 13.31347656 16.90429688 C10.85968085 16.91399951 8.40672411 16.9450303 5.953125 16.9765625 C4.38802579 16.98309335 2.82292061 16.9883435 1.2578125 16.9921875 C0.52744781 17.0045343 -0.20291687 17.0168811 -0.95541382 17.02960205 C-5.40802887 17.01025443 -8.24535438 16.4180215 -11.78125 13.6640625 C-13.20787219 10.81081813 -13.09158868 8.82951701 -12.78125 5.6640625 C-9.54507228 -0.18405015 -6.10275414 -0.07533617 0 0 Z " fill="#000000" transform="translate(348.78125,387.3359375)"/>
<path d="M0 0 C1.2757489 -0.00361794 1.2757489 -0.00361794 2.57727051 -0.00730896 C4.37268748 -0.00633091 6.16813475 0.00705294 7.96337891 0.03198242 C10.70970213 0.06629321 13.45280743 0.05264108 16.19921875 0.03320312 C17.94532618 0.04010177 19.69142531 0.04977432 21.4375 0.0625 C22.25738403 0.05754013 23.07726807 0.05258026 23.92199707 0.04747009 C27.68367987 0.12507763 29.62431452 0.20063413 32.74023438 2.44555664 C34.89820769 5.63227318 34.68873951 7.86899019 34.21875 11.62890625 C32.45859869 14.81394195 31.71984084 15.46187597 28.21875 16.62890625 C25.61868181 16.74949972 23.04619924 16.81698052 20.4453125 16.83203125 C19.30417496 16.84058136 19.30417496 16.84058136 18.13998413 16.8493042 C16.53116238 16.85874373 14.92232138 16.86528403 13.31347656 16.86914062 C10.85968085 16.87884326 8.40672411 16.90987405 5.953125 16.94140625 C4.38802579 16.9479371 2.82292061 16.95318725 1.2578125 16.95703125 C0.52744781 16.96937805 -0.20291687 16.98172485 -0.95541382 16.9944458 C-5.40802887 16.97509818 -8.24535438 16.38286525 -11.78125 13.62890625 C-13.20787219 10.77566188 -13.09158868 8.79436076 -12.78125 5.62890625 C-9.54283575 -0.22808632 -6.10596217 -0.09873851 0 0 Z " fill="#000000" transform="translate(348.78125,356.37109375)"/>
<path d="M0 0 C1.2757489 -0.00361794 1.2757489 -0.00361794 2.57727051 -0.00730896 C4.37268748 -0.00633091 6.16813475 0.00705294 7.96337891 0.03198242 C10.70970213 0.06629321 13.45280743 0.05264108 16.19921875 0.03320312 C17.94532618 0.04010177 19.69142531 0.04977432 21.4375 0.0625 C22.25738403 0.05754013 23.07726807 0.05258026 23.92199707 0.04747009 C27.68247772 0.12505282 29.6230485 0.19905609 32.73632812 2.44555664 C34.91734043 5.65780845 34.76002126 7.84000744 34.21875 11.62890625 C32.35166495 13.99388064 30.89813569 15.2892134 28.21875 16.62890625 C25.65113414 16.75201751 23.11168981 16.8172704 20.54296875 16.83203125 C19.39970879 16.84058136 19.39970879 16.84058136 18.23335266 16.8493042 C16.61855458 16.85875706 15.00373718 16.86528932 13.38891602 16.86914062 C10.92624908 16.87882758 8.46442344 16.90983928 6.00195312 16.94140625 C4.43229662 16.94793835 2.86263414 16.95318801 1.29296875 16.95703125 C0.19271614 16.97555145 0.19271614 16.97555145 -0.92976379 16.9944458 C-5.39129578 16.97514961 -8.23886649 16.3908643 -11.78125 13.62890625 C-13.20787219 10.77566188 -13.09158868 8.79436076 -12.78125 5.62890625 C-9.54283575 -0.22808632 -6.10596217 -0.09873851 0 0 Z " fill="#000000" transform="translate(348.78125,325.37109375)"/>
<path d="M0 0 C0.85049927 -0.00619858 1.70099854 -0.01239716 2.57727051 -0.01878357 C4.37262834 -0.02587679 6.16805202 -0.02271634 7.96337891 -0.01000977 C10.70988947 0.0038615 13.45299569 -0.03022422 16.19921875 -0.06835938 C17.94531333 -0.06931056 19.69141218 -0.06745178 21.4375 -0.0625 C22.25738403 -0.07575821 23.07726807 -0.08901642 23.92199707 -0.10267639 C28.04221935 -0.03540249 29.6236696 0.01143261 32.73632812 2.91430664 C34.54931431 6.15779626 34.84176876 7.90617103 34.21875 11.56640625 C32.3516509 13.86916181 30.86227259 15.24464496 28.21875 16.56640625 C25.65113414 16.68951751 23.11168981 16.7547704 20.54296875 16.76953125 C19.39970879 16.77808136 19.39970879 16.77808136 18.23335266 16.7868042 C16.61855458 16.79625706 15.00373718 16.80278932 13.38891602 16.80664062 C10.92624908 16.81632758 8.46442344 16.84733928 6.00195312 16.87890625 C4.43229662 16.88543835 2.86263414 16.89068801 1.29296875 16.89453125 C0.19271614 16.91305145 0.19271614 16.91305145 -0.92976379 16.9319458 C-5.39129578 16.91264961 -8.23886649 16.3283643 -11.78125 13.56640625 C-13.32711876 10.47466873 -13.07484521 7.97211073 -12.78125 4.56640625 C-9.44307812 -0.4070487 -5.47837723 -0.03314132 0 0 Z " fill="#000000" transform="translate(141.78125,325.43359375)"/>
<path d="M0 0 C0.83113312 -0.00807175 1.66226624 -0.01614349 2.51858521 -0.02445984 C4.27880772 -0.03829946 6.03905705 -0.04902217 7.79931641 -0.05688477 C10.4904258 -0.07410748 13.18030969 -0.11799412 15.87109375 -0.16210938 C17.58072013 -0.17223552 19.29035695 -0.18075187 21 -0.1875 C22.20642654 -0.21376213 22.20642654 -0.21376213 23.43722534 -0.24055481 C27.08672735 -0.22639509 29.17599052 -0.11203272 32.11767578 2.14379883 C33.70946605 4.34424497 34.4688162 5.53234225 34.6328125 8.23828125 C33.88058953 11.04202142 33.08090448 12.77631001 31.05639648 14.86352539 C27.63098207 16.8065604 24.37837337 16.68686498 20.54296875 16.671875 C19.37065956 16.67973778 19.37065956 16.67973778 18.17466736 16.6877594 C16.52474147 16.69417134 14.87476983 16.69285329 13.22485352 16.68432617 C10.70701246 16.67582077 8.19144488 16.70457795 5.67382812 16.73632812 C4.06770901 16.73794048 2.4615859 16.73736194 0.85546875 16.734375 C0.10636734 16.74560898 -0.64273407 16.75684296 -1.41453552 16.76841736 C-5.09305293 16.71963996 -7.1889554 16.35196706 -10.31860352 14.35571289 C-12.74568926 11.84705902 -13.3671875 10.72467352 -13.3671875 7.23828125 C-10.35895033 -0.21068698 -7.46215452 0.06819274 0 0 Z " fill="#000000" transform="translate(245.3671875,356.76171875)"/>
<path d="M0 0 C1.2757489 -0.00361794 1.2757489 -0.00361794 2.57727051 -0.00730896 C4.37268748 -0.00633091 6.16813475 0.00705294 7.96337891 0.03198242 C10.70970213 0.06629321 13.45280743 0.05264108 16.19921875 0.03320312 C17.94532618 0.04010177 19.69142531 0.04977432 21.4375 0.0625 C22.25738403 0.05754013 23.07726807 0.05258026 23.92199707 0.04747009 C27.68247772 0.12505282 29.6230485 0.19905609 32.73632812 2.44555664 C34.91734043 5.65780845 34.76002126 7.84000744 34.21875 11.62890625 C32.00011971 14.53607698 30.69930071 15.46872268 27.21875 16.62890625 C24.76379574 16.7372827 22.33808221 16.79291899 19.8828125 16.796875 C18.80826309 16.8018676 18.80826309 16.8018676 17.71200562 16.80696106 C16.19733318 16.81201979 14.68264962 16.81436971 13.16796875 16.81420898 C10.85918644 16.81639166 8.55088506 16.83454745 6.2421875 16.85351562 C4.76823079 16.8564506 3.29427183 16.8584347 1.8203125 16.859375 C1.13369537 16.86656052 0.44707825 16.87374603 -0.26034546 16.88114929 C-4.19732587 16.86253235 -7.30173201 16.52750765 -10.78125 14.62890625 C-13.12293764 11.11637479 -13.27748677 9.76421269 -12.78125 5.62890625 C-9.53158895 -0.2242498 -6.11182104 -0.09883325 0 0 Z " fill="#000000" transform="translate(348.78125,294.37109375)"/>
<path d="M0 0 C0.82971817 -0.00428513 1.65943634 -0.00857025 2.51429749 -0.01298523 C4.26855558 -0.01872628 6.02283748 -0.01923044 7.77709961 -0.01489258 C10.45923551 -0.01173455 13.14026626 -0.03518693 15.82226562 -0.06054688 C17.52734236 -0.06282011 19.23242206 -0.06352325 20.9375 -0.0625 C21.73864731 -0.07170975 22.53979462 -0.08091949 23.36521912 -0.09040833 C26.67647215 -0.06293762 29.08992326 0.05432471 32.01782227 1.67504883 C34.07079631 3.87468747 34.39260761 5.30725975 34.53515625 8.30078125 C33.77142489 11.50845295 33.05287456 12.90082461 30.43359375 14.92431641 C26.83360153 16.63394883 23.68788006 16.73296907 19.78515625 16.69921875 C19.04942383 16.70208893 18.31369141 16.70495911 17.55566406 16.70791626 C16.00585151 16.70995051 14.45601291 16.7044654 12.90625 16.69189453 C10.54238132 16.67583035 8.18022214 16.69176345 5.81640625 16.7109375 C4.30598583 16.70895495 2.79556647 16.70511104 1.28515625 16.69921875 C0.23183105 16.70832779 0.23183105 16.70832779 -0.84277344 16.71762085 C-5.20865918 16.655461 -8.0126882 16.01398978 -11.46484375 13.30078125 C-13.13838826 9.95369222 -13.69040505 8.20302643 -12.77734375 4.55078125 C-9.75313993 -0.63356816 -5.33952011 -0.00605908 0 0 Z " fill="#000000" transform="translate(245.46484375,294.69921875)"/>
<path d="M0 0 C0.85049927 -0.00619858 1.70099854 -0.01239716 2.57727051 -0.01878357 C4.37262834 -0.02587679 6.16805202 -0.02271634 7.96337891 -0.01000977 C10.70988947 0.0038615 13.45299569 -0.03022422 16.19921875 -0.06835938 C17.94531333 -0.06931056 19.69141218 -0.06745178 21.4375 -0.0625 C22.25738403 -0.07575821 23.07726807 -0.08901642 23.92199707 -0.10267639 C28.04221935 -0.03540249 29.6236696 0.01143261 32.73632812 2.91430664 C34.54931431 6.15779626 34.84176876 7.90617103 34.21875 11.56640625 C31.98668569 14.41421244 30.66882001 15.41638291 27.21875 16.56640625 C24.77565815 16.68662101 22.36188288 16.75442448 19.91796875 16.76953125 C18.84697685 16.77808136 18.84697685 16.77808136 17.75434875 16.7868042 C16.24388098 16.79624276 14.73339273 16.80278364 13.22290039 16.80664062 C10.92492214 16.81632754 8.62784586 16.84735231 6.33007812 16.87890625 C4.85938029 16.88543881 3.38867608 16.89068829 1.91796875 16.89453125 C0.89578499 16.91305145 0.89578499 16.91305145 -0.14704895 16.9319458 C-4.74457648 16.91073657 -7.88058083 15.99099698 -11.78125 13.56640625 C-13.32711876 10.47466873 -13.07484521 7.97211073 -12.78125 4.56640625 C-9.44307812 -0.4070487 -5.47837723 -0.03314132 0 0 Z " fill="#000000" transform="translate(141.78125,294.43359375)"/>
<path d="M0 0 C0.82971817 -0.0066568 1.65943634 -0.0133136 2.51429749 -0.02017212 C4.26854232 -0.03029361 6.02282561 -0.03498929 7.77709961 -0.03466797 C10.45946731 -0.039041 13.1401891 -0.07536334 15.82226562 -0.11328125 C17.52733813 -0.11914959 19.23241844 -0.12311887 20.9375 -0.125 C22.13922096 -0.14655655 22.13922096 -0.14655655 23.36521912 -0.16854858 C27.00413926 -0.13872557 29.08773703 -0.00786561 32.01782227 2.24365234 C33.61284124 4.44305904 34.37109831 5.62898149 34.53515625 8.3359375 C33.76112701 11.50945738 33.02946063 12.95315021 30.43359375 14.96337891 C26.83363732 16.66814264 23.68620139 16.76811081 19.78515625 16.734375 C19.04942383 16.73724518 18.31369141 16.74011536 17.55566406 16.74307251 C16.00585151 16.74510676 14.45601291 16.73962165 12.90625 16.72705078 C10.54238132 16.7109866 8.18022214 16.7269197 5.81640625 16.74609375 C4.30598583 16.7441112 2.79556647 16.74026729 1.28515625 16.734375 C0.23183105 16.74348404 0.23183105 16.74348404 -0.84277344 16.7527771 C-5.20865918 16.69061725 -8.0126882 16.04914603 -11.46484375 13.3359375 C-13.13838826 9.98884847 -13.69040505 8.23818268 -12.77734375 4.5859375 C-9.75823848 -0.58967153 -5.33546182 0.01478495 0 0 Z " fill="#000000" transform="translate(245.46484375,325.6640625)"/>
<path d="M0 0 C0.85521744 0.00091141 1.71043488 0.00182281 2.59156799 0.00276184 C3.46946487 -0.00152328 4.34736176 -0.00580841 5.25186157 -0.01022339 C7.11044959 -0.01597191 8.96906012 -0.01646312 10.82765198 -0.01213074 C13.67447757 -0.00897327 16.52026181 -0.03241428 19.36695862 -0.05778503 C21.17099376 -0.06005819 22.97503171 -0.06076145 24.77906799 -0.05973816 C25.6322612 -0.06894791 26.48545441 -0.07815765 27.36450195 -0.08764648 C33.32633073 -0.04088571 33.32633073 -0.04088571 35.44973755 1.67837524 C37.22532468 3.89470136 37.54997133 5.47900227 37.75172424 8.30354309 C36.81556174 11.4000806 36.04749102 13.00777631 33.75172424 15.30354309 C30.77384009 15.51591201 27.89136377 15.60749958 24.91188049 15.60432434 C23.59503517 15.61075203 23.59503517 15.61075203 22.25158691 15.61730957 C20.39299889 15.62305809 18.53438837 15.6235493 16.67579651 15.61921692 C13.82897092 15.61605945 10.98318667 15.63950046 8.13648987 15.66487122 C6.33245472 15.66714437 4.52841678 15.66784763 2.72438049 15.66682434 C1.87118729 15.67603409 1.01799408 15.68524384 0.13894653 15.69473267 C-5.82288224 15.64797189 -5.82288224 15.64797189 -7.94628906 13.92871094 C-9.72187619 11.71238483 -10.04652284 10.12808391 -10.24827576 7.30354309 C-8.37370531 1.10304085 -6.41697374 0.07732869 0 0 Z " fill="#000000" transform="translate(242.24827575683594,263.6964569091797)"/>
<path d="M0 0 C1.2757489 -0.00574036 1.2757489 -0.00574036 2.57727051 -0.01159668 C4.37265204 -0.01431458 6.16807324 -0.00696182 7.96337891 0.00976562 C10.70955793 0.03117833 13.45312097 0.00996129 16.19921875 -0.015625 C17.94531827 -0.0129817 19.69141616 -0.00785667 21.4375 0 C22.25738403 -0.00809692 23.07726807 -0.01619385 23.92199707 -0.02453613 C27.68553394 0.03728423 29.618811 0.09886573 32.73632812 2.34570312 C34.91624298 5.5595697 34.76016158 7.74136896 34.21875 11.53125 C32.58115828 13.94313781 31.29546948 15.31018001 28.37670898 15.90945435 C26.05458479 16.07880642 23.76580182 16.11174126 21.4375 16.09765625 C20.58700073 16.10385483 19.73650146 16.11005341 18.86022949 16.11643982 C17.06487166 16.12353304 15.26944798 16.12037259 13.47412109 16.10766602 C10.72761053 16.09379475 7.98450431 16.12788047 5.23828125 16.16601562 C3.49218667 16.16696681 1.74608782 16.16510803 0 16.16015625 C-0.81988403 16.17341446 -1.63976807 16.18667267 -2.48449707 16.20033264 C-6.60471935 16.13305874 -8.1861696 16.08622364 -11.29882812 13.18334961 C-13.11181431 9.93985999 -13.40426876 8.19148522 -12.78125 4.53125 C-9.36560208 -0.42346457 -5.51965464 -0.05451042 0 0 Z " fill="#000000" transform="translate(348.78125,232.46875)"/>
<path d="M0 0 C0.85521744 0.00091141 1.71043488 0.00182281 2.59156799 0.00276184 C3.46946487 -0.00152328 4.34736176 -0.00580841 5.25186157 -0.01022339 C7.11044959 -0.01597191 8.96906012 -0.01646312 10.82765198 -0.01213074 C13.67447757 -0.00897327 16.52026181 -0.03241428 19.36695862 -0.05778503 C21.17099376 -0.06005819 22.97503171 -0.06076145 24.77906799 -0.05973816 C25.6322612 -0.06894791 26.48545441 -0.07815765 27.36450195 -0.08764648 C33.32633073 -0.04088571 33.32633073 -0.04088571 35.44973755 1.67837524 C37.22532468 3.89470136 37.54997133 5.47900227 37.75172424 8.30354309 C36.81556174 11.4000806 36.04749102 13.00777631 33.75172424 15.30354309 C30.77384009 15.51591201 27.89136377 15.60749958 24.91188049 15.60432434 C23.59503517 15.61075203 23.59503517 15.61075203 22.25158691 15.61730957 C20.39299889 15.62305809 18.53438837 15.6235493 16.67579651 15.61921692 C13.82897092 15.61605945 10.98318667 15.63950046 8.13648987 15.66487122 C6.33245472 15.66714437 4.52841678 15.66784763 2.72438049 15.66682434 C1.87118729 15.67603409 1.01799408 15.68524384 0.13894653 15.69473267 C-5.82288224 15.64797189 -5.82288224 15.64797189 -7.94628906 13.92871094 C-9.72187619 11.71238483 -10.04652284 10.12808391 -10.24827576 7.30354309 C-8.37370531 1.10304085 -6.41697374 0.07732869 0 0 Z " fill="#000000" transform="translate(242.24827575683594,232.6964569091797)"/>
<path d="M0 0 C1.2757489 -0.00574036 1.2757489 -0.00574036 2.57727051 -0.01159668 C4.37265204 -0.01431458 6.16807324 -0.00696182 7.96337891 0.00976562 C10.70955793 0.03117833 13.45312097 0.00996129 16.19921875 -0.015625 C17.94531827 -0.0129817 19.69141616 -0.00785667 21.4375 0 C22.25738403 -0.00809692 23.07726807 -0.01619385 23.92199707 -0.02453613 C27.70986365 0.03768387 29.61635543 0.08868393 32.73632812 2.38085938 C34.780088 5.34552291 34.79562615 6.99788359 34.21875 10.53125 C32.73632812 13.18334961 32.73632812 13.18334961 30.21875 15.53125 C27.29284668 16.2657797 24.44141065 16.20873199 21.4375 16.16015625 C20.58700073 16.16256821 19.73650146 16.16498016 18.86022949 16.16746521 C17.06481252 16.16648716 15.26936525 16.15310331 13.47412109 16.12817383 C10.72779787 16.09386304 7.98469257 16.10751517 5.23828125 16.12695312 C3.49217382 16.12005448 1.74607469 16.11038193 0 16.09765625 C-0.81988403 16.10261612 -1.63976807 16.10757599 -2.48449707 16.11268616 C-6.24497772 16.03510343 -8.1855485 15.96110016 -11.29882812 13.71459961 C-13.47984043 10.5023478 -13.32252126 8.32014881 -12.78125 4.53125 C-9.40975032 -0.43937997 -5.49839197 -0.05430044 0 0 Z " fill="#000000" transform="translate(141.78125,232.46875)"/>
<path d="M0 0 C1.2757489 -0.00361794 1.2757489 -0.00361794 2.57727051 -0.00730896 C4.37268748 -0.00633091 6.16813475 0.00705294 7.96337891 0.03198242 C10.70970213 0.06629321 13.45280743 0.05264108 16.19921875 0.03320312 C17.94532618 0.04010177 19.69142531 0.04977432 21.4375 0.0625 C22.25738403 0.05754013 23.07726807 0.05258026 23.92199707 0.04747009 C27.68247772 0.12505282 29.6230485 0.19905609 32.73632812 2.44555664 C34.91734043 5.65780845 34.76002126 7.84000744 34.21875 11.62890625 C32.58162465 14.04253374 31.29993122 15.41095043 28.37670898 16.00024414 C26.05427187 16.15979682 23.76534587 16.18314534 21.4375 16.16015625 C20.1617511 16.16589661 20.1617511 16.16589661 18.86022949 16.17175293 C17.06484796 16.17447083 15.26942676 16.16711807 13.47412109 16.15039062 C10.72794207 16.12897792 7.98437903 16.15019496 5.23828125 16.17578125 C3.49218173 16.17313795 1.74608384 16.16801292 0 16.16015625 C-0.81988403 16.16825317 -1.63976807 16.1763501 -2.48449707 16.18469238 C-6.27236365 16.12247238 -8.17885543 16.07147232 -11.29882812 13.77929688 C-13.342588 10.81463334 -13.35812615 9.16227266 -12.78125 5.62890625 C-9.5131508 -0.21782656 -6.12178328 -0.09899435 0 0 Z " fill="#000000" transform="translate(348.78125,263.37109375)"/>
<path d="M0 0 C0.85049927 -0.00619858 1.70099854 -0.01239716 2.57727051 -0.01878357 C4.37262834 -0.02587679 6.16805202 -0.02271634 7.96337891 -0.01000977 C10.70988947 0.0038615 13.45299569 -0.03022422 16.19921875 -0.06835938 C17.94531333 -0.06931056 19.69141218 -0.06745178 21.4375 -0.0625 C22.25738403 -0.07575821 23.07726807 -0.08901642 23.92199707 -0.10267639 C28.02737607 -0.03564485 29.6320871 0.03489729 32.77148438 2.87915039 C34.74680277 6.5468848 34.31795565 8.6092659 33.21875 12.56640625 C31.90122986 14.25209045 31.90122986 14.25209045 30.21875 15.56640625 C27.25322627 15.87705514 24.50213271 16.01055696 21.53515625 16 C20.25728493 16.00786278 20.25728493 16.00786278 18.95359802 16.0158844 C17.15226328 16.02230629 15.35088661 16.02096542 13.54956055 16.01245117 C10.79464911 16.00394761 8.04181553 16.03268794 5.28710938 16.06445312 C3.53645895 16.06606541 1.78580486 16.06548708 0.03515625 16.0625 C-0.78786484 16.07373398 -1.61088593 16.08496796 -2.45884705 16.09654236 C-6.23341474 16.05060577 -8.17210213 16.00451347 -11.30102539 13.75415039 C-13.47688528 10.53827038 -13.32263662 8.35611259 -12.78125 4.56640625 C-9.41222622 -0.39557986 -5.49529443 -0.03324366 0 0 Z " fill="#000000" transform="translate(141.78125,263.43359375)"/>
</svg>
