<svg xmlns="http://www.w3.org/2000/svg" width="512" height="512"><path d="M364 4c11.594 7.688 15.194 20.663 18.914 33.379q.676 2.26 1.356 4.52 1.444 4.813 2.868 9.634c1.51 5.112 3.037 10.22 4.566 15.326q2.756 9.202 5.497 18.408a6040 6040 0 0 0 9.053 30.112l.627 2.065q1.541 5.079 3.085 10.159 2.77 9.122 5.534 18.247l1.836 6.06a57711 57711 0 0 1 7.965 26.302l5.574 18.413.62 2.048a22670 22670 0 0 0 19.174 62.96c7.303 23.87 14.594 47.744 21.82 71.638q1.248 4.125 2.5 8.248 1.72 5.675 3.433 11.352l1.016 3.342c3.818 12.693 6.841 23.47.937 36.1-6.371 11.604-15.104 15.94-27.395 19.64l-2.572.793a2221 2221 0 0 1-8.22 2.504l-5.658 1.733A3397 3397 0 0 1 393 430l-.06 2.14a2056 2056 0 0 1-.315 9.61c-.03 1.111-.062 2.222-.094 3.367l-.117 3.242-.095 2.984c-.324 2.697-.89 4.366-2.319 6.657-2.696 2.097-4.093 1.995-7.562 1.813-3.472-.821-4.393-1.06-6.438-3.813-.34-2.268-.34-2.268-.293-4.887l.023-2.561.082-3.24q.052-2.76.1-5.518L376 435a11397 11397 0 0 1-59.825 18.442l-6.833 2.087A29051 29051 0 0 1 233.75 478.5l-2.45.741-18.302 5.535A14971 14971 0 0 1 179 495q35.805.141 71.61.207c11.082.02 22.165.049 33.249.095q14.49.06 28.98.074c5.115.006 10.23.018 15.345.047q7.222.039 14.446.03 2.649 0 5.298.024c2.416.02 4.83.015 7.245.004l2.108.035c5.38-.065 8.373-1.568 12.719-4.516 3.376-4.033 4.8-8.04 6.094-13.047.906-1.953.906-1.953 2.777-3.23 3.286-1.116 5.801-.51 9.129.277 2.077 1.575 2.88 2.512 3.504 5.059.214 8.682-2.931 15.763-8.555 22.34-8.814 8.422-18.038 10.199-29.929 10.109l-3.865.019c-3.516.016-7.03.008-10.546-.004-3.802-.01-7.602.005-11.403.016-7.437.018-14.873.014-22.31.002q-9.067-.013-18.136-.006l-2.611.002-5.252.004c-16.402.011-32.804-.002-49.205-.023q-21.093-.026-42.186.003a23783 23783 0 0 1-54.266.014l-2.6-.002q-9.053-.003-18.107.012a4999 4999 0 0 1-22.078-.013c-3.752-.01-7.504-.015-11.256-.001-4.074.014-8.146-.003-12.219-.023l-3.57.027c-10.525-.1-18.668-2.826-26.363-10.125-7.005-8.248-9.171-17.177-9.173-27.792l-.008-3.774.007-4.107-.005-4.393q-.005-6.024.001-12.049.003-6.502-.004-13.004-.005-12.737 0-25.473a42730 42730 0 0 0 0-29.684q-.004-28.098.006-56.196.006-24.083-.001-48.167a123909 123909 0 0 1-.004-61.938v-2.97q.002-10.334-.002-20.667-.005-12.61.003-25.22.005-6.427 0-12.856-.004-5.896.004-11.794.001-2.121-.002-4.241c-.052-32.631-.052-32.631 10.858-44.108C44.597 88.872 51.485 86.53 59 85l-.105-2.457c-.36-14.716 3.585-27.581 13.812-38.441 10.689-9.797 23.932-14.492 38.297-14.317C125.163 30.8 136.266 36.922 146 47c5 5.944 5 5.944 5 9 16.882-4.617 33.642-9.57 50.363-14.737q5.983-1.848 11.971-3.682a9894 9894 0 0 0 34.522-10.64 5140 5140 0 0 1 16.61-5.121q3.45-1.064 6.896-2.142c3.176-.995 6.357-1.971 9.54-2.944l2.807-.893c5.234-1.576 8.952-2.173 14.291-.841 2.648 1.677 2.955 2.851 3.875 5.875.16 3.998-.274 5.065-2.875 8.125-3.35 1.66-6.863 2.698-10.434 3.781-1.066.34-2.133.678-3.232 1.027A1091 1091 0 0 1 275 37l-3.315 1.022c-8.235 2.538-16.49 5.012-24.748 7.478a19984 19984 0 0 0-18.701 5.61 6991 6991 0 0 0-35.022 10.622 23497 23497 0 0 1-13.651 4.17l-2.703.826q-6.696 2.045-13.39 4.1a6326 6326 0 0 1-12.65 3.868q-2.343.715-4.685 1.438-3.212.989-6.429 1.964l-3.65 1.119C133 80 133 80 129 80l.027 3.54q.121 16.55.18 33.101.03 8.508.095 17.016.063 8.22.078 16.437.01 3.127.043 6.255c.03 2.932.033 5.863.031 8.795l.044 2.583c-.065 9.582-3.823 18.375-10.498 25.273-8.693 7.233-17.281 9.65-28.508 9.336-8.232-.792-13.765-3.372-19.82-8.996l-2.67-2.461L66 189c5.69 19.046 11.413 38.082 17.18 57.105l.678 2.237a60102 60102 0 0 0 11.173 36.824c5.597 18.45 5.597 18.45 4.969 24.834-1.5 2.5-1.5 2.5-4 4-2.909.51-4.981.335-8 0-17.082-13.081-24.322-72.308-30.864-94.029l-3.789-12.578L46 183a88894 88894 0 0 0-.22 128.217l-.003 2.722a32816 32816 0 0 1-.086 43.644q-.056 22.39-.067 44.78a9432 9432 0 0 1-.056 27.633q-.03 9.473-.022 18.947c.003 3.644-.001 7.288-.023 10.933a1378 1378 0 0 0-.004 11.855l-.035 3.487c.048 6.483.581 10.544 4.516 15.782 5.496 4.212 9.918 4.565 16.699 4.454l2.87.002c3.112-.003 6.222-.034 9.333-.065q3.248-.012 6.495-.018c5.683-.015 11.366-.054 17.05-.098 5.804-.041 11.61-.06 17.414-.08q17.07-.066 34.139-.195l-2.071-1.203-2.722-1.602c-.89-.52-1.78-1.04-2.696-1.577-12.081-7.783-14.811-24.258-18.687-37.208l-1.463-4.833a6069 6069 0 0 1-3.876-12.862c-1.336-4.445-2.679-8.888-4.02-13.332q-2.426-8.035-4.846-16.071a6008 6008 0 0 0-9.162-30.165q-1.963-6.411-3.921-12.826-1.03-3.365-2.068-6.726-1.416-4.594-2.812-9.193l-.83-2.659c-3.013-9.997-3.013-9.997-.826-15.055 2.56-2.16 4.625-2.532 7.867-3.098 3.464.666 4.87 2.787 7.133 5.41 1.07 2.5 1.89 4.765 2.629 7.355l.688 2.259c.763 2.52 1.504 5.047 2.246 7.574q.82 2.73 1.645 5.457 1.856 6.154 3.689 12.315a4928 4928 0 0 0 7.083 23.485l2.637 8.687.663 2.185q2.552 8.415 5.093 16.833 2.406 7.966 4.83 15.928a2700 2700 0 0 1 3.651 12.117q1.206 4.017 2.427 8.03a966 966 0 0 1 1.664 5.575c2.185 7.157 3.958 12.654 9.868 17.512 5.63 2.981 10.356 3.027 16.369 1.206l3.596-1.067 3.878-1.197q2.063-.62 4.125-1.237c3.667-1.1 7.329-2.216 10.99-3.337 3.628-1.107 7.26-2.198 10.893-3.29 8.457-2.547 16.906-5.12 25.353-7.696l12.86-3.915q9.39-2.857 18.78-5.717a60988 60988 0 0 1 45.53-13.84l17.051-5.181a82739 82739 0 0 1 46.035-13.976l18.953-5.75q6.438-1.954 12.875-3.904c8.35-2.53 16.697-5.066 25.039-7.623 4.25-1.3 8.506-2.578 12.766-3.846l5.965-1.813 2.611-.758c5.883-1.817 10.502-4.164 13.893-9.558 2.032-9.146-.283-17.168-3.047-25.907l-1.179-3.847q-1.264-4.123-2.55-8.238a2739 2739 0 0 1-4.092-13.236 8992 8992 0 0 0-4.983-16.165 4540 4540 0 0 1-8.461-27.682l-.601-1.987-2.403-7.95q-3.391-11.221-6.793-22.438l-.637-2.1c-5.535-18.257-11.082-36.51-16.629-54.763a83908 83908 0 0 1-24.064-79.294c-4.049-13.35-8.088-26.702-12.104-40.061q-2.435-8.099-4.877-16.195-1.99-6.605-3.968-13.214-1.22-4.065-2.448-8.127-.834-2.775-1.66-5.551C362.259 29.408 360.365 23.485 353 18c-5.923-2.962-13.102-.827-19.062 1-5.637 1.725-10.067 2.674-15.938 2-2.194-1.594-2.903-2.473-3.398-5.156l.023-2.344-.023-2.344C315.1 8.456 315.934 7.765 318 6c13.508-6.634 32.52-10.28 46-2M84.094 56.633c-7.31 8.265-9.396 16.097-9.385 26.939l-.02 2.831a1690 1690 0 0 0-.025 9.218l-.02 6.437a4604 4604 0 0 0-.015 13.473c0 5.745-.027 11.489-.061 17.233-.022 4.43-.026 8.859-.025 13.288a1023 1023 0 0 1-.027 6.352 832 832 0 0 0-.002 8.895l-.034 2.628c.066 6.396 1.498 11.803 5.932 16.601 4.766 4.208 9.083 5.985 15.475 5.78 6.573-.96 10.893-4.619 14.984-9.624 2.82-4.205 2.284-8.848 2.29-13.698l.015-2.794q.021-4.58.027-9.16l.017-6.356q.015-6.663.02-13.326c.006-5.7.03-11.4.058-17.1.019-4.375.024-8.75.026-13.125q.004-3.153.024-6.306c.017-2.935.015-5.87.008-8.805l.028-2.645c.097-4.34.097-4.34-1.716-8.124-1.73-1.565-1.73-1.565-4.73-1.12-3.23.622-3.23.622-4.938 3.875a95 95 0 0 0-.287 7.637l-.02 2.35a999 999 0 0 0-.029 5.054 1376 1376 0 0 1-.052 7.993c-.048 5.655-.081 11.31-.112 16.966a5856 5856 0 0 1-.136 19.658c-.02 2.627-.028 5.254-.036 7.882l-.04 4.823.002 2.22c-.045 3.69-.187 5.262-2.29 8.417-3.92.871-7.17 1.379-11 0-1.244-3.859-1.162-7.721-1.177-11.731l-.02-2.347q-.028-3.84-.041-7.68l-.013-2.659q-.03-6.971-.044-13.942c-.011-4.782-.046-9.563-.085-14.344a1704 1704 0 0 1-.038-11.077 675 675 0 0 0-.035-5.284c-.209-21.022-.209-21.022 6.766-28.374C99.993 59.68 105.209 57.87 113 59c3.91 1.386 7.063 3.063 10 6 2.358-.125 2.358-.125 4.938-.75l2.652-.547c2.639-.64 2.639-.64 5.41-2.703-5.957-7.838-13.024-12.871-22.797-14.773-11.426-1.176-20.987 2.363-29.11 10.406M50 106c-3.593 3.712-5.287 7.45-5.303 12.625.122 5.577 1.456 10.472 3.147 15.758l.874 2.85c.914 2.968 1.848 5.93 2.782 8.892q.942 3.039 1.879 6.078Q55.67 159.608 58 167h1v-65c-3.17 0-6.46 2.31-9 4"/><path d="M213 114c2.207 1.848 3.378 3.542 5 6v3c.63-.095 1.258-.19 1.906-.29 6.946-.899 12.451-.987 18.594 2.853 2.236 3.633 2.45 7.292 1.5 11.437-1.445 2.746-1.445 2.746-4 5-3.123.683-6.188.654-9.375.625-6.082 0-10.226.216-15.625 3.375h-2c-1.09 4.916-1.09 4.916.152 9.664 1.643 2.5 1.643 2.5 4.239 3.191l2.859.333 3.223.425L223 160c21.568 2.367 21.568 2.367 29 10 7.031 10.037 8.89 18.798 8 31-1.303 6.83-5.444 12.01-10.695 16.426-1.508 1.502-1.508 1.502-1.422 3.66l.242 2.289c.1 3.622-.028 4.471-2.062 7.688-3.568 2.257-5.75 2.665-9.907 2.43-3.52-.804-5.083-2.643-7.156-5.493-.625-2.172-.625-2.172-1-4l-3.812.25c-7.186-.011-13.61-2.291-19.313-6.625-2.223-3.112-2.875-4.796-2.875-8.625 1.45-4.35 2.149-6.433 6-9 4.143-.592 6.681.231 10.313 2.063 4.861 2.308 8.526 2.295 13.687.937 3.203-1.223 5.262-2.101 7.438-4.75 1.083-4.332.093-8.056-1.688-12.062-2.555-3.195-5.381-3.966-9.362-4.611l-2.775-.253-3.095-.322a689 689 0 0 0-6.352-.594c-8.556-.917-15.662-3.133-22.041-9.095-5.654-8.814-7.363-16.821-6.125-27.313 1.597-5.457 4.65-9.336 9-13h2l-.5-1.562c-.9-4.391-1.073-8.08.688-12.25 3.891-4.697 8.136-4.81 13.812-3.188m195 228c3.003 2.055 3.833 3.476 4.938 6.938.077 3.81-.59 5.078-2.938 8.062-2.434 1.15-4.559 1.942-7.117 2.688l-2.35.733c-2.839.88-5.686 1.729-8.533 2.579q-3.58 1.09-7.157 2.184a5034 5034 0 0 1-23.61 7.11c-7.348 2.2-14.692 4.41-22.038 6.62l-2.53.76a10583 10583 0 0 0-50.39 15.316 20059 20059 0 0 1-13.51 4.13l-8.816 2.692c-.715.22-1.431.438-2.168.663-8.31 2.54-16.617 5.089-24.918 7.657a6434 6434 0 0 1-16.844 5.18 1746 1746 0 0 0-6.815 2.11 1583 1583 0 0 1-9.263 2.851c-.884.28-1.768.56-2.678.85-5.357 1.612-10.656 2.766-16.263 1.877-2.625-2.062-2.625-2.062-4-5 .058-3.383.118-5.838 2.207-8.589 2.352-1.85 4.554-2.502 7.421-3.363l3.486-1.063 3.78-1.122q1.97-.595 3.936-1.193 4.078-1.238 8.16-2.462a2072 2072 0 0 0 14.61-4.469c6.027-1.858 12.057-3.704 18.088-5.551l3.965-1.216a15701 15701 0 0 1 45.972-14.019l2.074-.629q10.324-3.129 20.651-6.248 5.123-1.547 10.244-3.096l2.04-.616a4641 4641 0 0 0 29.289-8.973q6.176-1.91 12.353-3.814 4.883-1.505 9.76-3.03 5.344-1.666 10.694-3.313l3.166-1c5.2-1.59 9.66-2.796 15.104-2.234m-9.437-39.437c2 3.392 1.99 5.564 1.437 9.437-3.41 4.938-8.98 5.91-14.441 7.547l-3.308 1.024q-4.622 1.424-9.252 2.823c-2.746.832-5.488 1.674-8.231 2.516a7851 7851 0 0 1-28.159 8.569q-6.518 1.975-13.035 3.952-14.535 4.41-29.073 8.811l-11.87 3.597-2.253.683-10.92 3.31a29109 29109 0 0 1-28.509 8.629l-1.923.582a4831 4831 0 0 0-27.131 8.309l-9.633 2.967c-2.916.901-5.83 1.812-8.743 2.723l-5.19 1.599-2.32.735c-5.386 1.642-9.753 2.801-14.884.124-2.583-3.038-2.684-4.641-2.691-8.5.823-2.908 2.268-4.049 4.566-6 3.036-1.258 3.036-1.258 6.659-2.34l2.02-.615c2.22-.673 4.446-1.328 6.673-1.983q2.376-.714 4.75-1.431a2516 2516 0 0 1 10.184-3.045c5.392-1.6 10.779-3.217 16.165-4.837q11.016-3.311 22.037-6.603a8957 8957 0 0 0 38.177-11.525q6.945-2.108 13.894-4.206a6273 6273 0 0 0 41.13-12.573q7.19-2.222 14.384-4.435 6.89-2.122 13.77-4.275a1895 1895 0 0 1 8.506-2.625 888 888 0 0 0 5.796-1.816c15.514-4.728 15.514-4.728 21.418-1.128M371 218c3.096 2.568 3.855 4.114 4.5 8.063-.633 3.72-1.6 4.561-4.5 6.937a70 70 0 0 1-7.168 2.621l-2.334.747A864 864 0 0 1 353 239l-3.465 1.062a5141 5141 0 0 1-27.48 8.291c-6.522 1.954-13.041 3.916-19.56 5.877l-5.033 1.513a13474 13474 0 0 0-48.73 14.761l-10.702 3.258a9758 9758 0 0 0-39.485 12.078q-7.856 2.423-15.719 4.833-3.66 1.126-7.319 2.265c-3.33 1.036-6.664 2.06-10 3.082l-2.937.924c-5.028 1.526-9.31 2.569-14.57 2.056-2.686-1.908-3.734-3.325-4.937-6.375-.092-3.855.687-5.45 2.937-8.625 3.438-1.777 7.07-2.751 10.785-3.797l3.358-1.008a961 961 0 0 1 7.166-2.116 848 848 0 0 0 10.866-3.268 4538 4538 0 0 1 21.184-6.434q5.373-1.621 10.745-3.248 8.977-2.715 17.955-5.427 18.11-5.473 36.214-10.96 6.147-1.862 12.296-3.72c13.773-4.162 27.536-8.353 41.275-12.627q6.16-1.912 12.322-3.816 4.864-1.503 9.72-3.032a2167 2167 0 0 1 10.65-3.313l3.134-1c5.996-1.833 11.052-2.767 17.33-2.234m13.813 42.688c2.486 2.628 3.187 3.71 3.187 7.312-1.413 4.049-2.282 5.643-6.176 7.578q-2.057.647-4.137 1.227l-2.365.724a513 513 0 0 1-5.341 1.594c-3.201.942-6.39 1.918-9.579 2.901a3887 3887 0 0 1-21.28 6.461q-5.45 1.644-10.9 3.292-7.953 2.404-15.91 4.806a27095 27095 0 0 0-36.181 10.953l-2.037.617q-7.102 2.153-14.207 4.3l-8.164 2.469-2.043.618a5418 5418 0 0 0-28.517 8.723 9047 9047 0 0 1-16.078 4.944q-6.555 2.011-13.099 4.052-4.042 1.253-8.091 2.486a803 803 0 0 0-5.497 1.716c-6.353 1.926-11.752 3.165-18.398 2.539-3.096-2.568-3.855-4.114-4.5-8.062.626-3.677 1.673-4.568 4.5-6.938 2.582-1.117 2.582-1.117 5.55-1.997l3.397-1.03 3.698-1.078q1.947-.584 3.894-1.172 4.124-1.242 8.252-2.467a1410 1410 0 0 0 12.273-3.723l2.028-.624 4.096-1.26q5.303-1.628 10.609-3.246l2.182-.667 11.382-3.476c17.088-5.22 34.18-10.43 51.28-15.612l2.139-.648q10.399-3.15 20.801-6.294l10.024-3.03 1.965-.594c9.422-2.852 18.83-5.745 28.23-8.664l6.915-2.14q6.352-1.97 12.697-3.963l5.604-1.737 2.518-.801c10.204-3.134 10.204-3.134 15.279-.09"/></svg>