<svg xmlns="http://www.w3.org/2000/svg" width="360.128" height="360.155" fill="none" viewBox="0 0 360.128 360.155"><g clip-path="url(#a)" transform="matrix(6 0 0 6 0 -.1)"><path fill="#091f2c" d="M49.833 28.316H47.8a.235.235 0 0 0-.233.233v5.231c0 .106-.085.17-.17.17h-6.29a.167.167 0 0 1-.169-.17v-5.23a.235.235 0 0 0-.233-.234h-2.033a.235.235 0 0 0-.233.233v13.342c0 .127.106.233.233.233h2.055a.235.235 0 0 0 .233-.233v-5.23c0-.107.084-.17.169-.17h6.29c.105 0 .169.084.169.17v5.23c0 .127.106.233.233.233h2.054a.235.235 0 0 0 .233-.233V28.549c-.042-.127-.148-.233-.275-.233m-14.359-3.409v-1.99a.235.235 0 0 0-.233-.234h-10.61a.235.235 0 0 0-.233.233v13.342c0 .127.106.233.233.233h10.61a.235.235 0 0 0 .233-.233v-1.97a.235.235 0 0 0-.233-.233h-8.153a.167.167 0 0 1-.17-.169v-2.859c0-.106.085-.17.17-.17h6.29a.235.235 0 0 0 .232-.232v-2.033a.235.235 0 0 0-.233-.233h-6.29a.167.167 0 0 1-.169-.17v-2.858c0-.106.085-.17.17-.17h8.153c.127-.021.233-.127.233-.254M15.59 17.03h-2.795a.38.38 0 0 0-.34.21l-5.78 13.004a.423.423 0 0 0 .38.592H21.35a.423.423 0 0 0 .381-.593L15.93 17.241a.38.38 0 0 0-.34-.212m-5.294 11.18 3.748-8.407a.163.163 0 0 1 .296 0l3.749 8.407c.063.128-.043.255-.17.255h-7.454c-.127 0-.233-.127-.17-.254"/><path fill="#00a3e0" d="M42.823 5.191c13.701 7.073 19.08 23.93 12.007 37.632C47.778 56.545 30.921 61.924 17.2 54.85l-.953 1.843c14.718 7.602 32.824 1.82 40.427-12.897 7.602-14.718 1.82-32.824-12.897-40.427z"/><path fill="#fa4616" d="M17.199 54.851C3.497 47.778-1.903 30.921 5.17 17.2S29.1-1.883 42.823 5.19l.953-1.821C29.058-4.233 10.95 1.528 3.349 16.246-4.254 30.964 1.528 49.09 16.246 56.694z"/></g><defs><clipPath id="a"><path fill="#fff" d="M0 0h60v60H0z"/></clipPath></defs></svg>