<svg xmlns="http://www.w3.org/2000/svg" width="400" height="270"><path fill="#17cd8d" d="m93.688 102.5 2.974-.164c7.163-.135 7.163-.135 10.538 2.159 3.164 3.122 5.849 6.488 7.8 10.505v2c-6.565 1.991-12.42 2.183-19.25 2a588 588 0 0 0-5.828-.125l-2.575-.07c-2.615.217-4.175.729-6.347 2.195-.778 2.936-.778 2.936-1 6.313-.471 5.167-1.243 8.002-5 11.687-3.861 1.936-6.964 2.227-11.254 2.16l-3.588-.033-3.72-.065q-3.66-.051-7.317-.09l-3.268-.054c-2.484.071-4.49.354-6.853 1.082-.162-2.42-.281-4.828-.375-7.25l-.152-2.066c-.107-3.649.253-5.37 2.668-8.137 5.341-2.9 12.097-2.065 17.984-2.047a518 518 0 0 0 7.57-.031l3.376.013c3.575-.588 4.734-1.657 6.929-4.482.579-2.176.579-2.176.563-4.437.27-3.918.96-6.393 3.437-9.563 3.846-1.923 8.456-1.402 12.688-1.5"/><path fill="#17ce8c" d="M120 129c.784 10.92.784 10.92-2.312 15.188-4.036 2.721-6.983 2.939-11.747 2.988l-3.607.072q-3.765.064-7.531.094l-3.612.084-3.306.044c-3.522.647-4.712 1.736-6.885 4.53-.581 2.407-.581 2.407-.562 4.938-.267 4.119-.691 6.807-3.438 10.062-3.676 2.51-7.579 2.367-11.875 2.375l-2.105.074c-6.134.035-9.515-2.056-13.848-6.195-2.749-3.27-4.91-6.09-6.172-10.254 3.404-2.069 5.99-2.224 9.938-2.16l3.46.033 3.602.065q3.53.051 7.063.09l3.16.054c2.452-.072 4.443-.368 6.777-1.082l.297-2.668.453-3.52.422-3.48C79.1 136.594 80.31 134.725 83 132c3.136-1.045 5.231-1.087 8.516-1.027l3.293.037q3.417.053 6.836.117c6.352.064 12.339-2.127 18.355-2.127"/><path fill="#02329c" d="M238 121h6c1.882 4.95 2.585 9.651 3.125 14.875l.262 2.375q.313 2.874.613 5.75l2-1c.512-1.882.512-1.882.746-4.148l.35-2.547q.34-2.668.672-5.336l.353-2.555.295-2.345c.707-2.505 1.513-3.511 3.584-5.069 3.5-.437 3.5-.437 7 0 3.852 3.46 3.993 8.392 4.688 13.25l.392 2.547c.317 2.066.62 4.134.92 6.203 2.433-3.929 2.856-8.206 3.563-12.687 1.311-8.187 1.311-8.187 2.437-9.313a100 100 0 0 1 5 0c1.431 4.678.52 8.694-.25 13.438l-.371 2.564c-.725 4.581-1.476 8.234-4.379 11.998-2.889 1.444-4.796 1.377-8 1-2.73-1.675-3.566-2.262-5-5-.769-3.376-1.251-6.697-1.64-10.137-.191-2.803-.191-2.803-1.36-4.863l-.332 2.887-.48 3.8-.458 3.762c-.723 3.515-1.616 5.68-3.73 8.551-2.889 1.444-4.796 1.377-8 1-4.448-3.38-5.684-6.247-6.506-11.545l-.306-2.393-.366-2.38c-.623-4.259-.954-8.368-.822-12.682"/><path fill="#01319c" d="M154.313 121.125c3.315 2.313 4.347 4.078 5.687 7.875.408 4.157.353 5.47-2 9a74 74 0 0 1-8.125.688l-2.285.103A497 497 0 0 1 142 139v3h16l1 5c-4.064 3.251-7.554 3.453-12.562 3.29-4.185-.497-7.095-1.957-10.067-4.907-1.926-3.348-1.885-6.5-1.871-10.258l-.086-2.105c-.015-3.904.535-6.453 2.93-9.465 4.896-4.71 10.829-4.515 16.969-2.43m-11.75 6.688c-1.757 2.01-1.757 2.01-1.563 4.187h12l-1-5c-5.016-1.32-5.016-1.32-9.437.813"/><path fill="#02329b" d="M210.813 121.25c3.067 2.454 5.024 4.319 5.48 8.328l-.106 2.672-.082 2.703L216 137c-3.188 1.594-6.629 1.102-10.125 1.063l-2.285-.014q-2.795-.02-5.59-.049l2 4h15v6c-5.127 2.646-10.468 2.808-16.031 1.535-3.09-1.106-4.872-2.413-6.906-4.972-1.904-6.383-1.946-12.767.062-19.125 4.639-6.03 11.855-7.225 18.688-4.188M198 129v3h12c-.574-4.202-.574-4.202-4-6-4.212 0-5.094.197-8 3"/><path fill="#02319c" d="M356.375 121.313C359 123 359 123 361 126c.23 2.664.23 2.664.188 5.625l-.02 2.977C361 137 361 137 360 138a226 226 0 0 1-8.062.563l-2.3.13q-2.818.159-5.638.307v3l3.465-.035 4.473-.028 2.287-.025c1.925-.009 3.85.036 5.775.088 1 1 1 1 1.063 3.563L361 148c-4.81 2.565-9.691 2.553-15 2-4.26-1.55-6.74-3.073-9-7a58 58 0 0 1-.5-7.875l-.086-2.105c-.015-3.904.535-6.453 2.93-9.465 4.921-4.734 10.942-4.61 17.031-2.243m-11.812 6.5c-1.757 2.01-1.757 2.01-1.563 4.187h12l-1-5c-5.016-1.32-5.016-1.32-9.437.813"/><path fill="#03319c" d="M297 120c4.113 1.542 5.558 2.337 8 6 .45 3.13.37 6.278.375 9.438l.074 2.603c.03 6.298.03 6.298-2.285 9.494-4.444 3.008-8.982 2.97-14.164 2.465-4.067-1.553-5.575-2.363-8-6-.508-3.897-.33-5.506 1.875-8.812 3.184-3.278 5.294-3.388 9.75-3.75l3.04-.254L298 131v-4h-13l-1-5c4.261-2.84 7.999-2.513 13-2m-9 19v4c2.74 1.37 4.97 1.126 8 1l2-1v-6c-5.322-.296-5.322-.296-10 2"/><path fill="#02309a" d="M182.313 121.125c3.397 2.37 4.195 4.004 5.687 7.875.369 3.282.33 6.514.25 9.813l-.016 2.638c-.08 6.394-.08 6.394-1.234 7.549-2 .04-4 .043-6 0l-.076-1.82a2953 2953 0 0 0-.362-8.118l-.119-2.865-.127-2.724-.11-2.524c0-1.952 0-1.952-1.206-2.949-2.67-.141-5.324-.042-8 0-1.147 2.293-1.197 3.8-1.316 6.352l-.127 2.578-.12 2.695-.13 2.719q-.16 3.327-.307 6.656h-6c-1.604-3.208-1.226-6.667-1.25-10.187l-.062-2.252c-.037-5.268.805-8.903 3.312-13.561 5.523-3.982 11.066-3.997 17.313-1.875"/><path fill="#033098" d="M307 121h7l6 22h2l.443-1.804q.994-4.036 1.995-8.071l.697-2.84.674-2.715.618-2.507C327 123 327 123 328 121h6c1.092 3.277.914 4.242.11 7.492l-.653 2.637-.707 2.746-.66 2.723c-2.205 8.729-2.205 8.729-5.09 12.402-3.593 1.198-6.227 1.33-10 1-4.559-3.259-5.383-7.648-6.687-12.812l-.643-2.37A101 101 0 0 1 307 121"/><path fill="#19cc8c" d="M79 95a222 222 0 0 1-.625 6.25l-.352 3.516c-1.039 3.283-1.903 4.844-4.928 6.563-4.818 1.543-9.972 1.068-14.97.921l-3.531-.055q-4.299-.07-8.594-.195c7.014-11.96 19.08-18.386 33-17"/><path fill="#19cc8d" d="m97.813 159.688 3.544.068q4.323.088 8.643.244c-3.4 7.11-9.82 11.113-17 14-3.141.99-5.965 1.106-9.25 1.063l-2.703-.028L79 175c.033-1.563.103-3.126.188-4.687l.105-2.637c2.504-9.477 10.444-8.283 18.52-7.988"/><path fill="#02319c" d="m234 120 2 2c-.375 2.625-.375 2.625-1 5l-8 1-1 21h-6c-2.348-2.348-1.233-8.1-1.25-11.25l-.062-2.895c-.05-8.816-.05-8.816 3.312-12.855 3.6-2.8 7.647-2.28 12-2"/></svg>