<svg xmlns="http://www.w3.org/2000/svg" width="225" height="225"><path fill="#030404" d="M92 89c6 0 6 0 8.45 2.266l2.237 2.984 2.262 2.953L107 100l3 4 1-15h7v30c-6 0-6 0-8.45-2.266l-2.237-2.984-2.262-2.953L103 108l-3-4-1 15h-7z"/><path fill="#020304" d="m178.133 88.886 2.777.016 2.998.01 3.155.025 3.166.014q3.885.018 7.771.049v7h-15v5h13v6h-13v6l3.246-.035 4.192-.028 2.142-.025c1.807-.009 3.614.036 5.42.088 1 1 1 1 1 6h-24q-.036-6.167-.055-12.335-.008-2.1-.02-4.2a1698 1698 0 0 1-.023-6.024l-.016-3.665c.153-3.725.153-3.725 3.247-3.89"/><path fill="#030303" d="m42.875 88.875 2.086.027c1.68.024 3.36.06 5.039.098.043 2 .04 4 0 6-1 1-1 1-3.871 1.133l-3.566-.008-3.56.008C36 96 36 96 34 95v6h14v6H34v6h16v6H27a2257 2257 0 0 1-.125-12.312c-.017-1.168-.034-2.335-.05-3.538l-.02-3.388-.032-3.127C27 94 27 94 29 91c4.606-2.064 8.91-2.25 13.875-2.125"/><path fill="#030405" d="M58 89h7l1 23h8c1.671-2.944 2.277-5.174 2.414-8.547l.117-2.558.094-2.645.117-2.691Q76.883 92.28 77 89h7c.088 3.375.14 6.75.188 10.125l.076 2.883c.056 5.439-.159 9.308-3.264 13.992-3.247 2.943-5.914 3.918-10.312 4.25-4.751-.322-8.04-1.499-11.342-5.007-1.694-2.822-1.691-4.607-1.639-7.884l.03-3.242.075-3.367.042-3.414Q57.907 93.167 58 89"/><path fill="#030404" d="M165.055 89.895C166.687 91 166.687 91 169 93l-4 6-1.793-.762c-5.05-2.1-5.05-2.1-10.207-1.05-2.76 2.501-2.963 3.412-3.312 7.187.018 3.607.018 3.607 1.937 6.063 3.089 2.031 4.726 2 8.375 1.562 3.276-.924 3.276-.924 6-2l3 3c-1.026 2.976-1.966 3.978-4.625 5.75-5.249 1.944-9.283 1.988-14.562.125-4.078-2.718-7.044-5.284-8.45-10.02-.852-5.378-.131-9.057 2.637-13.855 5.324-6.123 13.232-8.511 21.055-5.105"/><path fill="#020303" d="M127 89h7v30h-7z"/><path fill="#010101" d="M57 125h9v2h-6v2h5v3h-5v2h6l-1 3h-8zm-16 0c4 2 4 2 6 4l1-4h3v11h-3c-2.187-2.5-2.187-2.5-4-5l-1 6h-2zm125 0c1.938 1.063 1.938 1.063 3 3-.125 3.563-.125 3.563-1 7-3 2-3 2-6.062 1.813C159 136 159 136 157 133c-.354-2.83-.392-4.368 1.125-6.812 2.747-1.74 4.693-1.586 7.875-1.188m-6 3v5q2.486.572 5 1c1.296-1.066 1.296-1.066 1.063-3.562L166 128c-3.05-1.011-3.05-1.011-6 0m-27.875-3.125L135 125l1 3h-5l-1 5h4l-2-1v-2h5c.188 2.375.188 2.375 0 5-3 2-3 2-6.062 1.813C128 136 128 136 126 133c.645-7.906.645-7.906 6.125-8.125M96 125v3h-5l-1 4 5 2v-2h-3v-2h6l-1 6c-5.283 1.32-5.283 1.32-8.375-.062C87 134 87 134 86.563 131c.437-3 .437-3 1.562-4.875 2.655-1.593 4.843-1.327 7.875-1.125m-69 0h9v2h-7v2h6v3h-6v2h7l-1 3h-8zm116 0c3.375-.125 3.375-.125 7 0l2 2a225 225 0 0 1-1 6c.358 2.277.358 2.277 1 4l-4-2v-2h-3v4h-2zm2 2v3h4v-3zm-73-2c6.75-.125 6.75-.125 9 1v11l-3-1-1-2-3-1v4h-2zm2 2v3h5l-1-3zm115-2c6.152-.098 6.152-.098 8 0 1 1 1 1 1.063 4.063L198 132l-6 1-1 4-2-1zm3 2v4l4-1-1-3zm-18-2h3v9l4-1 1-8h2c.08 1.624.14 3.25.188 4.875l.105 2.742L184 135c-3 2-3 2-5.562 1.813C176 136 176 136 174 133c-.258-2.695-.089-5.285 0-8m-73 0c2.867.573 3.861.861 6 3l2-3 3 1-1.375 2.125c-1.642 2.905-2.662 5.689-3.625 8.875l-2-1a257 257 0 0 1-2-7c-.625-1.354-1.272-2.7-2-4"/></svg>