<svg xmlns="http://www.w3.org/2000/svg" width="500" height="500"><path fill="#2f4b7f" d="M120 210v2l1.77.785c2.39 1.302 4.005 2.723 5.918 4.653l1.824 1.808C131 221 131 221 132 224c3.791-1.45 7.387-3.152 11-5-.176 2.38-.697 3.702-2.402 5.379-1.504 1.242-3.05 2.435-4.598 3.621l.621 1.625c4.83 14.048 4.381 28.383-1.441 42.004-4.207 8.456-12.252 17.852-21.18 21.371h-3c-1.295-3.885-1.123-7.559-1.098-11.605l.005-2.544c.005-2.68.018-5.359.03-8.038q.009-2.727.014-5.452.017-6.68.049-13.361h-2v2h-2a3636 3636 0 0 1 .11 17.407q.015 2.962.04 5.925c.025 2.835.036 5.67.045 8.504l.032 2.686c0 2.16-.104 4.32-.227 6.478-3.57 3.57-9.034 3.074-13.875 3.188-13.954-.17-25.876-5.786-35.687-15.563A324 324 0 0 1 53 279c-.76.577-1.519 1.155-2.3 1.75L47.686 283l-2.988 2.25C42 287 42 287 39 287c1.346-4.406 3.194-6.43 7-9h2v-2h2c-1.272-4.053-1.272-4.053-3-7.922-5.365-11.15-3.621-24.74 0-36.078a88 88 0 0 1 3-7h2l.688-2.125C55.607 216.48 60.17 212.67 66 209h3v-2c1.938-.562 1.938-.562 4-1 1 1 1 1 1.12 2.829l-.006 2.415v2.73l-.016 2.967-.005 3.023c-.005 3.2-.018 6.399-.03 9.599q-.008 3.244-.014 6.49Q74.032 244.027 74 252c3.109-1.874 3.109-1.874 4.519-5.07l.027-2.401.06-2.73.003-2.936.05-3.014c.05-3.179.07-6.357.091-9.536q.042-3.233.09-6.463.11-7.925.16-15.85c14.7-4.345 27.806-1.385 41 6m-14 8v25l5-3-1-22zm-32 46c-.55 2.31-.55 2.31-.39 4.887l.038 2.842.102 2.959.055 2.994q.071 3.66.195 7.318h5v-24c-2.17 0-3.499 1.619-5 3"/><path fill="#334e81" d="M374.945 221.379 377 223v2h2c6.523 7.359 9.676 16.952 9.29 26.738-.847 6.622-2.569 12.378-7.29 17.262h6v17h-34v-18l8-4c3.68-3.68 5.974-6.87 7-12-.085-4.388-.859-8.146-3-12v-3a171 171 0 0 0-4-2l-3.312-1.625c-4.589-1.71-8.15-2.417-12.801-.508a104 104 0 0 0-4.09 2.16C339 236 339 236 336 237c-.685 1.813-.685 1.813-1 4l-.605 2.332c-1.306 5.563-1.54 9.2.605 14.668l.875 2.813c1.395 2.713 2.315 3.094 5.125 4.187 5.885 2.77 5.885 2.77 7 5 .098 2.532.14 5.03.125 7.563l.012 2.115c-.01 5.195-.01 5.195-1.137 6.322-2.52.088-5.014.115-7.535.098l-2.283-.005c-2.415-.005-4.83-.018-7.245-.03l-4.9-.014c-4.012-.01-8.025-.03-12.037-.049v-17h6v-2h-2c-4.124-9.324-5.922-18.73-2.812-28.812 4.615-11.722 11.772-17.444 22.847-22.989 13.564-5.486 26.229-1.343 37.91 6.18"/><path fill="#355083" d="M409.349 213.123c4.32.134 6.154.463 9.569 3.307 2.243 3.097 4.17 6.26 6.082 9.57a91 91 0 0 0 3.563 4.063C431 233 431 233 431 236l3 1a97 97 0 0 1 4.688 5.938c.415.55.83 1.102 1.26 1.67C443 248.732 443 248.732 443 251h2l1-37h18c1 1 1 1 1.12 3.816l-.006 3.815v2.099c0 2.3-.009 4.6-.016 6.899l-.005 4.771q-.006 6.291-.024 12.582-.014 6.414-.02 12.829-.016 12.594-.049 25.189c-2.74.101-5.477.176-8.219.234l-2.343.096c-3.822.061-5.847.051-9.13-2.066-2.055-2.289-3.654-4.67-5.308-7.264a203 203 0 0 0-2.469-3.2C431 265.465 431 265.465 431 263h-2v-3h-2a114 114 0 0 1-4.562-5.937c-2.546-3.68-2.546-3.68-5.438-7.063l-1 39h-17c-1.87-1.87-1.128-5.031-1.13-7.523l-.005-2.065q-.004-3.393.002-6.787 0-2.348-.003-4.697-.001-4.927.006-9.856.006-6.33-.004-12.661-.005-4.851 0-9.702 0-2.336-.002-4.67-.003-3.258.007-6.516l.002-3.752c.271-5.923 6.748-4.518 11.476-4.648"/><path fill="#334e81" d="m164.766 213.886 2.27.016 2.206.008 2.82.027L181 214v26h30c-.04-8.183-.04-8.183-.09-16.365l-.008-3.069-.016-3.158C211 215 211 215 212 214h18v72h-19v-28h-30v28h-19q-.034-13.86-.052-27.72-.007-6.435-.023-12.87-.016-6.205-.02-12.41a2129 2129 0 0 0-.01-4.745 1905 1905 0 0 1-.009-6.624l-.006-3.815c.16-3.754.16-3.754 2.886-3.93"/><path fill="#355183" d="m240 214 22.313-.25 6.973-.11q2.79-.018 5.577-.03l2.84-.063c7.448-.003 15.467 1.13 21.28 6.174 6.282 6.852 7.633 13.436 7.427 22.572-.74 6.683-3.372 11.372-8.598 15.582-8.672 5.219-17.542 5.528-27.437 5.313l-3.621-.042c-2.918-.035-5.836-.088-8.754-.146v23h-18zm18 18v14c3.73.081 7.457.14 11.188.188l3.197.076 3.095.029 2.841.048c3.494-.445 6.174-1.836 8.679-4.341.283-3.182.36-5.316-1.142-8.175-1.759-2.077-1.759-2.077-4.585-2.28l-3.253.064-3.526.04-3.682.101-3.716.055A951 951 0 0 0 258 232"/><path fill="#365183" d="M118.234 209.012 120 210v2c.584.26 1.168.52 1.77.79 2.373 1.288 4.005 2.685 5.918 4.585l1.824 1.773c1.59 1.978 2.079 3.373 2.488 5.852a642 642 0 0 1-4.812 4l-2.708 2.25C122 233 122 233 119 233l-.687 1.875c-1.692 2.74-3.305 3.175-6.313 4.125-2.212-7.051-2.202-13.647-2-21h-4l1 26c-6 2-6 2-10 2v-2l-3-1-1-2c-3.273-.366-4.575-.338-7.203 1.75L83.75 245a325 325 0 0 1-3.75 4h-1v-45c14.06-4.017 26.42-1.818 39.234 5.012"/><path fill="#324d7f" d="M73 206c.127 6.905.214 13.81.275 20.715q.037 3.525.102 7.048c.06 3.376.09 6.751.111 10.128l.078 3.185c.003 7.317.003 7.317-2.956 10.474L68 259l-2.25 2.313c-9.804 9.58-9.804 9.58-15.187 9.875-3.055-1.416-3.314-2.16-4.563-5.188-4.106-13.99-2.22-27.967 4-41h2l.688-2.125C55.607 216.48 60.17 212.67 66 209h3v-2c3-1 3-1 4-1"/><path fill="#365183" d="M136 230c5.461 11.397 4.969 24.738 1.184 36.547-3.863 10.667-11.481 19.877-21.301 25.71C114 293 114 293 111 293c-1.168-3.505-1.13-6.278-1.133-9.977l-.003-2.074q0-2.177.006-4.353.005-3.288-.007-6.576c-.016-19.446-.016-19.446 2.774-23.254l2.05-1.516 2.172-1.684L119 242c4.052-3.026 4.052-3.026 7-7l4-2 1.563-1.625C133 230 133 230 136 230"/><path fill="#b21c27" d="m142 219 1 3-1.426 1.207-1.887 1.606-1.863 1.582c-1.838 1.568-1.838 1.568-3.43 3.304C133 231 133 231 131 231l-2 4h-3l-.75 1.766c-1.435 2.565-3.027 4.071-5.25 5.984l-2.125 1.86C116 246 116 246 114 246l-1 3h-2v2h-5v2h-3l-.812 1.75c-1.205 2.283-2.596 4.224-4.188 6.25-3.242-.35-4.615-.562-6.812-3.062L90 256c-7.992.631-15.023 4.877-21 10-4.607 3-4.607 3-7 3v-4a113 113 0 0 1 5-3 105 105 0 0 0 4-5l3-3 1.688-2.25c2.594-3.086 5.443-5.592 8.507-8.2 1.882-1.577 1.882-1.577 3.805-3.55 2.375-.375 2.375-.375 5 0 2.313 1.875 2.313 1.875 4 4v2l2.75-1c3.25-1 3.25-1 7.25-1l2-4h2l1-3v2h2l1-2c2.728-3.148 5.645-5.026 9.293-7.008 1.876-1.027 1.876-1.027 3.957-2.867 4.249-3.283 9.006-5.632 13.75-8.125"/><path fill="#3c5380" d="M73 207h1c.27 6.601.5 13.202.702 19.806q.11 3.369.248 6.736c.13 3.23.228 6.458.32 9.688l.144 3.038c.152 7.01.152 7.01-2.767 10.733L70 259l-2.625 2.75C65 264 65 264 62 265v4q2.474-1.43 4.938-2.875l2.777-1.617c2.392-1.305 2.392-1.305 3.285-3.508 2.285-1.07 2.285-1.07 5.063-2.125l2.785-1.07L83 257v2l-2 1-.06 2.2a2349 2349 0 0 1-.315 9.925c-.03 1.142-.062 2.284-.094 3.46l-.117 3.36-.095 3.079c-.345 3.218-1.195 5.95-2.319 8.976 2.108 2.507 3.28 3.873 6.565 4.454l2.857-.063 3.105-.04 3.223-.101 3.27-.055q3.99-.071 7.98-.195l-1 2c-13.28 2.825-27.018.568-38.5-6.687-4.703-3.248-8.615-7.142-12.5-11.313-.76.577-1.519 1.155-2.3 1.75L47.686 283l-2.988 2.25C42 287 42 287 39 287c1.346-4.406 3.194-6.43 7-9h2v-2h2l-1-6 2.188.23c3.648-.298 5.038-1.572 7.812-3.918l2.629-2.207c2.57-2.281 4.979-4.64 7.371-7.105l3-2c.475-2.133.475-2.133.432-4.633l.06-2.912.02-3.15.054-3.22c.054-3.403.088-6.807.121-10.21q.05-3.455.104-6.91.126-8.483.209-16.965m1 57c-.55 2.31-.55 2.31-.39 4.887l.038 2.842.102 2.959.055 2.994q.071 3.66.195 7.318h5v-24c-2.17 0-3.499 1.619-5 3"/><path fill="#9f2532" d="M73 207h1c.27 6.601.5 13.202.702 19.806q.11 3.369.248 6.736c.13 3.23.228 6.458.32 9.688l.144 3.038c.152 7.01.152 7.01-2.767 10.733L70 259l-2.625 2.75C65 264 65 264 62 265v4q2.474-1.43 4.938-2.875l2.777-1.617c2.392-1.305 2.392-1.305 3.285-3.508 2.285-1.07 2.285-1.07 5.063-2.125l2.785-1.07L83 257v2l-2 1-1 25h-1l-1-23c-3.187 1.614-3.187 1.614-3.432 4.155l-.08 2.634-.107 2.852-.069 2.984-.103 3.008A713 713 0 0 0 74 285h-1v-19c-3.987 1.72-3.987 1.72-6.375 4.438-2.783 2.716-5.137 3.885-8.625 5.562-4.425 2.775-8.686 5.758-12.875 8.875C42 287 42 287 39 287c1.346-4.406 3.194-6.43 7-9h2v-2h2l-1-6 2.188.23c3.648-.298 5.038-1.572 7.812-3.918l2.629-2.207c2.57-2.281 4.979-4.64 7.371-7.105l3-2c.475-2.133.475-2.133.432-4.633l.06-2.912.02-3.15.054-3.22c.054-3.403.088-6.807.121-10.21q.05-3.455.104-6.91.126-8.483.209-16.965"/><path fill="#8190ac" d="M162 215h1l.031 1.732q.165 9.08.341 18.16.065 3.37.125 6.74c.25 13.808.66 27.582 1.503 41.368h14l-.324-5.398q-.183-3.489-.363-6.977l-.221-3.562-.166-3.399-.175-3.142L178 258c3.725-2.484 5.63-2.232 10.074-2.195l2.072.008c2.181.011 4.361.037 6.542.062q2.22.016 4.439.027c3.625.02 7.248.06 10.873.098v30h-1v-28h-30v28h-19z"/><path fill="#8b2e3f" d="m142 219 1 3-1.426 1.207-1.887 1.606-1.863 1.582c-1.838 1.568-1.838 1.568-3.43 3.304C133 231 133 231 131 231l-2 4h-3l-.75 1.766c-1.435 2.565-3.027 4.071-5.25 5.984l-2.125 1.86C116 246 116 246 114 246l-1 3c-2.062.688-2.062.688-4 1l1-5-1.793.656c-7.848 2.766-7.848 2.766-12.207 2.344l-2-5 3 1v2l2.75-1c3.25-1 3.25-1 7.25-1l2-4h2l1-3v2h2l1-2c2.728-3.148 5.645-5.026 9.293-7.008 1.876-1.027 1.876-1.027 3.957-2.867 4.249-3.283 9.006-5.632 13.75-8.125"/><path fill="#394a70" d="M447 215h18v71h-17v-2h15v-68h-15v17h-1z"/><path fill="#596d8a" d="M260.706 259.773c1.12.01 2.24.02 3.396.032l3.671.02 3.852.05 3.875.027q4.75.036 9.5.098l-1 3h-26v23h-18v-24h1v23h16l-.5-4.75c-.54-6.036-1.073-12.203-.5-18.25 2-2 2-2 4.706-2.227"/><path fill="#746985" d="m106 251 4 1h-2v2h-2v41h-1l-1-37-6 6c-2.625.688-2.625.688-5 0-2.312-2.312-2.312-2.312-4-5v-3l-3-1c2.313.25 2.313.25 5 1a125 125 0 0 1 3 4c2.094.796 2.094.796 4 1l.813-1.75c1.226-2.324 2.435-4.288 4.187-6.25h3z"/><path fill="#846d83" d="M73 207h1c.27 6.601.5 13.202.702 19.806q.11 3.369.248 6.736c.13 3.23.228 6.458.32 9.688l.144 3.038c.152 7.01.152 7.01-2.78 10.75L70 259l-2.426 2.48c-2.815 2.756-5.738 5.31-8.761 7.832l-1.616 1.377C53.24 274 53.24 274 51 274v3l-3-1h2l-1-6 2.188.23c3.648-.298 5.038-1.572 7.812-3.918l2.629-2.207c2.57-2.281 4.979-4.64 7.371-7.105l3-2c.475-2.133.475-2.133.432-4.633l.06-2.912.02-3.15.054-3.22c.054-3.403.088-6.807.121-10.21q.05-3.455.104-6.91.126-8.483.209-16.965"/><path fill="#657a97" d="M211 215h1c.196 4.312.38 8.625.563 12.938l.17 3.732.146 3.545.143 3.285C213 241 213 241 212 242c-2.219.088-4.44.107-6.66.098l-2.014-.005c-2.13-.005-4.259-.018-6.388-.03q-2.161-.008-4.323-.014-5.307-.017-10.615-.049v-2h29z"/><path fill="#344b75" d="M80 208h1v33h5l.313-1.937L87 237l3-1v3l3-3 1 5-2.562-.437c-4.56.58-6.033 2.583-9.02 5.906L81 248h-1z"/><path fill="#8e697c" d="m82 257 1 2-2 1-1 25h-1l-1-23c-3.187 1.614-3.187 1.614-3.432 4.155l-.08 2.634-.107 2.852-.069 2.984-.103 3.008A713 713 0 0 0 74 285h-1v-19l-9 3c1.43-2.858 3.642-3.55 6.406-5 1.77-.918 1.77-.918 2.594-3 2.066-1.07 2.066-1.07 4.563-2.125l2.503-1.07z"/><path fill="#5f6b95" d="M104 217h9l-1 4a175 175 0 0 0-.562 5.25l-.254 2.703L111 231h-1v-13h-4l1 26h-3z"/><path fill="#4b5d8a" d="M416 218h3c1.648 1.758 1.648 1.758 3.375 4.125 2.106 2.844 4.215 5.602 6.563 8.25C431 233 431 233 431 236l3 1-2 2v-2h-3l-1-3h-3l-.75-2.437c-.972-2.734-.972-2.734-3.375-3.375L419 228l-.937-3.312A170 170 0 0 0 416 218"/><path fill="#9d2433" d="m111 237 1 2h2l1-2v3l-2 1a78 78 0 0 0-2 5h3l-1 3c-2.062.688-2.062.688-4 1l1-5-1.793.656c-7.848 2.766-7.848 2.766-12.207 2.344l-2-5 3 1v2l2.75-1c3.25-1 3.25-1 7.25-1l2-4h2z"/><path fill="#884554" d="m142 219 1 3-1.426 1.207-1.887 1.606-1.863 1.582c-1.838 1.568-1.838 1.568-3.43 3.304C133 231 133 231 131 231l-2 4c0-3 0-3 1-6l-4 1c4.441-5.207 9.959-7.921 16-11"/><path fill="#223a69" d="m122 239 2 1a923 923 0 0 1-4.375 5l-2.46 2.813c-.715.721-1.43 1.443-2.165 2.187h-2v40h-1c-.342-5.71-.63-11.418-.867-17.133a379 379 0 0 0-.31-5.822c-.969-16.158-.969-16.158 1.857-20.81 2.032-1.768 3.952-2.974 6.32-4.235 1.713-1.56 1.713-1.56 3-3"/><path fill="#5d6c8b" d="M380 269h7v17h-34v-6l4 1-1 3 30 1v-15h-6z"/><path fill="#3a5481" d="m62 277 2 7h-2l-1 3-7-7 1-3c2.667-1.333 4.167-.671 7 0"/><path fill="#5b6991" d="M138 238h1c1.977 21.534 1.977 21.534-3 29q.212-5.282.438-10.562l.119-3.002c.225-5.212.584-10.29 1.443-15.436"/><path fill="#4b5f83" d="M343 230c2.125.938 2.125.938 4 2q-1.904.972-3.812 1.938l-2.145 1.09C339 236 339 236 336 237c-.672 1.936-.672 1.936-1 4l-1 2-3-1c-.687-2.062-.687-2.062-1-4l2.438-1.375c2.65-1.372 2.65-1.372 3.562-3.625h5v-2z"/><path fill="#b81921" d="m96 251 5 1-2 7-4 1v-3l-3-1v-3h3z"/><path fill="#243b65" d="m416 241 2 4h-2v40l-2-1q.177-8.944.372-17.89.065-3.045.125-6.09.088-4.367.187-8.735l.05-2.768c.152-6.403.152-6.403 1.266-7.517"/><path fill="#ab1e2a" d="M123 235c0 3 0 3-1.46 4.605l-1.915 1.583-1.898 1.605C116 244 116 244 114 244v2h-3l2-6h2v-2c5.75-3 5.75-3 8-3"/><path fill="#5d6c8f" d="M356 213v3l-2.371-.035-3.067-.028-3.058-.035c-2.444-.188-2.444-.188-3.504 1.098-1.666.04-3.334.043-5 0l-1-2c6.154-1.823 11.596-2.236 18-2"/><path fill="#333a5f" d="m111 220 2 1v15l6-2a141 141 0 0 1-5 5h-2c-1.655-3.31-1.1-6.991-1.062-10.625l.013-2.43q.02-2.972.049-5.945"/><path fill="#ac5d64" d="m46 278 2 1a76 76 0 0 0 5-1c-3.388 3.587-6.735 6.497-11 9h-3c1.35-4.419 3.261-6.343 7-9"/><path fill="#59688a" d="M432 262c2.451.98 3.768 1.651 5.25 3.875C438 268 438 268 438 272l4 1-2 4a625 625 0 0 1-4.562-5.812l-1.327-1.659c-1.117-1.451-2.122-2.987-3.111-4.529z"/><path fill="#546585" d="M355 228h2v2c2.22 1.15 4.303 2.098 6.688 2.875C366 234 366 234 366.938 236l.062 2-2 2v-3c-3.588-1.866-7.278-3.425-11-5z"/><path fill="#506485" d="M361 215c6.033 1.617 9.95 3.167 14 8l-4 1-2-3c-2.563-.73-2.563-.73-5-1v-2l-3-1z"/><path fill="#4b4165" d="M88 236h2v3l3-3 1 5-2.562-.437c-5.048.642-7.22 3.704-10.438 7.437l-1-3 2.313-1.687c2.655-2.285 3.945-4.327 5.687-7.313"/><path fill="#5d6c88" d="m130 275 2 1c-2.452 4.76-5.908 8.578-10 12h-2c0-3 0-3 1.813-5.187C124 281 124 281 127 281v-3h3z"/><path fill="#9d3241" d="M87 241c0 3.867-1.137 4.671-3.687 7.5l-2.075 2.344c-2.263 2.18-4.49 3.654-7.238 5.156 1.394-4.661 4.028-7.232 7.625-10.312.516-.455 1.031-.91 1.563-1.377A482 482 0 0 1 87 241"/><path fill="#753b56" d="M66 268h2v2c-1.95 1.406-3.96 2.73-6 4l-2.687 1.75C57 277 57 277 54 277l1-4c2.019-.505 4.014-1.003 6.063-1.375 2.31-.746 3.281-1.894 4.937-3.625"/><path fill="#4b4165" d="m122 239 2 1a923 923 0 0 1-4.375 5l-2.46 2.813c-.715.721-1.43 1.443-2.165 2.187h-2v3h-2c0-4 0-4 1.645-5.816.715-.577 1.43-1.153 2.168-1.746 2.517-2.06 4.93-4.095 7.187-6.438"/><path fill="#4d5f81" d="M285 246c-3.458 2.305-4.507 2.19-8.543 1.977l-3.252-.157-3.392-.195-3.428-.172q-4.193-.212-8.385-.453v-1c3.75-.197 7.5-.381 11.25-.562l3.223-.17 3.105-.147 2.857-.143c2.388.02 4.292.327 6.565 1.022"/><path fill="#4f6387" d="M338 216c-.187 1.875-.187 1.875-1 4-3.378 1.877-6.176 2.218-10 2 3.421-3.666 5.857-6 11-6"/><path fill="#636e8f" d="M343 267c1.938.375 1.938.375 4 1 1.533 3.065 1.103 6.268 1.063 9.625l-.014 2.14q-.02 2.618-.049 5.235h-1v-14l-5-1z"/><path fill="#4e5e85" d="m365 259 3 2c-1.39 3.473-2.612 4.518-6 6l-2 2v-2l-2-1 4.59-3.71c1.543-1.257 1.543-1.257 2.41-3.29"/><path fill="#5b6a8b" d="M69 207h2l1 3c-2.313 2.313-3.479 2.496-6.625 3.125l-2.477.508L61 214c2.313-2.5 2.313-2.5 5-5h3z"/><path fill="#972e39" d="m56 270 2 1-1.437 1.25c-1.726 1.932-2.129 3.232-2.563 5.75l-7 2 1-3h3v-3c2.5-2.187 2.5-2.187 5-4"/><path fill="#9c4652" d="m106 251 4 1h-2v2h-2v2a88 88 0 0 1-5 3l-3 2c1.37-2.95 2.826-5.565 5-8h3z"/><path fill="#59678c" d="M301 250h2c-1.346 4.406-3.194 6.43-7 9h-2v-3h3v-2h2v-2h2z"/><path fill="#667595" d="M425 230c2.867.573 3.861.861 6 3v3l3 1-2 2v-2h-3l-1-3h-3z"/><path fill="#61728c" d="M333 251c2 6.625 2 6.625 2 10h-3l-2-9c2-1 2-1 3-1"/><path fill="#57688b" d="M416 218h3c1.387 1.75 1.387 1.75 2.688 4 .436.743.873 1.485 1.324 2.25L424 226h-3v-2h-3c-2-3-2-3-2-6"/><path fill="#bb898f" d="m142 219 1 3-5 4v-2l-4 1c2.49-2.667 4.634-4.557 8-6"/><path fill="#633c58" d="m94 243 3 1v2l8-2c-3.323 3.938-3.323 3.938-6.75 4.25L96 248z"/><path fill="#ab4f62" d="m111 237 1 2h2l1-2v3c-4.229 4-4.229 4-8 4l2-4h2z"/><path fill="#324678" d="M345 226c2.352.599 4.686 1.27 7 2l1 2-8 1z"/><path fill="#80657a" d="M55 269v3l-4 2v3l-3-1h2l-1-6c1.207.03 1.207.03 2.438.063 2.496.233 2.496.233 3.562-1.063"/><path fill="#3c4771" d="m58 265 2 1c-3.788 3.611-3.788 3.611-6 5-2.875-.187-2.875-.187-5-1l1-2a221 221 0 0 1 7-2z"/><path fill="#5f7699" d="m296 218 6 5-2 4h-2z"/><path fill="#596c89" d="M285 259h9c-3.445 2.296-5.938 2.54-10 3z"/><path fill="#a56d78" d="m41 282 5 1c-1.812 2-1.812 2-4 4h-3z"/><path fill="#546685" d="m133 266 3 1a129 129 0 0 1-2 7l-2 1z"/><path fill="#ba171b" d="M76 254h4c0 2 0 2-1.25 3.688L77 259c-2.187-.312-2.187-.312-4-1 1.25-2 1.25-2 3-4"/><path fill="#717bb5" d="M386 241c1.784 3.062 2.229 5.22 2.125 8.75l-.055 2.422L388 254h-1l-.437-2.75c-.477-3.095-.477-3.095-1.188-5.437C385 244 385 244 386 241"/><path fill="#b31923" d="m113 240 4 1h-2l-1 5h-3z"/><path fill="#5a6f8f" d="M55 219c2 3 2 3 2 5l-7 3v-2h2l.938-2.437C54 220 54 220 55 219"/><path fill="#2f466b" d="m45 241 3 1-2 10h-1z"/><path fill="#892d3d" d="M88 240h5l2 7-3-1v-5z"/><path fill="#647694" d="M381 230c3.254 2.834 4.52 4.686 5 9h-2z"/><path fill="#839aac" d="M325 222c1 2 1 2 .375 4-1.768 2.571-3.45 3.077-6.375 4 1.443-3.366 3.333-5.51 6-8"/><path fill="#64738f" d="m57 276 2 1-1 6-4-3 1-3z"/><path fill="#364975" d="M360 267c-.999 2.997-1.651 4.027-4 6h-2v-4c3.75-2 3.75-2 6-2"/><path fill="#9c2933" d="M84 253h6v2l-7 2z"/><path fill="#566388" d="M303 243h3c-.75 4.75-.75 4.75-3 7-.934-3.01-1.044-3.867 0-7"/><path fill="#b91820" d="M106 245h4c-.75 1.938-.75 1.938-2 4-2.125.75-2.125.75-4 1 .875-3.875.875-3.875 2-5"/></svg>