<svg xmlns="http://www.w3.org/2000/svg" width="512" height="512"><path d="m52.175 84.869 2.167-.007q3.603-.006 7.206-.002l5.211-.01q7.17-.011 14.337-.01c5.152-.002 10.305-.01 15.457-.016q16.902-.02 33.806-.024l21.108-.012q29.22-.019 58.44-.026h7.566l7.598-.002h3.807q30.532-.009 61.066-.046 31.346-.035 62.692-.037 17.601.001 35.201-.025 14.988-.023 29.976-.012 7.646.008 15.29-.011 7.005-.019 14.01 0 2.528.004 5.057-.01c17.48-.084 32.55 3.435 45.576 15.897 7.684 8.469 14.361 20.223 14.388 31.94l.014 2.705v2.958l.01 3.153q.015 5.245.019 10.492l.02 7.51c.02 7.52.03 15.041.039 22.562l.015 10.635a42692 42692 0 0 1 .044 44.547l.002 2.303c.008 12.304.033 24.608.066 36.912q.049 18.964.054 37.928c.002 7.094.01 14.188.036 21.282.025 6.678.028 13.356.018 20.034q0 3.669.02 7.338c.105 19.85-2.062 34.853-16.093 50.013-6.9 6.248-15.314 11.025-24.398 13.172l-2.177.521c-3.374.572-6.574.607-9.998.61l-2.167.007q-3.603.006-7.206.002l-5.211.01q-7.17.011-14.337.01-7.728.005-15.457.016-16.902.02-33.806.024l-21.108.012q-29.22.019-58.44.026h-7.566l-7.598.002h-3.807q-30.532.009-61.066.046-31.346.035-62.692.037-17.601-.001-35.201.025-14.988.023-29.976.012-7.646-.008-15.29.011-7.005.019-14.01 0-2.528-.004-5.057.01c-17.48.084-32.55-3.435-45.576-15.897-7.684-8.469-14.361-20.223-14.388-31.94l-.014-2.705v-2.958l-.01-3.153q-.015-5.245-.019-10.492l-.02-7.51c-.02-7.52-.03-15.041-.039-22.562l-.015-10.635a42692 42692 0 0 1-.046-46.85c-.008-12.304-.033-24.608-.066-36.912a16023 16023 0 0 1-.054-37.928c-.002-7.094-.01-14.188-.036-21.282a3898 3898 0 0 1-.018-20.034q0-3.669-.02-7.338c-.105-19.85 2.062-34.853 16.093-50.013C22.502 92.924 30.916 88.147 40 86l2.177-.521c3.374-.572 6.574-.607 9.998-.61M30 117c-8.307 10.138-8 18.301-8 32h468c.33-17.883.33-17.883-7.91-31.922-7.305-7.263-16.198-10.324-26.386-10.335l-2.133-.01c-2.352-.01-4.704-.005-7.056 0l-5.117-.014c-4.684-.012-9.367-.012-14.05-.01-5.053 0-10.105-.01-15.158-.02q-14.846-.023-29.692-.023-12.07-.002-24.137-.012-34.219-.026-68.438-.025h-7.457c-19.955.001-39.91-.018-59.864-.046q-30.735-.043-61.472-.04c-11.503 0-23.007-.006-34.51-.027q-14.691-.028-29.382-.009c-4.996.006-9.992.007-14.988-.01q-6.865-.024-13.73.004-2.48.005-4.957-.012C50.997 106.41 39.373 107.73 30 117m-8 54v42h468v-42zm0 64c-13.051 86.082-13.051 86.082 7.91 159.922 7.305 7.263 16.198 10.324 26.386 10.335l2.133.01c2.352.01 4.704.005 7.056 0l5.117.014c4.684.012 9.367.012 14.05.01 5.053 0 10.105.01 15.158.02q14.846.023 29.692.023 12.07.002 24.137.012a81687 81687 0 0 0 72.165.025h3.73c19.955-.001 39.91.018 59.864.046q30.735.043 61.472.04c11.503 0 23.007.006 34.51.027q14.691.029 29.382.009c4.996-.006 9.992-.007 14.988.01q6.865.024 13.73-.004 2.48-.005 4.957.012c11.785.074 22.288-1.03 31.778-8.745 5.4-5.342 7.696-10.455 9.785-17.766V235z"/><path d="m115.718 276.853 2.007-.011q3.317-.015 6.634-.019l4.766-.02q7.813-.028 15.625-.041l5.383-.013q12.639-.029 25.278-.041 14.589-.015 29.178-.077 11.28-.044 22.56-.048c4.492-.002 8.982-.011 13.473-.036q6.334-.035 12.667-.018 2.324 0 4.647-.02c2.116-.017 4.23-.01 6.346.003l3.587-.007c3.773.597 5.41 1.87 8.131 4.495 2.289 3.27 2.472 6.07 2 10-2.04 3.658-3.504 5.67-7 8-2.806.25-2.806.25-6.285.252l-3.993.016-4.392-.013-4.618.011q-4.977.011-9.954.008c-5.254-.002-10.508.012-15.762.03q-22.413.068-44.826.077-12.375.006-24.75.055-7.822.03-15.643.012c-3.26-.003-6.518.011-9.776.03q-2.252.008-4.505-.005C114.274 299.406 103.045 301.058 94 310c-5.285 6.62-7.23 13.575-7.273 22.035l-.063 3.951q-.035 3.065-.045 6.129a459 459 0 0 1-.08 5.983l-.025 3.578c-.62 4.014-1.993 6.171-4.514 9.324-3.702 2.468-6.705 2.68-11 2-5.5-3-5.5-3-7-6a188 188 0 0 1-.238-7.867l-.025-2.394q-.02-2.52-.032-5.039a472 472 0 0 0-.062-5.096c-.313-17.859 3.52-31.993 15.959-45.432 10.198-9.235 22.445-14.27 36.116-14.32"/></svg>