<svg xmlns="http://www.w3.org/2000/svg" width="512" height="512"><path d="m50.117 63.869 2.185-.007q3.642-.006 7.284-.002l5.26-.01q7.244-.011 14.487-.01c5.204-.002 10.408-.01 15.612-.016q17.077-.02 34.153-.024l21.322-.012q29.51-.019 59.02-.026h7.644l7.675-.002h3.846q30.844-.009 61.69-.046 31.659-.035 63.319-.037 17.779.001 35.557-.025 15.14-.023 30.28-.012c5.15.004 10.3.003 15.449-.011q7.074-.019 14.15 0 2.555.004 5.111-.01c8.684-.04 16.65.093 24.839 3.381l2.742 1c12.713 5.96 22.666 16.728 27.57 29.812 1.674 4.894 2.812 9.113 2.82 14.306l.011 3.151-.003 3.458.01 3.677q.01 5.053.01 10.107.005 5.45.016 10.9.02 11.92.024 23.84l.012 14.89q.019 20.616.026 41.233v5.337l.003 8.047q.007 21.532.045 43.065.035 22.113.037 44.227-.001 12.414.025 24.827.023 10.572.012 21.145c-.004 3.594-.003 7.188.011 10.782.015 3.902.007 7.805-.004 11.707l.025 3.417c-.043 6.85-1.029 12.642-3.392 19.072l-1 2.742c-6.155 13.128-17.167 22.952-30.678 27.88-8.742 2.965-17.081 3.073-26.231 3q-2.644.006-5.29.019c-4.803.017-9.607.003-14.41-.017-5.197-.015-10.393-.002-15.59.008-10.162.015-20.324.002-30.486-.02-11.84-.023-23.682-.021-35.522-.019-21.128.004-42.255-.017-63.382-.051q-30.736-.05-61.474-.041-33.499.012-66.998-.015l-3.58-.004-7.115-.006q-12.375-.009-24.752-.006-15.079.003-30.158-.032a4382 4382 0 0 0-15.382-.013q-7.043.006-14.087-.023a815 815 0 0 0-5.089.001c-17.314.054-30.62-3.776-43.487-15.989-8.4-8.86-14.403-20.108-14.42-32.532l-.012-3.151.003-3.458-.01-3.677q-.01-5.054-.01-10.107c-.002-3.634-.01-7.267-.016-10.9q-.02-11.92-.024-23.84l-.012-14.89q-.019-20.616-.026-41.233v-5.337l-.002-5.36v-2.687q-.009-21.533-.046-43.065-.035-22.113-.037-44.227.001-12.413-.025-24.827-.023-10.572-.012-21.145.008-5.391-.011-10.782c-.015-3.902-.007-7.805.004-11.707l-.025-3.417C-.349 109.222.637 103.43 3 97l1-2.742c5.96-12.713 16.728-22.666 29.813-27.57Q36.393 65.802 39 65l1.71-.54c3.16-.635 6.184-.588 9.407-.591M28 98c-3.506 5.648-6.12 11.164-6.134 17.87l-.014 3.06v3.373l-.01 3.575q-.014 4.92-.017 9.841-.007 5.304-.022 10.608c-.02 8.543-.03 17.086-.039 25.63l-.015 12.071a54943 54943 0 0 0-.044 50.55l-.002 2.615a23430 23430 0 0 1-.066 41.921 20663 20663 0 0 0-.054 43.048c-.002 8.055-.01 16.11-.036 24.166a4492 4492 0 0 0-.02 20.585c.004 3.499.002 6.997-.017 10.496-.018 3.8-.01 7.6.002 11.4l-.033 3.324c.087 10.395 3.077 18.306 10.228 25.887 6.477 5.593 13.721 8.102 22.162 8.114l2.14.007q3.577.009 7.153.006l5.16.011q7.109.014 14.219.017 7.66.007 15.32.022c12.34.02 24.68.03 37.02.039l17.426.015a114422 114422 0 0 0 72.959.044l3.775.002c20.181.008 40.363.033 60.545.066q31.07.049 62.14.054c11.632.002 23.264.011 34.896.036q14.86.034 29.72.02a3202 3202 0 0 1 15.163.017q6.945.026 13.889.001a589 589 0 0 1 5.017.014c12.535.084 22.164-1.302 31.609-10.212 4.881-5.652 8.099-12.677 8.114-20.163l.014-3.06v-3.373l.01-3.575q.014-4.92.017-9.841.007-5.304.022-10.608c.02-8.543.03-17.086.039-25.63l.015-12.071a54943 54943 0 0 0 .044-50.55l.002-2.615c.008-13.974.033-27.948.066-41.921q.049-21.524.054-43.048c.002-8.055.01-16.11.036-24.166q.034-10.292.02-20.585c-.004-3.499-.002-6.997.017-10.496.018-3.8.01-7.6-.002-11.4l.033-3.324c-.087-10.395-3.077-18.306-10.228-25.887-6.477-5.593-13.721-8.102-22.162-8.114l-2.14-.007q-3.577-.009-7.153-.006l-5.16-.011q-7.109-.014-14.219-.017-7.66-.007-15.32-.022c-12.34-.02-24.68-.03-37.02-.039l-17.426-.015a114422 114422 0 0 0-76.734-.046 50540 50540 0 0 1-60.545-.066q-31.07-.049-62.14-.054c-11.632-.002-23.264-.011-34.896-.036a9369 9369 0 0 0-29.72-.02c-5.055.004-10.109.002-15.163-.017q-6.945-.026-13.889-.001a589 589 0 0 1-5.017-.014C47.992 85.405 37.317 87.213 28 98"/><path d="m118.756 276.839 2.964-.015q4.847-.021 9.694-.027l6.76-.017q7.089-.015 14.178-.02c6.036-.006 12.07-.03 18.106-.058 4.657-.019 9.314-.024 13.97-.026q3.336-.004 6.672-.024c3.122-.017 6.245-.015 9.367-.008l2.747-.028c14.55.093 28.044 5.866 38.532 15.9 11.735 12.934 14.486 26.537 14.604 43.32q.025 2.599.082 5.198c.055 2.509.077 5.016.091 7.525l.07 2.336c-.017 4.077-.397 5.863-3 9.07-3.65 2.864-5.867 3.38-10.558 3.32-3.225-.452-4.844-1.965-7.035-4.285-2.26-3.502-2.266-6.523-2.309-10.637l-.076-3.94q-.042-3.072-.071-6.146c-.125-11.35-.961-20.23-8.31-29.195-7.775-7.245-16.92-9.227-27.142-9.259l-2.727-.02q-4.465-.028-8.931-.041l-3.09-.013q-8.102-.03-16.203-.044c-5.559-.011-11.118-.046-16.677-.085-4.29-.027-8.58-.035-12.871-.038a914 914 0 0 1-6.144-.035c-13.267-.114-24.939-.025-35.73 8.754-5.61 5.546-8.393 12.29-8.974 20.152l-.018 3.582-.063 3.951q-.035 3.065-.045 6.129a459 459 0 0 1-.08 5.983l-.025 3.578c-.62 4.014-1.993 6.171-4.514 9.324-3.702 2.468-6.705 2.68-11 2-5.5-3-5.5-3-7-6a188 188 0 0 1-.238-7.867l-.025-2.394q-.02-2.52-.032-5.039a472 472 0 0 0-.062-5.096c-.313-17.859 3.52-31.993 15.959-45.432 6.9-6.248 15.314-11.025 24.398-13.172l2.015-.52c4.251-.684 8.442-.636 12.741-.641m74.908-116.799C205.13 169.841 212.187 181.96 214 197c1.089 14.06-2.487 27.426-11.074 38.73-8.763 10.11-19.298 18.343-32.926 20.27-18.165 1.225-32.166-1.473-46.625-13.113C114.05 234.429 106.926 221.729 106 209l-.242-2.969c-.648-15.709 4.684-30.213 15.305-41.781 20.131-18.83 50.552-21.087 72.601-4.21m-58.414 22.773c-6.197 8.778-7.387 16.416-6.25 27.187 2.062 8.384 7.929 15.21 15.063 19.875 7.841 4.436 15.8 5.598 24.656 3.473C177.33 230.25 184.634 224.105 189 216c3.09-7.77 3.42-16.354.973-24.363-3.753-8.18-9.434-14.782-17.723-18.574-14.546-4.756-26.486-1.003-37 9.75m175.233 157.92 3.454-.026 3.793.002 3.992-.02c3.615-.018 7.231-.022 10.847-.024 3.02-.001 6.038-.009 9.058-.016q10.687-.023 21.375-.02c7.347.002 14.693-.02 22.04-.051q9.463-.038 18.927-.036c3.767 0 7.534-.005 11.302-.026q5.317-.029 10.635-.005c1.916.003 3.833-.014 5.75-.03 6.352.046 10.59.08 15.344 4.519 1.857 3.715 1.585 7.956 1 12-2.19 2.824-3.83 4.415-7 6-1.788.102-3.58.14-5.37.147l-3.454.022-3.808.008-3.996.02q-5.436.025-10.872.036l-6.792.018q-10.622.029-21.245.041-12.264.015-24.53.077-9.477.044-18.955.048c-3.775.002-7.55.011-11.324.036q-5.328.035-10.654.018c-1.923-.001-3.846.018-5.77.038l-3.48-.021-3.016.007c-4.114-.745-6.678-2.986-9.046-6.37-.952-2.94-1.058-5.043-.688-8.125 3.268-5.86 5.74-8.245 12.483-8.267m6.673-85.364q2.029-.008 4.057-.022c3.665-.018 7.33-.005 10.996.014 3.838.017 7.677.008 11.516.003q9.669-.006 19.337.04c7.45.031 14.898.031 22.347.014 7.17-.016 14.34-.01 21.51.008q4.575.01 9.148-.002 5.388-.01 10.776.032c1.944.01 3.888 0 5.833-.01l3.517.04 3.05.008c3.508.644 5.2 2.072 7.757 4.506 1.859 3.717 1.58 7.953 1 12-2.527 3.346-4.04 4.68-8 6-1.8.099-3.604.14-5.408.147l-3.402.022-3.736.008-3.933.02q-6.457.028-12.916.041l-4.448.013q-10.45.029-20.9.041-12.06.015-24.117.077-9.323.044-18.647.048c-3.712.002-7.423.011-11.134.036-4.142.028-8.283.024-12.425.017l-3.717.039c-6.341-.04-10.45-.127-15.217-4.509-2.005-2.869-2.266-4.987-1.937-8.437l.16-2.247c3.07-9.147 10.673-8.023 18.933-7.947m-5.621-85.629 3.411-.022 3.73.007 3.938-.015c3.562-.014 7.123-.014 10.685-.012q4.463 0 8.924-.008 10.528-.016 21.055-.006c7.238.006 14.476-.006 21.714-.027a5555 5555 0 0 1 18.65-.02c3.712.001 7.423-.001 11.135-.015 4.14-.015 8.279-.006 12.418.006l3.724-.023 3.42.02h2.964c3.885.54 6.434 2.397 9.482 4.758 2.129 2.834 1.673 5.75 1.578 9.168-.505 3.403-1.85 5.158-4.363 7.449-2.607 1.303-4.525 1.138-7.446 1.154l-3.505.026-3.865.013-4.055.025c-4.445.026-8.89.041-13.336.055l-4.59.017q-9.543.033-19.087.051-13.683.023-27.364.107-9.618.056-19.236.063c-3.83.004-7.661.016-11.491.048q-5.407.044-10.813.025c-1.951 0-3.903.024-5.854.05-9.541-.069-9.541-.069-12.63-3.03-2.565-3.865-3.149-7.007-2.728-11.604 3.181-6.48 6.52-8.246 13.535-8.26"/></svg>