<?xml version="1.0" encoding="UTF-8"?>
<svg version="1.1" xmlns="http://www.w3.org/2000/svg" width="512" height="512">
<path d="M0 0 C0.7208666 -0.00205263 1.4417332 -0.00410527 2.18444425 -0.0062201 C4.61267191 -0.01189817 7.04084301 -0.01043186 9.46907616 -0.00901413 C11.22256707 -0.01159731 12.9760574 -0.01461034 14.7295469 -0.01801753 C19.55827676 -0.02609645 24.38699176 -0.0278776 29.21572757 -0.028615 C34.41971852 -0.03046402 39.62370173 -0.03801063 44.82768822 -0.04475021 C56.21205619 -0.05834076 67.59642065 -0.06435948 78.98079538 -0.06876087 C86.08799788 -0.07152228 93.19519901 -0.07575947 100.30240059 -0.08026505 C119.97615092 -0.09245904 139.64990015 -0.10275785 159.32365417 -0.10614014 C161.21297361 -0.10646949 161.21297361 -0.10646949 163.14046111 -0.10680549 C164.40304196 -0.10702377 165.66562281 -0.10724204 166.96646369 -0.10746694 C169.52498221 -0.1079104 172.08350074 -0.10835697 174.64201927 -0.10880661 C175.91113605 -0.10902804 177.18025284 -0.10924947 178.4878277 -0.10947761 C199.05085478 -0.11342539 219.61384642 -0.13087822 240.17685981 -0.15416613 C261.28340776 -0.17787683 282.38993793 -0.19034187 303.49649942 -0.19150805 C315.349099 -0.19242501 327.20165241 -0.19818255 339.05423927 -0.21632767 C349.14754716 -0.23172489 359.24079461 -0.23685136 369.334112 -0.22858956 C374.48365179 -0.22468164 379.63306986 -0.22561969 384.78259468 -0.23964691 C389.49914075 -0.25237715 394.21547354 -0.25119594 398.93201928 -0.2390562 C400.63597149 -0.23709768 402.33993876 -0.24018478 404.04386981 -0.24890056 C412.72728198 -0.29049574 420.69342058 -0.15685709 428.88274193 3.13142776 C429.7876638 3.46142776 430.69258568 3.79142776 431.62492943 4.13142776 C444.33761654 10.09195505 454.2907285 20.85944847 459.19524193 33.94392776 C460.86879221 38.83747351 462.00696398 43.05672212 462.01416969 48.2496624 C462.01801084 49.28951149 462.02185198 50.32936057 462.02580953 51.40072024 C462.02494304 52.54175027 462.02407656 53.6827803 462.02318382 54.85838699 C462.02764051 56.67827796 462.02764051 56.67827796 462.03218722 58.5349344 C462.03936795 61.90427551 462.04204658 65.27356562 462.04278469 68.64291072 C462.04463597 72.2763366 462.05218376 75.90975144 462.05891991 79.54317093 C462.07250174 87.48963154 462.07852793 95.43608711 462.08293056 103.38255739 C462.08569367 108.34563587 462.08993119 113.30871239 462.09443474 118.27178955 C462.10662802 132.01617752 462.11692669 145.76056394 462.12030983 159.5049572 C462.1205294 160.38464925 462.12074896 161.2643413 462.12097518 162.17069068 C462.12119346 163.05247819 462.12141174 163.93426569 462.12163663 164.84277403 C462.12208009 166.62958439 462.12252666 168.41639475 462.1229763 170.20320511 C462.12319773 171.0895232 462.12341916 171.97584129 462.1236473 172.88901751 C462.12759364 187.24418629 462.14504236 201.59930426 462.16833583 215.95445342 C462.19206415 230.69677215 462.20451238 245.43906539 462.20567775 260.18140352 C462.20659376 268.4569649 462.21232738 276.7324601 462.23049736 285.00800323 C462.24591845 292.05638133 462.25100704 299.1046728 462.24275926 306.15306456 C462.23885962 309.74721944 462.23974849 313.34119997 462.2538166 316.93533325 C462.26895147 320.83781906 462.26066848 324.74006118 462.2502346 328.64256668 C462.25829101 329.77021238 462.26634741 330.89785808 462.27464795 332.05967486 C462.23188405 338.90917015 461.24602067 344.70092805 458.88274193 351.13142776 C458.55274193 352.03634964 458.22274193 352.94127151 457.88274193 353.87361526 C451.72735323 367.00190522 440.71535954 376.82525077 427.2051878 381.75274277 C418.46243423 384.71877102 410.12369202 384.82665271 400.97360802 384.75288773 C399.21061768 384.75722599 397.44763163 384.76375033 395.68465644 384.77224779 C390.8805974 384.78912117 386.07706531 384.77514127 381.27303445 384.75573301 C376.07671972 384.74022779 370.88046632 384.75372781 365.68414879 384.76347733 C355.52197659 384.77796518 345.36000495 384.7658099 335.1978518 384.74436408 C323.35701152 384.7202967 311.51621663 384.72207189 299.67535732 384.72466999 C278.54807353 384.72835581 257.42088399 384.70756998 236.2936306 384.67341995 C215.80239545 384.6403104 195.31125915 384.62616573 174.81999779 384.63240433 C152.4871863 384.63917018 130.15441614 384.63670416 107.82161075 384.61704493 C106.04994151 384.6154857 106.04994151 384.6154857 104.24248097 384.61389497 C101.87046359 384.61180412 99.49844624 384.60969315 97.1264289 384.6075618 C88.87595801 384.60067136 80.62549987 384.599996 72.3750267 384.60144424 C62.3222243 384.60288471 52.26950239 384.59317858 42.21672668 384.56949788 C37.08940089 384.55764889 31.96218723 384.55050556 26.8348484 384.55633545 C22.13907473 384.56151689 17.44353772 384.55278507 12.7478045 384.53306085 C11.05159202 384.5283314 9.35535641 384.52860787 7.65914746 384.53447121 C-9.65563234 384.58852885 -22.96154422 380.75859742 -35.82819557 368.54549026 C-44.22893635 359.68600597 -50.23144562 348.43770568 -50.24868584 336.01319313 C-50.25252698 334.97334404 -50.25636813 333.93349496 -50.26032567 332.86213529 C-50.25902595 331.15059025 -50.25902595 331.15059025 -50.25769997 329.40446854 C-50.26215665 327.58457757 -50.26215665 327.58457757 -50.26670337 325.72792113 C-50.27388409 322.35858002 -50.27656272 318.98928991 -50.27730083 315.61994481 C-50.27915211 311.98651893 -50.2866999 308.35310409 -50.29343605 304.7196846 C-50.30701788 296.77322399 -50.31304407 288.82676842 -50.31744671 280.88029814 C-50.32020981 275.91721966 -50.32444733 270.95414314 -50.32895088 265.99106598 C-50.34114416 252.24667801 -50.35144283 238.50229159 -50.35482597 224.75789833 C-50.35504554 223.87820628 -50.35526511 222.99851423 -50.35549133 222.09216485 C-50.3557096 221.21037734 -50.35592788 220.32858984 -50.35615277 219.4200815 C-50.35659624 217.63327114 -50.3570428 215.84646078 -50.35749245 214.05965042 C-50.35771388 213.17333233 -50.35793531 212.28701424 -50.35816345 211.37383802 C-50.36210978 197.01866924 -50.37955851 182.66355127 -50.40285197 168.30840211 C-50.42658029 153.56608338 -50.43902853 138.82379014 -50.44019389 124.08145201 C-50.44110991 115.80589063 -50.44684353 107.53039542 -50.4650135 99.25485229 C-50.4804346 92.2064742 -50.48552319 85.15818273 -50.4772754 78.10979097 C-50.47337577 74.51563609 -50.47426463 70.92165556 -50.48833275 67.32752228 C-50.50346761 63.42503647 -50.49518462 59.52279435 -50.48475075 55.62028885 C-50.49280715 54.49264315 -50.50086356 53.36499745 -50.50916409 52.20318067 C-50.46640019 45.35368538 -49.48053681 39.56192748 -47.11725807 33.13142776 C-46.62225807 31.77404495 -46.62225807 31.77404495 -46.11725807 30.38924026 C-40.15673078 17.67655316 -29.38923736 7.72344119 -16.30475807 2.81892776 C-14.58423377 2.23052335 -12.85550157 1.66521907 -11.11725807 1.13142776 C-10.27070874 0.86442814 -10.27070874 0.86442814 -9.4070574 0.59203458 C-6.24761205 -0.04350673 -3.22304017 0.00312125 0 0 Z M-22.11725807 34.13142776 C-25.6229658 39.77904762 -28.23776063 45.29500516 -28.25147915 52.00167561 C-28.25593699 53.01166648 -28.26039484 54.02165735 -28.26498777 55.06225401 C-28.2648034 56.1750693 -28.26461904 57.28788458 -28.26442909 58.43442154 C-28.26810578 59.61415934 -28.27178247 60.79389714 -28.27557057 62.00938457 C-28.28469923 65.28976307 -28.28930752 68.57011216 -28.29195988 71.85050118 C-28.29586276 75.38646798 -28.30544123 78.92242029 -28.31417274 82.45837784 C-28.33393942 91.00155526 -28.34400442 99.54473387 -28.35290053 108.08792844 C-28.35728381 112.11177183 -28.36265058 116.1356139 -28.3678894 120.15945625 C-28.38490322 133.53750619 -28.39939654 146.9155553 -28.40663815 160.29361439 C-28.40854803 163.76567524 -28.41046836 167.23773608 -28.41242409 170.70979691 C-28.41290783 171.57275558 -28.41339157 172.43571426 -28.41388997 173.32482319 C-28.42218704 187.29854805 -28.4475178 201.2721872 -28.48000477 215.24587465 C-28.5130921 229.5949171 -28.53108849 243.94391603 -28.53428239 258.29299682 C-28.53644612 266.34838704 -28.54517456 274.40365235 -28.57074356 282.45900536 C-28.59247361 289.32077616 -28.60048976 296.18239173 -28.59077678 303.04419304 C-28.58623846 306.54320953 -28.58809041 310.04190591 -28.60753822 313.5408783 C-28.62522748 317.34070449 -28.61816412 321.1397217 -28.60500526 324.93954849 C-28.61597451 326.03674872 -28.62694376 327.13394896 -28.6382454 328.26439768 C-28.55149445 338.65973096 -25.56097599 346.57089657 -18.41022682 354.15095901 C-11.9336512 359.74486675 -4.68918644 362.25369715 3.75201321 362.26564884 C4.45821897 362.26800107 5.16442474 362.2703533 5.89203069 362.27277681 C8.27640595 362.27947395 10.66072681 362.27900837 13.0451107 362.27859879 C14.76474034 362.28189698 16.4843692 362.28562245 18.20399708 362.28974026 C22.94377191 362.29977366 27.68353408 362.30347922 32.42331803 362.30612957 C37.52984922 362.31002871 42.63637035 362.31960737 47.74289513 362.32834244 C60.0829189 362.34811878 72.42294351 362.35817492 84.76297918 362.36707023 C90.5720091 362.37145155 96.3810381 362.37681879 102.19006729 362.3820591 C121.49748006 362.39907318 140.80489225 362.41356748 160.11231136 362.42080784 C165.12441127 362.42271778 170.13651118 362.42463811 175.14861107 362.42659378 C176.39436843 362.42707752 177.6401258 362.42756126 178.92363339 362.42805966 C199.10521099 362.43636038 219.28672932 362.46169722 239.46828104 362.49417446 C260.1815528 362.52723595 280.89479444 362.54525581 301.60809273 362.54845208 C313.24051298 362.55061811 324.87284683 362.55938027 336.50524139 362.58491325 C346.41193653 362.60660786 356.31852428 362.61467678 366.22524048 362.60494647 C371.2796242 362.6003981 376.33378631 362.60231934 381.38813972 362.62170792 C386.01781121 362.63931394 390.64709898 362.63836259 395.2767744 362.62281062 C396.9491308 362.62043066 398.62151359 362.62477827 400.29382963 362.63663927 C412.82864242 362.72001618 422.45737844 361.33435916 431.90227318 352.42439651 C436.78382919 346.77257526 440.00164959 339.74755874 440.01696301 332.26117992 C440.02364977 330.74619361 440.02364977 330.74619361 440.03047162 329.20060152 C440.03028726 328.08778623 440.0301029 326.97497095 440.02991295 325.82843399 C440.03542798 324.05882729 440.03542798 324.05882729 440.04105443 322.25347096 C440.05018308 318.97309246 440.05479138 315.69274337 440.05744374 312.41235435 C440.06134662 308.87638755 440.07092509 305.34043524 440.0796566 301.80447769 C440.09942328 293.26130027 440.10948827 284.71812166 440.11838439 276.17492709 C440.12276766 272.1510837 440.12813444 268.12724162 440.13337326 264.10339928 C440.15038707 250.72534934 440.16488039 237.34730023 440.172122 223.96924114 C440.17403188 220.49718029 440.17595221 217.02511945 440.17790794 213.55305862 C440.17839168 212.69009995 440.17887542 211.82714127 440.17937382 210.93803234 C440.18767089 196.96430748 440.21300166 182.99066833 440.24548862 169.01698088 C440.27857596 154.66793843 440.29657235 140.3189395 440.29976624 125.96985871 C440.30192998 117.91446849 440.31065842 109.85920318 440.33622742 101.80385017 C440.35795746 94.94207937 440.36597362 88.0804638 440.35626063 81.21866249 C440.35172231 77.719646 440.35357426 74.22094962 440.37302208 70.72197723 C440.39071134 66.92215104 440.38364798 63.12313383 440.37048912 59.32330704 C440.38145837 58.22610681 440.39242761 57.12890657 440.40372926 55.99845785 C440.31697831 45.60312457 437.32645985 37.69195896 430.17571068 30.11189651 C423.69913506 24.51798878 416.4546703 22.00915838 408.01347065 21.99720669 C407.30726488 21.99485446 406.60105911 21.99250223 405.87345317 21.99007872 C403.48907791 21.98338158 401.10475705 21.98384716 398.72037315 21.98425674 C397.00074352 21.98095855 395.28111465 21.97723308 393.56148678 21.97311527 C388.82171195 21.96308187 384.08194978 21.95937631 379.34216583 21.95672596 C374.23563464 21.95282682 369.12911351 21.94324816 364.02258873 21.93451309 C351.68256495 21.91473675 339.34254034 21.90468061 327.00250468 21.8957853 C321.19347476 21.89140398 315.38444576 21.88603674 309.57541656 21.88079643 C290.2680038 21.86378235 270.96059161 21.84928805 251.65317249 21.84204769 C246.64107258 21.84013775 241.62897268 21.83821742 236.61687279 21.83626175 C235.37111542 21.83577801 234.12535806 21.83529427 232.84185047 21.83479587 C212.66027287 21.82649515 192.47875454 21.80115831 172.29720282 21.76868107 C151.58393106 21.73561958 130.87068942 21.71759972 110.15739113 21.71440345 C98.52497088 21.71223742 86.89263702 21.70347526 75.26024246 21.67794228 C65.35354733 21.65624767 55.44695957 21.64817875 45.54024338 21.65790906 C40.48585965 21.66245743 35.43169754 21.66053619 30.37734413 21.64114761 C25.74767265 21.62354159 21.11838487 21.62449294 16.48870946 21.64004491 C14.81635306 21.64242487 13.14397026 21.63807726 11.47165423 21.62621626 C-2.12520283 21.53577502 -12.80061065 23.3446979 -22.11725807 34.13142776 Z " fill="#000000" transform="translate(50.117258071899414,63.86857223510742)"/>
<path d="M0 0 C0.97792511 -0.0049649 1.95585022 -0.00992981 2.96340942 -0.01504517 C6.19485177 -0.02963457 9.42624498 -0.03646439 12.65771484 -0.04199219 C14.91108196 -0.04774746 17.16444906 -0.05350514 19.41781616 -0.05926514 C24.1437808 -0.06976678 28.86972847 -0.07561454 33.59570312 -0.07910156 C39.63117539 -0.08457637 45.66642094 -0.10858646 51.70182228 -0.13707352 C56.35859822 -0.15576368 61.01532032 -0.16090895 65.67213058 -0.16243744 C67.89592093 -0.16545144 70.1197106 -0.17343731 72.3434639 -0.18662262 C75.46612668 -0.20381222 78.5882457 -0.20177111 81.7109375 -0.1953125 C82.61730957 -0.20452728 83.52368164 -0.21374207 84.45751953 -0.22323608 C99.00851314 -0.12967525 112.50135001 5.64291501 122.98974609 15.67675781 C134.72449982 28.61142569 137.47602656 42.21438477 137.59375 58.99633789 C137.61033573 60.72954715 137.6376604 62.46268728 137.67578125 64.19555664 C137.73060738 66.70397129 137.75242626 69.21079321 137.76708984 71.71972656 C137.78975922 72.49070175 137.81242859 73.26167694 137.83578491 74.05601501 C137.81981333 78.13280337 137.4399025 79.9194518 134.8359375 83.1262207 C131.18746229 85.99022907 128.97009273 86.50588795 124.27880859 86.44628906 C121.05329612 85.99434586 119.43465037 84.48101308 117.24365234 82.16113281 C114.9840287 78.65898864 114.97808763 75.63860838 114.93505859 71.52441406 C114.90992188 70.22439453 114.88478516 68.924375 114.85888672 67.58496094 C114.83031564 65.5359018 114.80627499 63.48691521 114.78735352 61.43774414 C114.6623402 50.08900759 113.82660347 41.20905502 106.47802734 32.24316406 C98.70249942 24.99778577 89.55845896 23.01657406 79.33520508 22.98413086 C77.9855793 22.97427406 77.9855793 22.97427406 76.60868835 22.96421814 C73.63154003 22.94451284 70.65444217 22.93282646 67.67724609 22.92285156 C66.14775172 22.91673827 66.14775172 22.91673827 64.58735847 22.91050148 C59.18657764 22.88964897 53.78582213 22.8753457 48.38500977 22.8659668 C42.82585263 22.85492567 37.26709832 22.82054975 31.70808315 22.7807951 C27.41760043 22.75455548 23.12721246 22.74626827 18.83665657 22.74268532 C16.78868971 22.73783555 14.74072662 22.7262679 12.69283867 22.70764732 C-0.57449699 22.59454571 -12.24615756 22.68281218 -23.03759766 31.46191406 C-28.64778035 37.00834468 -31.43031661 43.75223309 -32.01171875 51.61450195 C-32.01768066 52.7964917 -32.02364258 53.97848145 -32.02978516 55.19628906 C-32.05041016 56.50017578 -32.07103516 57.8040625 -32.09228516 59.14746094 C-32.11489284 61.19026177 -32.13137359 63.23271438 -32.13720703 65.27563477 C-32.14677432 67.2701752 -32.18176171 69.26454204 -32.21728516 71.25878906 C-32.22961182 73.03008179 -32.22961182 73.03008179 -32.2421875 74.8371582 C-32.86314159 78.8515409 -34.23559886 81.00862527 -36.75634766 84.16113281 C-40.45809505 86.62896441 -43.46128241 86.84186013 -47.75634766 86.16113281 C-53.25634766 83.16113281 -53.25634766 83.16113281 -54.75634766 80.16113281 C-54.89200268 77.5299867 -54.96908525 74.92670102 -54.99462891 72.29394531 C-55.00270065 71.50398163 -55.0107724 70.71401794 -55.01908875 69.90011597 C-55.03294007 68.22054236 -55.04365752 66.54094048 -55.05151367 64.86132812 C-55.06294972 63.16234961 -55.08326611 61.46340459 -55.11303711 59.76464844 C-55.42594239 41.90632236 -51.59353267 27.77257409 -39.15478516 14.33300781 C-32.25461359 8.08464398 -23.84075938 3.3080348 -14.75634766 1.16113281 C-13.75880966 0.90399506 -13.75880966 0.90399506 -12.74111938 0.6416626 C-8.49005913 -0.04273181 -4.29938728 0.00523246 0 0 Z " fill="#000000" transform="translate(118.75634765625,276.8388671875)"/>
<path d="M0 0 C11.46565618 9.80296283 18.52299304 21.92021309 20.3359375 36.9609375 C21.42480806 51.02073988 17.84911098 64.38709897 9.26171875 75.69140625 C0.49889908 85.79999927 -10.03610349 94.03355473 -23.6640625 95.9609375 C-41.82868116 97.1862942 -55.82963249 94.48835809 -70.2890625 82.84765625 C-79.61390418 74.38991113 -86.73760365 61.68967654 -87.6640625 48.9609375 C-87.74398437 47.98125 -87.82390625 47.0015625 -87.90625 45.9921875 C-88.55444687 30.28294566 -83.22236535 15.77932127 -72.6015625 4.2109375 C-52.46979999 -14.61979274 -22.04883507 -16.87608784 0 0 Z M-58.4140625 22.7734375 C-64.61098956 31.5524175 -65.80090894 39.19019653 -64.6640625 49.9609375 C-62.60172995 58.34450237 -56.73511462 65.17116728 -49.6015625 69.8359375 C-41.75969313 74.27219503 -33.80122009 75.43350261 -24.9453125 73.30859375 C-16.33321857 70.21196121 -9.0295837 64.06591678 -4.6640625 55.9609375 C-1.57354124 48.19079717 -1.2448222 39.60719566 -3.69140625 31.59765625 C-7.44375139 23.41733595 -13.12495025 16.8158418 -21.4140625 13.0234375 C-35.95991771 8.26806176 -47.90039029 12.02081819 -58.4140625 22.7734375 Z " fill="#000000" transform="translate(193.6640625,160.0390625)"/>
<path d="M0 0 C1.13977798 -0.00852997 2.27955597 -0.01705994 3.45387268 -0.02584839 C5.33110519 -0.02448883 5.33110519 -0.02448883 7.2462616 -0.02310181 C8.56354752 -0.02981903 9.88083344 -0.03653625 11.23803711 -0.04345703 C14.85386802 -0.06113911 18.46960429 -0.0658134 22.08547425 -0.0670886 C25.10474323 -0.06898756 28.12399015 -0.07634525 31.14325064 -0.08343279 C38.2684193 -0.09972355 45.3935374 -0.10460121 52.51872253 -0.10317993 C59.86521407 -0.10197902 67.21141158 -0.12306903 74.55782872 -0.15466726 C80.86707433 -0.180836 87.17622396 -0.19154695 93.4855234 -0.19026911 C97.25285242 -0.18975955 101.0199203 -0.19543888 104.78719521 -0.21662521 C108.33234837 -0.23601738 111.87699166 -0.23612594 115.42216301 -0.22159195 C117.33899789 -0.21851014 119.25583285 -0.2351745 121.17259216 -0.25247192 C127.52476501 -0.2060632 131.76331877 -0.17210872 136.51652527 4.26742554 C138.37379143 7.98195785 138.10153616 12.22321979 137.51652527 16.26742554 C135.32629609 19.09166842 133.6863532 20.68251157 130.51652527 22.26742554 C128.72876861 22.36926989 126.93721462 22.40690254 125.14657593 22.41459656 C123.43680321 22.42532951 123.43680321 22.42532951 121.69248962 22.4362793 C120.43583496 22.4389682 119.1791803 22.4416571 117.88444519 22.44442749 C115.90632591 22.45428429 115.90632591 22.45428429 113.88824463 22.46434021 C110.26418207 22.4817553 106.6401327 22.49230333 103.01603866 22.50054574 C100.75226026 22.50569481 98.48848597 22.51177058 96.22471046 22.51805687 C89.14311757 22.53711036 82.06153512 22.55134117 74.97992152 22.55966884 C66.8030662 22.56944298 58.62648147 22.5957662 50.44972152 22.63616973 C44.13118165 22.6663208 37.81271939 22.68113674 31.49410897 22.68444985 C27.71951412 22.6868015 23.94520828 22.69577635 20.17069054 22.72091103 C16.6190104 22.7441795 13.06780981 22.74843031 9.51607323 22.73814964 C7.59305597 22.73741766 5.67006313 22.75651763 3.74714661 22.7762146 C2.02468468 22.76579887 2.02468468 22.76579887 0.26742554 22.75517273 C-0.72827863 22.75756108 -1.72398279 22.75994944 -2.74985981 22.76241016 C-6.86321457 22.01759152 -9.4269897 19.77668986 -11.79597473 16.39242554 C-12.74732745 13.45188076 -12.85330616 11.34935415 -12.48347473 8.26742554 C-9.21513115 2.40694739 -6.74323743 0.02277541 0 0 Z " fill="#000000" transform="translate(310.4834747314453,340.7325744628906)"/>
<path d="M0 0 C1.35222308 -0.005141 2.70443947 -0.01242365 4.05664062 -0.02168274 C7.7221055 -0.04018272 11.38684213 -0.02726786 15.05227661 -0.00759244 C18.89097931 0.00880739 22.72963638 -0.00002068 26.56835938 -0.00511169 C33.01444109 -0.00963119 39.46023249 0.00622799 45.90625 0.03417969 C53.35508919 0.06623117 60.80340482 0.06621553 68.25228119 0.04896492 C75.42256728 0.03309222 82.59266172 0.03983809 89.76293945 0.05690193 C92.81230786 0.06376833 95.86152245 0.06274427 98.91088867 0.05535698 C102.50291755 0.04768656 106.09435177 0.05984392 109.6862793 0.08720589 C111.63067259 0.0973595 113.57513734 0.087915 115.51953125 0.07788086 C116.68033203 0.09060532 117.84113281 0.10332977 119.03710938 0.11643982 C120.54694397 0.1206502 120.54694397 0.1206502 122.08728027 0.12494564 C125.59475148 0.76900647 127.28611893 2.19760077 129.84375 4.63110352 C131.70230282 8.34820915 131.42283439 12.58387633 130.84375 16.63110352 C128.31698961 19.97735376 126.80441458 21.31088199 122.84375 22.63110352 C121.04327755 22.72993802 119.23936888 22.77039221 117.436203 22.77827454 C116.31325333 22.78542984 115.19030365 22.79258514 114.0333252 22.79995728 C112.80053833 22.80264618 111.56775146 22.80533508 110.29760742 22.80810547 C108.99982864 22.81467667 107.70204987 22.82124786 106.36494446 22.82801819 C102.0597151 22.84904067 97.75448545 22.85941828 93.44921875 22.86938477 C91.96626581 22.87343288 90.48331305 22.87754982 89.00036049 22.88173485 C82.03356525 22.90078187 75.06678058 22.9150144 68.09996432 22.92334682 C60.06122819 22.93312041 52.02276732 22.9594449 43.98412818 22.99984771 C37.76831174 23.03001564 31.55257418 23.04481629 25.33668596 23.04812783 C21.62522909 23.0504774 17.91406647 23.0594254 14.20268822 23.084589 C10.06097476 23.11221726 5.91987593 23.10803657 1.77807617 23.10107422 C-0.06199509 23.12028931 -0.06199509 23.12028931 -1.9392395 23.13989258 C-8.28042036 23.10097474 -12.38954377 23.0130297 -17.15625 18.63110352 C-19.16167966 15.76214607 -19.42265265 13.64409133 -19.09375 10.19360352 C-19.04089844 9.45239258 -18.98804688 8.71118164 -18.93359375 7.94750977 C-15.86379905 -1.20016993 -8.26037942 -0.07637535 0 0 Z " fill="#000000" transform="translate(317.15625,255.368896484375)"/>
<path d="M0 0 C1.1257695 -0.00708481 2.251539 -0.01416962 3.41142273 -0.02146912 C5.25756668 -0.01775299 5.25756668 -0.01775299 7.14100647 -0.01396179 C8.44053757 -0.01907272 9.74006866 -0.02418365 11.07897949 -0.02944946 C14.64097684 -0.04283644 18.20286806 -0.04341849 21.76488566 -0.04088616 C24.73956168 -0.03981625 27.71421624 -0.04470032 30.68888766 -0.04949158 C37.70712328 -0.06058571 44.72530538 -0.06102471 51.74354553 -0.05497742 C58.98153575 -0.04893664 66.21933162 -0.06125139 73.45728868 -0.08254749 C79.67396913 -0.10016551 85.89058774 -0.10616454 92.10729223 -0.10290974 C95.81919073 -0.10109707 99.53095059 -0.1037314 103.24282646 -0.11762428 C107.38219184 -0.13253757 111.5211618 -0.12323079 115.66053772 -0.11161804 C116.88927612 -0.11926178 118.11801453 -0.12690552 119.38398743 -0.13478088 C120.51257675 -0.12776657 121.64116608 -0.12075226 122.80395508 -0.11352539 C123.78231292 -0.11369313 124.76067076 -0.11386087 125.7686758 -0.1140337 C129.65380934 0.42582094 132.20226634 2.28219779 135.25062561 4.64350891 C137.37938504 7.47729156 136.92352623 10.39456706 136.82875061 13.81147766 C136.3238995 17.21515125 134.97865428 18.9692631 132.46546936 21.26069641 C129.85862325 22.56411947 127.94006633 22.3984731 125.01959229 22.41459656 C123.8629155 22.42319702 122.70623871 22.43179749 121.51451111 22.44065857 C120.23915497 22.44491852 118.96379883 22.44917847 117.64979553 22.4535675 C116.29802235 22.46146797 114.94625127 22.46973688 113.59448242 22.47834778 C109.14915483 22.50457367 104.70381778 22.51987562 100.25843811 22.53413391 C98.72872219 22.53949329 97.19900634 22.5448708 95.66929054 22.55026627 C89.30665879 22.57189552 82.94402958 22.59063269 76.58137035 22.60188866 C67.4597128 22.61813108 58.33848101 22.65131493 49.21698397 22.7082895 C42.80502888 22.74697578 36.39318773 22.76651974 29.98111898 22.77180922 C26.15056139 22.77546445 22.32045783 22.78750298 18.49002647 22.81991196 C14.88574749 22.84997027 11.28219776 22.8563131 7.67782021 22.8445282 C5.72614853 22.844202 3.77452201 22.86868263 1.82301331 22.89390564 C-7.71767683 22.82578996 -7.71767683 22.82578996 -10.80679321 19.86460876 C-13.37124681 15.99966244 -13.9554128 12.85802463 -13.53453064 8.26069641 C-10.35326868 1.78034797 -7.01468031 0.01472445 0 0 Z " fill="#000000" transform="translate(311.53453063964844,169.7393035888672)"/>
</svg>
