<svg xmlns="http://www.w3.org/2000/svg" width="512" height="512"><path d="m99.401-.134 3.42-.014h3.773l3.995-.01q5.502-.014 11.005-.017 5.93-.007 11.859-.022c9.552-.02 19.103-.03 28.655-.039l13.494-.015a68638 68638 0 0 1 56.503-.044l2.923-.002c15.623-.008 31.245-.033 46.868-.066q24.06-.049 48.118-.054c9.006-.002 18.011-.01 27.017-.036q11.504-.034 23.012-.02c3.912.004 7.824.002 11.736-.017q5.378-.026 10.757-.001a531 531 0 0 0 5.707-.03c11.42.085 19.268 3.127 27.554 11.01 5.274 6.012 8.353 13.09 8.3 21.098l-.01 2.777-.024 3.026-.028 6.576-.02 3.525c-.026 6.179-.016 12.357-.011 18.536.006 7.854.001 15.708-.055 23.561-.045 6.353-.045 12.705-.016 19.058q.005 3.614-.04 7.228C443.718 131.165 445.082 141.44 454 154c9.462 17.126 15.654 35.888 19.875 54.938l.58 2.61c3.025 14.646 3.928 29.224 3.858 44.14l-.007 2.515c-.055 13.133-.637 25.9-3.306 38.797l-.618 3.022c-4.705 22.36-11.776 49.004-25.607 67.627-4.12 5.708-4.475 10.367-4.37 17.274l-.013 3.23q-.008 3.458.016 6.913c.026 3.655.021 7.308.009 10.962-.021 7.762-.002 15.523.02 23.285.022 8.987.026 17.975 0 26.963-.003 3.586.018 7.173.04 10.76q-.003 3.326-.01 6.653l.039 2.987c-.078 10.869-3.475 19.33-10.99 27.156-5.996 5.167-13 8.288-20.917 8.302l-3.42.014h-3.773l-3.995.01q-5.502.014-11.005.017-5.93.007-11.859.022c-9.552.02-19.103.03-28.655.039l-13.494.015a68638 68638 0 0 1-59.426.046c-15.623.008-31.245.033-46.868.066q-24.06.049-48.118.054c-9.006.002-18.011.01-27.017.036q-11.504.034-23.012.02a1916 1916 0 0 0-11.736.017q-5.379.026-10.757.001a531 531 0 0 0-5.707.03c-11.42-.085-19.268-3.127-27.554-11.01-5.274-6.012-8.353-13.09-8.3-21.098l.01-2.777c.007-.999.016-1.997.025-3.026l.027-6.576.02-3.525c.026-6.179.016-12.357.011-18.536-.006-7.854-.001-15.708.055-23.561.045-6.353.045-12.705.016-19.058q-.005-3.614.04-7.228C68.282 380.835 66.918 370.56 58 358c-17.049-30.858-24.462-66.302-24.375-101.312l.003-2.643C33.76 213.53 44.305 172.042 67 138c.299-2.126.299-2.126.252-4.5l.016-2.795-.013-3.06.011-3.229q.01-3.477.008-6.954.001-5.511.03-11.024.068-15.675.077-31.349c.005-6.39.03-12.78.065-19.17q.015-3.645.007-7.29c-.007-3.414.01-6.826.033-10.238l-.025-3.011c.127-10.89 3.488-19.365 11.023-27.212 5.996-5.167 13-8.288 20.917-8.302M88.688 24.563c-2.995 4.325-2.826 8.244-2.802 13.305v2.425c0 2.646.009 5.292.016 7.937l.005 5.503q.006 7.242.024 14.485.014 7.39.02 14.78Q85.967 97.499 86 112a758 758 0 0 0 8.715-8.82C103.335 94.36 112.053 86.284 122 79l3.418-2.574C133.852 70.15 142.676 64.844 152 60l2.37-1.235c31.711-16.297 65.75-24.234 101.318-24.077l2.67.006c13.107.051 25.794.517 38.642 3.306l2.918.602C334.848 45.916 367.328 60.298 395 83l1.726 1.414C405.301 91.492 413.246 99.04 421 107q2.498 2.502 5 5 .106-15.882.155-31.764c.016-4.916.037-9.833.071-14.75.033-4.745.05-9.491.059-14.238q.008-2.714.032-5.428c.022-2.537.025-5.074.024-7.612l.032-2.258c-.032-5.418-1.16-9.58-4.908-13.595-4.292-3.282-6.303-4.48-11.66-4.49l-3.358-.013h-3.72l-3.927-.01q-5.415-.014-10.829-.017-5.832-.007-11.665-.022c-9.396-.02-18.793-.03-28.189-.039l-13.267-.015a66297 66297 0 0 0-58.41-.046c-15.366-.008-30.733-.033-46.1-.066a24988 24988 0 0 0-47.304-.054c-8.857-.002-17.714-.011-26.57-.036q-11.313-.034-22.626-.02c-3.849.004-7.697.002-11.546-.017a1535 1535 0 0 0-12.513.002l-3.693-.033c-8.13.062-11.875.96-17.4 7.084M112 111l-2.36 2.2C94.918 127.321 83.439 145.026 74 163l-1.043 1.982c-14.547 28.12-21.419 59.355-21.332 90.893l.002 2.284C51.697 279.841 55.203 300.41 62 321l.678 2.096C70.517 346.904 83.502 369.176 100 388l2.133 2.465C116.337 406.578 131.86 419.547 150 431l3.215 2.05C176.202 446.956 202.593 454.913 229 459l2.016.315c51.3 6.826 106.358-8.058 147.473-39.376 7.18-5.61 13.925-11.649 20.511-17.939l2.805-2.645c7.153-6.92 13.325-14.343 19.195-22.355l1.26-1.716c12.586-17.39 21.956-36.968 28.74-57.284l.752-2.241c16.492-50.492 9.534-105.89-13.627-153.009-9.449-18.602-21.758-34.707-36.125-49.75l-2.645-2.805c-33.785-34.923-84.362-57.384-132.94-58.433C207.287 50.859 154.97 70.055 112 111M86 400q-.106 15.882-.155 31.764-.022 7.374-.071 14.75c-.033 4.745-.05 9.491-.059 14.238a920 920 0 0 1-.032 5.428 832 832 0 0 0-.024 7.612l-.032 2.258c.032 5.418 1.16 9.58 4.908 13.595 4.292 3.282 6.303 4.48 11.66 4.49l3.358.013h3.72l3.927.01q5.415.014 10.829.017 5.832.007 11.665.022c9.396.02 18.793.03 28.189.039l13.267.015a66297 66297 0 0 0 58.41.046c15.366.008 30.733.033 46.1.066q23.652.049 47.304.054c8.857.002 17.714.011 26.57.036q11.313.034 22.626.02c3.849-.004 7.697-.002 11.546.017 4.172.021 8.342.011 12.513-.002l3.693.033c6.328-.049 10.318-.19 15.088-4.521 4.68-5.185 5.146-9.097 5.114-15.868v-2.425c0-2.646-.009-5.292-.016-7.937l-.005-5.503q-.006-7.242-.024-14.485-.014-7.39-.02-14.78-.016-14.501-.049-29.002c-2.88 2.878-5.754 5.761-8.602 8.672-7.46 7.583-14.901 14.893-23.398 21.328l-1.649 1.274c-39.16 30.204-86.665 46.256-136.038 46.039l-2.672-.007c-13.104-.051-25.796-.51-38.641-3.306l-2.966-.618C177.288 466.029 144.556 451.607 117 429l-1.726-1.414C106.699 420.508 98.754 412.96 91 405a4005 4005 0 0 0-5-5"/><path d="m111.132 246.492 3.915-.019c3.56-.016 7.122-.008 10.683.004 3.85.01 7.7-.005 11.55-.016a5674 5674 0 0 1 22.597-.002q9.186.013 18.372.006l2.645-.002 5.32-.004c16.613-.011 33.226.002 49.84.023q21.365.025 42.731-.003a24401 24401 0 0 1 54.966-.014l2.634.002q9.171.003 18.341-.012a5129 5129 0 0 1 22.364.013c3.8.01 7.601.015 11.402.001 4.126-.014 8.25.003 12.376.023l3.617-.027c8.954.084 16.458 1.665 23.39 7.597 5.237 5.77 7.448 13.004 7.279 20.718-.292 4.209-1.01 8.325-1.779 12.47l-.538 2.9c-3.036 15.654-7.841 30.525-14.837 44.85l-1.027 2.113c-19.983 40.559-56.298 73.204-99.039 88.3-49.98 16.734-100.565 12.654-147.664-10.683-6.136-3.123-11.76-6.585-17.27-10.73l-3.18-2.328c-7.734-5.743-14.845-12.038-21.82-18.672l-1.918-1.758C119.992 375.485 114.994 368.7 110 362l-1.278-1.702C96.177 343.344 87.269 323.368 82 303l-.608-2.299C73.625 270.747 73.625 270.747 81 258c7.314-10.332 18.298-11.596 30.132-11.508M96 269c-2.117 5.698-.193 11.861 1 17.625l.695 3.366c9.008 41.767 34.3 78.43 70.027 101.883C191.254 406.848 218.904 417.11 247 418l1.905.062c46.683 1.302 87.314-16.198 121.52-47.265 23.868-22.892 38.652-53.995 45.012-86.11l.535-2.659c.833-4.538 1.565-8.562.028-13.028-2.216-2.648-4.053-3.86-7.491-4.368-3.288-.15-6.554-.165-9.845-.14l-3.839-.019a1273 1273 0 0 0-10.54.004c-3.79.01-7.58-.005-11.37-.016a5512 5512 0 0 0-22.272-.002q-9.05.013-18.1.006l-2.6-.002-5.23-.004c-16.353-.011-32.706.002-49.059.023q-21.053.025-42.105-.003a23644 23644 0 0 0-54.093-.014l-2.59.002q-9.04.003-18.08-.012-11.014-.017-22.029.013c-3.747.01-7.494.015-11.242.001-4.06-.014-8.119.003-12.179.023l-3.6-.027C101.98 264.42 101.98 264.42 96 269m40.225-133.131 2.625-.012 2.885.003 3.064-.01q5.106-.01 10.212-.011l7.302-.015q9.936-.019 19.872-.024l12.407-.012q17.175-.019 34.35-.026h4.446l4.466-.002h2.237q17.948-.009 35.896-.046 18.426-.035 36.85-.037 10.346.001 20.692-.025 9.73-.024 19.46-.01 3.574.002 7.147-.013c3.25-.013 6.498-.007 9.748.004l2.865-.025c6.054.046 10.492.847 15.114 5.11l1.45 1.782 1.488 1.781c2.015 2.889 2.33 5.465 2.376 8.88l.039 2.53.047 5.549q.02 2.96.032 5.918c.017 3 .061 6 .105 9q.015 2.88.026 5.76l.053 2.697c-.02 5.964-.869 10.54-4.479 15.385-5.692 5.01-11.042 5.722-18.4 5.635l-3.096.024c-3.412.02-6.823.004-10.234-.012q-3.678.01-7.354.027c-5.959.02-11.917.017-17.876.002q-7.266-.015-14.533-.007l-2.092.002-4.209.005c-13.142.015-26.285-.002-39.427-.029a8392 8392 0 0 0-33.803.005 12216 12216 0 0 1-43.483.017l-2.083-.002c-4.837-.005-9.673.003-14.51.014-6.514.016-13.027.005-19.541-.024q-3.585-.01-7.17.006c-3.263.014-6.526-.003-9.79-.028l-2.86.034c-6.28-.093-10.763-1.463-15.539-5.669-4.18-5.626-4.583-11.142-4.496-17.977l-.005-2.814q.003-2.927.034-5.855c.03-2.978.021-5.954.008-8.932q.01-2.856.025-5.711l-.008-2.68c.09-5.947.98-10.361 5.16-14.894l1.782-1.45 1.781-1.488c2.924-2.04 5.49-2.325 8.944-2.33M137 154v33h33v-33zm51 0v33h33v-33zm51 0v33h34v-33zm52 0v33h33v-33zm51 0v33h33v-33z"/><path d="M270 282c2.204 1.99 2.835 3.563 3.875 6.313.302 6.502-4.47 12.421-7.98 17.59a2271 2271 0 0 1-6.082 9.035l-3.14 4.673q-3.827 5.7-7.673 11.389l3.134.044c3.848.058 7.697.136 11.545.218q2.495.051 4.99.084c2.396.034 4.791.086 7.186.142l2.242.02c4.45.125 7.363.744 10.903 3.492 1.604 2.697 2.017 4.42 1.926 7.55-1.37 5.101-4.194 8.99-7.121 13.345l-1.896 2.869a1512 1512 0 0 1-3.99 5.993 1900 1900 0 0 0-6.044 9.104l-3.883 5.846-1.803 2.719c-11.962 17.852-11.962 17.852-16.502 19.324-3.885.361-6.306-.764-9.437-3-1.912-2.676-2.188-4.45-2.25-7.75 2.204-5.759 5.765-10.92 9.203-16l1.463-2.185c1.523-2.275 3.054-4.545 4.584-6.815l3.125-4.66A5783 5783 0 0 1 264 350l-3.425.063c-4.197.073-8.393.119-12.59.157q-2.724.03-5.448.082a662 662 0 0 1-7.834.089l-2.456.062c-3.457.002-5.783-.156-8.728-2.04-2.082-3.307-2.524-5.495-2.519-9.413 1.24-2.67 2.419-4.747 4.07-7.133l1.358-2.06a476 476 0 0 1 2.975-4.445 628 628 0 0 0 4.893-7.373c2.898-4.41 5.829-8.797 8.774-13.176 1.832-2.728 3.65-5.464 5.47-8.2q1.755-2.616 3.515-5.23l1.632-2.468 1.54-2.27 1.334-1.994c3.791-4.351 8.244-4.176 13.439-2.651"/></svg>