<svg xmlns="http://www.w3.org/2000/svg" width="5164" height="1795"><path fill="#fd9904" d="m3606.82 624.797 2.464-.022c40.238-.27 75.935 6.096 111.716 25.225l1.834.968c21.773 11.57 40.928 28.788 56.166 48.032l2.441 2.996c6.946 8.706 11.763 17.15 17.559 27.004l1-91h86a380162 380162 0 0 1 .11 181.28l.001 3.853q.016 30.84.043 61.678.028 31.668.034 63.336.004 19.524.028 39.049.015 13.407.011 26.815-.004 7.724.011 15.446c.079 39.157.079 39.157-2.238 56.543q-.341 3.006-.676 6.012c-1.48 11.335-3.884 22.094-7.324 32.988l-.782 2.515c-11.679 37.3-30.378 68.12-57.218 96.485l-1.934 2.063c-12.645 13.1-28.388 23.802-44.135 32.827-2 1.15-3.987 2.32-5.974 3.493-7.081 4.132-14.03 7.721-21.797 10.449-2.47.913-4.754 1.908-7.129 3.027-6.319 2.839-12.947 4.674-19.593 6.579-.677.195-1.353.39-2.05.593a383 383 0 0 1-35.872 8.487q-2.438.466-4.864.996c-7.568 1.642-15.196 2.424-22.902 3.111l-2.21.197c-35.806 3.097-72.403 2.154-107.54-5.822l-2.953-.652c-42.465-9.443-82.61-25.273-117.047-52.348l-1.983-.835c-2.794-1.418-4.191-2.588-6.017-5.165-1.177-6.456-.93-12.859-.781-19.398q.022-2.88.034-5.76c.03-5.04.11-10.08.198-15.12.082-5.148.118-10.296.158-15.445.086-10.093.223-20.185.391-30.277 3.846 1.45 6.184 2.863 9.125 5.75 11.963 11.054 25.626 20.4 39.875 28.25l2.481 1.381c29.397 16.24 60.455 26.859 93.519 32.619l2.793.5c31.033 5.285 66.249 5.189 97.207-.5l2.954-.504c28.182-4.872 57.036-14.601 79.046-33.496l2.547-2.133c33.706-29.205 51.068-73.617 54.255-117.495.938-17.742.41-35.615.198-53.372l-.84 1.452q-1.922 3.314-3.851 6.622l-1.32 2.284c-6.865 11.751-15.596 21.855-24.989 31.642l-1.396 1.462c-13.276 13.834-28.906 25.33-45.952 34.16-1.501.78-2.992 1.586-4.437 2.468-6.36 3.797-13.089 6.13-20.107 8.395a810 810 0 0 0-5.917 1.94c-54.778 18.042-117.57 12.12-169.191-13.425l-3.234-1.508c-15.338-7.315-29.664-16.688-42.766-27.492l-1.697-1.39c-12.636-10.403-24.335-21.586-34.303-34.61l-1.304-1.694A242.5 242.5 0 0 1 3418 988l-1.116-1.942c-18.184-31.842-28.888-69.862-29.087-106.597l-.022-2.653c-.23-37.05-.23-37.05 3.225-54.808l.602-3.129c11.445-57.54 42.771-113.677 90.743-148.66a304 304 0 0 0 4.893-3.676c33.813-25.409 77.078-41.49 119.582-41.738M3590 715l-3.488 1.02c-9.716 3.016-18.566 7.163-27.512 11.98l-1.873.997c-8.515 4.566-16.86 9.588-24.127 16.003v2l-1.788.807c-3.752 2.024-6.48 5.123-9.462 8.13l-2.033 2.046c-5.182 5.3-9.67 10.797-13.717 17.017l-1.75 2.594c-8.439 12.808-14.677 25.801-19.25 40.406l-1.152 3.566c-12.42 41.947-5.987 87.612 14.463 125.766 6.462 11.722 14.49 21.949 23.689 31.668l2.637 2.867c26.865 28.587 66.695 43.563 105.394 45.112 43.763.944 85.052-14.852 117.02-44.71 8.727-8.371 16.309-17.164 22.949-27.269l1.205-1.822c22.084-33.872 30.47-75.977 22.334-115.727-5.64-25.645-16.228-49.516-33.539-69.451l-2.11-2.441c-10.067-11.755-10.067-11.755-21.89-21.559h-2v-2a96 96 0 0 0-6.125-4.125l-1.907-1.202C3685.23 711.207 3636.949 700.689 3590 715M753.602 624.797l2.396-.022c59.246-.408 113.632 16.483 157.783 57.194 1.99 1.82 4.026 3.552 6.094 5.281 47.835 41.988 72.742 109.029 76.93 171.095C1000.029 919.02 986.502 982.37 950 1032l-1.22 1.667c-2.842 3.847-5.78 7.608-8.78 11.333l-1.268 1.584c-10.541 13.085-22.336 25.24-35.732 35.416l-1.686 1.295A244 244 0 0 1 873 1102l-1.926 1.116C851.15 1114.605 829.505 1121.602 807 1126l-2.756.54c-52.505 9.692-110.171-1.296-154.45-31.294-9.612-6.672-18.351-14.16-26.794-22.246l-1.528-1.445c-11.445-10.868-20.246-22.76-28.44-36.22A183 183 0 0 0 589 1029v249h-91V638h87l1 91 10-16c12.064-16.89 25.598-32.203 42-45l2.906-2.281A197 197 0 0 1 663 651c.625-.36 1.25-.722 1.893-1.094 26.595-15.186 57.917-24.924 88.709-25.11M640 753l-2.902 2.707c-30.483 29.008-48.257 72.62-49.301 114.402-.593 50.326 15.712 94.309 50.765 130.703C659.81 1021.15 686.335 1035.555 715 1042l2.291.53c39.656 8.791 81.626-.223 115.709-21.53 36.664-24.189 60.777-61.5 69.918-104.35 9.516-47.38 1.65-97.996-24.918-138.65-23.322-34.25-59.132-58.759-99.925-66.625C727.352 702.22 677.266 717.668 640 753m3758.75-128.25 2.636-.002c13.416.016 26.433.546 39.614 3.252l2.61.52c35.299 7.219 67.54 22.636 93.992 47.27a96 96 0 0 0 5.648 4.835c3.661 3.162 6.661 6.66 9.75 10.375l1.29 1.507c9.275 10.862 17.31 22.693 23.71 35.493l1-90h87v478h-87l-1-91-8 15c-1.87 2.963-3.707 5.799-5.75 8.625l-1.514 2.124c-4.3 5.907-9.067 11.271-14.142 16.517-2.587 2.648-2.587 2.648-4.68 5.355-1.868 2.322-3.797 4.235-6.039 6.191l-2.07 1.833C4534 1082 4534 1082 4532 1082v2c-1.51 1.325-1.51 1.325-3.621 2.828l-2.338 1.676-2.479 1.746-2.373 1.7A719 719 0 0 1 4514 1097l-2.314 1.617a96.6 96.6 0 0 1-14.998 8.446l-2.24 1.03c-8.873 4.057-17.825 7.747-27.01 11.032l-2.038.733c-50.383 17.688-112.596 12.002-160.442-10.275-12.238-5.935-23.97-12.557-34.958-20.583l-1.724-1.257c-6.589-4.85-12.864-9.986-18.881-15.536a251 251 0 0 0-4.883-4.383C4198.863 1027.855 4173.15 964.46 4168 905l-.336-3.785c-5.474-72.711 14.933-143.542 62.274-199.403 9.146-10.586 18.98-20.257 30.062-28.812l1.728-1.37c10.505-8.32 21.492-15.256 33.272-21.63l2.094-1.14c10.578-5.703 21.525-10.032 32.906-13.86l2.127-.723c21.627-7.217 43.952-9.511 66.623-9.527M4306 754l-2.11 1.914c-28.61 26.838-44.635 69.9-46.016 108.619a643 643 0 0 0-.124 12.217l-.002 2.204c.064 43.488 14.248 85.995 44.84 117.578a292 292 0 0 1 4.178 4.46c27.224 28.98 66.297 42.048 105.132 44.227 25.426.629 50.322-5.067 73.102-16.219l1.88-.897c14.64-7.046 27.41-16.887 39.12-28.103l2.254-2.098c31.725-30.4 45.761-73.74 47.934-116.601.84-44.415-14.615-89.256-45.489-121.54L4528 757l-2.605-2.793c-27.646-28.953-67.663-44.518-107.296-45.56-42.953-.352-81.228 15.982-112.099 45.353M2744.625 624.688l2.785.006c57.659.216 111.403 19.885 154.59 58.306l1.525 1.338c40.39 35.503 65.632 85.23 75.475 137.662l.548 2.918c4.192 23.634 4.392 50.219 1.452 74.082-1 1-1 1-3.6 1.124l-3.551-.001-1.979.004q-3.323.002-6.644-.007l-4.78.003q-6.597.002-13.196-.007-7.102-.005-14.206-.002-12.318 0-24.635-.008-17.81-.011-35.619-.012a153324 153324 0 0 1-57.782-.019q-28.073-.014-56.146-.02h-3.493l-17.348-.005q-72.01-.016-144.021-.05c.599 3.948 1.21 7.894 1.824 11.84l.507 3.345c5.818 37.128 25.143 73.249 55.669 95.815 9.795 7.12 19.973 13.003 31 18l1.858.843c27.33 12.164 58.013 15.39 87.642 15.344l2.26-.001c61.78-.136 122.98-20.994 169.522-62.202 2.79-2.45 5.358-4.419 8.718-5.984.186 11.483.328 22.966.414 34.45a1741 1741 0 0 0 .19 15.997 1198 1198 0 0 1 .155 15.445q.023 2.943.087 5.885c.325 15.37.325 15.37-2.561 19.936-2.025 1.805-3.886 3.043-6.285 4.287a185 185 0 0 0-3.379 2.477l-3.184 2.148c-3.395 2.302-6.778 4.602-10.062 7.063-9.542 6.799-20.642 11.386-31.224 16.31q-2.684 1.252-5.362 2.514c-11.05 5.136-22.38 9.178-34.102 12.488l-3.657 1.038c-10.708 2.979-21.481 5.395-32.4 7.462a674 674 0 0 0-9.168 1.822c-6.196 1.135-12.303 1.922-18.595 2.248l-2.327.124c-8.9.431-17.8.456-26.708.436q-4.245-.005-8.488.007c-17.221.01-33.949-.652-50.907-3.762l-2.19-.392c-12.774-2.295-25.237-5.367-37.647-9.185a390 390 0 0 0-5.311-1.588c-4.392-1.28-8.587-2.611-12.727-4.585-4.014-1.9-4.014-1.9-8.07-3.707-22.927-9.921-44.02-23.989-62.308-40.945a92 92 0 0 0-4.762-4.004c-2.142-1.741-3.841-3.427-5.61-5.532-1.953-2.296-3.916-4.546-5.992-6.734C2529.881 1016.04 2511.43 973 2504 929l-.492-2.682c-5.466-30.613-5.187-65.765.492-96.318l.472-2.743c7.008-40.002 24.274-78.482 49.528-110.257l2.133-2.715c35.46-44.292 84.535-74.06 140.055-85.535l2.187-.458c15.33-2.973 30.678-3.67 46.25-3.605m-47.875 90.187-2.259.792a518 518 0 0 0-4.444 1.59 381 381 0 0 1-5.578 1.962c-8.383 3.01-15.94 7.085-23.469 11.781l-3.246 2.023c-9.163 6.034-16.984 13.27-24.754 20.977l-2.305 2.266c-15.852 16.707-29.654 41.96-33.695 64.734l-1 5h293c-.712-10.943-.712-10.943-3.062-21.312l-.651-2.142c-8.75-27.302-28.075-50.266-51.287-66.546l-1.809-1.41c-5.798-4.497-12.62-7.403-19.191-10.59q-2.22-1.12-4.437-2.25c-6.976-3.426-13.755-5.795-21.25-7.812l-2.78-.776c-12.773-3.472-24.841-4.51-38.022-4.478-2.676.003-5.352-.02-8.029-.045-14.334-.054-28.163 1.304-41.732 6.236M2209 497h91v141h153v79h-153c.12 45.11.12 45.11.258 90.219l.06 18.277.007 2.314q.059 18.449.102 36.898.048 18.957.116 37.914.043 11.682.064 23.364.02 8.982.06 17.966.015 3.666.017 7.333c.027 26.71 1.278 54.041 20.875 74.5 14.489 13.145 33.39 17.63 52.48 17.363 27.048-1.356 51.645-13.361 73.148-29.21C2450 1012 2450 1012 2453 1012c.302 11.465.532 22.93.674 34.398.067 5.326.16 10.65.307 15.974a735 735 0 0 1 .252 15.425q.036 2.938.141 5.875c.515 14.918.515 14.918-2.621 18.92-3.492 3.05-7.449 4.728-11.753 6.408q-2.823 1.365-5.633 2.758a421 421 0 0 1-5.492 2.367l-2.972 1.274c-8.483 3.565-17.09 6.5-25.932 9.036a358 358 0 0 0-5.24 1.557c-10.373 3.047-20.688 3.171-31.443 3.138-2.086-.005-4.172 0-6.259.007-12.689.01-24.8-.69-37.154-3.762l-3.27-.805c-22.32-5.674-42.076-14.51-59.605-29.57l-1.57-1.333c-5.987-5.106-5.987-5.106-8.43-7.667v-2h-2c-31.733-35.09-36.182-81.06-36.114-126.213v-7.898q0-8.46.008-16.922.011-12.234.012-24.466.004-19.854.019-39.707.014-19.272.02-38.543v-2.405l.005-11.945q.016-49.45.05-98.901h-104v-79h104zm869 141h87l1 94 9-19c1.787-3.123 3.493-6.052 5.5-9l1.39-2.094c4.012-5.953 8.39-11.494 13.11-16.906l1.95-2.352c5.089-6.008 10.828-10.846 17.05-15.648l2.48-1.992c20.975-16.195 48.977-26.207 75.52-27.008l2.028-.062c22.9-.598 44.062 3.489 65.972 10.062v79c-13-3-13-3-18.187-4.5-33.572-9.103-68.477-5.513-98.93 11.39-4.279 2.523-8.302 5.394-12.309 8.325C3228 744 3228 744 3225 745v2c-1.434 1.375-1.434 1.375-3.437 3-22.942 19.635-36.562 48.414-44.563 77l-.666 2.358c-6.028 22.079-6.784 45.358-6.766 68.106l-.031 7.223c-.027 6.44-.037 12.88-.043 19.321-.007 6.078-.03 12.156-.053 18.234q-.063 18.022-.095 36.043-.03 17.475-.084 34.95l-.006 2.187-.034 10.866A82287 82287 0 0 0 3169 1116h-91zm-2000 0h87l1 95 10-21c2.88-4.828 5.725-9.462 9-14l1.236-1.72c10.472-14.352 22.71-26.771 37.764-36.28l1.866-1.183c33.74-20.993 74.704-25.544 113.007-16.628 7.142 1.715 14.154 3.487 21.127 5.811v79l-16-4a739 739 0 0 0-9.5-2.187l-2.18-.499c-18.25-4.068-38.184-3.91-56.32.686l-1.96.488c-17.162 4.437-33.315 12.288-47.04 23.512l-1.646 1.338c-28.658 23.756-44.759 60.507-51.542 96.412l-.47 2.447c-3.176 17.986-3.644 36.095-3.66 54.31l-.031 7.132q-.038 9.577-.056 19.155c-.014 6.018-.037 12.035-.06 18.053a30315 30315 0 0 0-.113 35.704q-.045 17.317-.105 34.636l-.007 2.165-.037 10.753c-.104 29.632-.191 59.263-.273 88.895h-91z"/><path fill="#fd9a04" d="M3990 638h91v478h-91zm44.75-197.312 2.383.017c16.197.334 28.65 6.742 39.867 18.295 10.258 11.54 14.76 25.848 13.938 41.188C4089.61 517 4081.69 530.126 4069 541c-13.09 9.882-28.101 11.493-44 10-13.282-2.376-25.848-9.78-33.977-20.64-9.16-13.956-12.94-27.66-10.593-44.43 3.034-14.05 9.962-26.343 21.57-34.93 10.237-6.517 20.56-10.405 32.75-10.312"/><path fill="#fc9a04" d="M1941 951c4.14.595 7.093 1.977 10.7 4.07l3.373 1.944 3.614 2.111 3.771 2.18q3.882 2.243 7.757 4.496c4.567 2.655 9.145 5.29 13.723 7.926q6.41 3.695 12.813 7.397 6.677 3.855 13.356 7.706A18988 18988 0 0 1 2045 1009c-.575 5.312-2.377 9.451-4.687 14.188l-1.107 2.297c-8.978 18.505-19.927 36.023-32.206 52.515-3.561-.67-6.22-2.144-9.324-3.984l-3.12-1.836-3.244-1.93q-3.16-1.869-6.324-3.734l-3.106-1.834c-3.163-1.846-6.358-3.625-9.565-5.39-4.793-2.672-9.518-5.46-14.255-8.23l-3.091-1.802a976 976 0 0 1-14.037-8.326c-4.3-2.591-8.685-4.991-13.1-7.376-4.907-2.698-9.71-5.57-14.522-8.433l-3.029-1.797A6008 6008 0 0 1 1903 1019c1.503-3.992 3.17-6.603 6-9.812 13.869-16.656 25.22-37.65 32-58.188m-346 92c2.702 1.273 5.016 2.66 7.363 4.504l1.915 1.481 2.034 1.578c7.58 5.77 15.387 10.777 23.688 15.437l1.806 1.03c10.364 5.88 21.158 10.503 32.194 14.97a317 317 0 0 1-12.437 23.125l-3.72 6.328-1.921 3.268a2469 2469 0 0 0-9.36 16.154l-1.87 3.246q-4.833 8.384-9.657 16.774c-11.31 19.658-11.31 19.658-16.348 28.168l-1.075 1.84c-2.378 3.98-2.378 3.98-4.612 5.097-3.808-1.436-7.43-3.285-11.086-5.069a603 603 0 0 0-5.629-2.693c-17.33-8.326-36.873-18.242-50.285-32.238 7.994-14.395 16.112-28.704 24.438-42.91 5.588-9.538 11.092-19.124 16.61-28.702q3.095-5.37 6.198-10.74l6.096-10.55 1.806-3.13 1.6-2.767A89 89 0 0 0 1595 1043m282 0c3.174 2.926 5.253 5.843 7.363 9.602l1.915 3.383 2.034 3.64 2.139 3.785q1.65 2.916 3.297 5.835c3.562 6.318 7.183 12.602 10.814 18.88l3.708 6.418 1.854 3.208q3.854 6.677 7.706 13.356A18988 18988 0 0 0 1938 1146c-4.16 4.554-8.82 7.748-14 11.063l-2.65 1.705c-12.384 7.895-25.127 15.21-38.225 21.857l-1.89.966c-4.017 1.987-7.917 3.294-12.235 4.409l-1.126-2.025c-9.34-16.782-9.34-16.782-18.984-33.39-5.053-8.523-9.982-17.119-14.925-25.706a3514 3514 0 0 0-7.056-12.204l-3.063-5.277q-1.914-3.3-3.835-6.595c-3.57-6.163-6.915-12.387-10.011-18.803l2.209-.943c23.695-10.17 44.589-21.917 64.791-38.057m-272-474 1.23 2.158c13.878 24.323 27.845 48.591 41.975 72.769q4.838 8.284 9.67 16.573l3.555 6.094L1664 671c-2.216 2.48-4.174 3.687-7.254 4.91l-2.561 1.044-2.747 1.109c-17.688 7.387-33.46 16.94-48.636 28.63l-2.17 1.666-1.964 1.53C1597 711 1597 711 1595 711l-20.658-35.808-3.711-6.431a25845 25845 0 0 1-13.194-22.886l-1.85-3.213a2060 2060 0 0 0-9.642-16.56l-1.974-3.36q-1.872-3.181-3.756-6.356l-1.68-2.855c-.49-.83-.982-1.659-1.488-2.513C1536 609 1536 609 1536 607c2.193-1.72 2.193-1.72 5.273-3.781l1.668-1.12a847 847 0 0 1 5.434-3.599l1.87-1.238c13.604-8.988 27.507-16.793 42.193-23.887l2.749-1.33 2.56-1.21 2.27-1.076C1602 569 1602 569 1605 569m-73.927 382.075c2.776 1.333 3.145 2.883 4.267 5.718l1.262 3.067 1.335 3.328c7.97 18.936 18.15 35.802 31.34 51.527C1571 1017 1571 1017 1571 1019l-35.808 20.658-6.431 3.711q-8.164 4.711-16.331 9.416l-3.287 1.895q-3.24 1.867-6.483 3.73a1171 1171 0 0 0-16.523 9.68l-3.345 1.988a888 888 0 0 0-6.318 3.795l-2.845 1.69-2.498 1.503C1469 1078 1469 1078 1466 1077a107 107 0 0 1-4.938-6.812c-.48-.713-.961-1.425-1.457-2.158-8.461-12.675-16.086-25.79-23.168-39.28-.5-.952-1-1.904-1.517-2.885-2.685-5.196-4.994-10.341-6.92-15.865a725 725 0 0 1 26.187-15.562l7.41-4.22 1.88-1.069c9.434-5.371 18.827-10.814 28.226-16.246q4.31-2.487 8.624-4.967l5.348-3.076q3.35-1.927 6.7-3.85l3.07-1.768 2.892-1.66c3.066-1.821 6.022-3.778 8.94-5.828 1.723-.754 1.723-.754 3.796-.679M1869 569c23.104 3.901 48.825 22.759 67 37l2 3-1.047 1.79a8107 8107 0 0 0-26.062 44.928q-4.693 8.142-9.391 16.282l-3.691 6.398L1879 711c-4.271-.861-6.855-3.133-10.125-5.875-8.116-6.579-16.834-11.92-25.875-17.125l-1.973-1.145c-9.938-5.713-20.277-9.915-31.027-13.855 1.41-4.863 3.57-8.955 6.188-13.25q1.36-2.274 2.718-4.55l1.5-2.511c2.973-5.016 5.873-10.073 8.782-15.126l1.93-3.351 3.926-6.817q5.647-9.798 11.301-19.592 4.404-7.632 8.8-15.268l4.165-7.23 2.944-5.12 1.797-3.119 1.583-2.751A115 115 0 0 1 1869 569m139 108c1.57 1.879 1.57 1.879 3.125 4.563 2.376 3.97 4.806 7.85 7.427 11.66 8.516 12.43 15.528 25.626 22.136 39.152l1.353 2.721 1.22 2.552 1.093 2.256c.8 2.593.835 3.646-.354 6.096-2.271 1.685-2.271 1.685-5.309 3.363l-3.412 1.915-3.716 2.034q-1.915 1.068-3.826 2.139a2635 2635 0 0 1-7.888 4.399c-5.695 3.172-11.334 6.443-16.974 9.712l-6.426 3.711L1990 777c-15.645 9.038-31.302 18.053-47 27-2.48-2.216-3.687-4.174-4.91-7.254l-1.044-2.561-1.109-2.747c-8.167-19.553-18.875-37.524-32.937-53.438 1.48-3.911 3.443-5.143 7.066-7.102l3.133-1.718 3.363-1.805q3.458-1.894 6.915-3.793l3.41-1.865a400 400 0 0 0 11.55-6.654c6.97-4.138 13.978-8.204 21-12.25l11.805-6.8q7.179-4.135 14.353-8.273l5.041-2.905 3.102-1.788 2.72-1.568q2.603-1.517 5.12-3.17C2004 677 2004 677 2008 677m-541 0c4.718.557 8.219 2.687 12.188 5.125q2.287 1.375 4.578 2.746l2.529 1.52c5.017 2.985 10.082 5.886 15.142 8.797l6.747 3.886 3.421 1.97q4.965 2.86 9.93 5.726a10782 10782 0 0 1 9.664 5.58 2379 2379 0 0 0 15.24 8.744 3930 3930 0 0 1 7.202 4.106q2.54 1.444 5.086 2.878l3.109 1.777 2.736 1.552c2.488 1.633 4.406 3.419 6.428 5.593l-1.836 2.316c-9.57 12.178-17.774 24.57-24.976 38.309l-1.635 3.104c-3.723 7.242-6.77 14.621-9.553 22.271-4.311 0-5.612-.633-9.262-2.71l-3.113-1.759-3.312-1.906-3.428-1.948a1479 1479 0 0 1-22.354-13.005c-5.63-3.332-11.3-6.593-16.968-9.86l-3.314-1.909-6.77-3.9a13252 13252 0 0 1-10.682-6.16l-1.783-1.028-8.475-4.892A3394 3394 0 0 0 1428 745c8.84-24.192 22.698-48.081 39-68"/><path fill="#fd9a04" d="M1776 543v120l-20-2c-5.567-.155-11.084-.29-16.646-.26-2.355.01-4.71 0-7.065-.013-11.661.019-22.562 1.1-34.289 2.273V543c27.316-1.951 50.684-1.951 78 0m175 295h120c2.326 27.917 2.326 27.917 2.25 39l.023 3.398c-.026 12-1.267 23.527-2.273 35.602h-120l2-18c1.61-20.253.017-39.833-2-60m-548 0h120l-3 30c-.532 16.168.996 31.97 3 48h-120c-1.228-12.276-2.329-23.918-2.26-36.163.01-2.272 0-4.544-.013-6.816.02-11.888 1.134-23.058 2.273-35.021m295 253 27 3c17.655.552 33.154-1.017 51-3v120c-20.749 2.305-20.749 2.305-28.312 2.266l-2.619.005q-2.691.003-5.382-.01c-2.685-.011-5.37 0-8.054.012q-2.66 0-5.32-.007l-2.332.012c-8.816-.071-17.066-1.287-25.981-2.278z"/><path fill="#dba80d" d="m4256 676 2 1-31 31c0-3.53.443-3.84 2.781-6.293l1.791-1.899 1.928-1.995 1.946-2.045A1042 1042 0 0 1 4241 690l2.465-2.555c3.99-4.06 8.162-7.801 12.535-11.445"/><path fill="#dba90d" d="m635 670 2 1-26 26-2-1c8.309-9.107 16.747-17.848 26-26"/><path fill="#dcac0e" d="M2585 684c0 3 0 3-2.203 5.544a290 290 0 0 1-3.047 2.999l-1.614 1.601c-1.705 1.689-3.42 3.366-5.136 5.043l-3.469 3.428A2367 2367 0 0 1 2561 711c0-3.602.569-3.979 2.965-6.512l1.914-2.037 2.059-2.139 2.064-2.173c4.778-4.987 9.664-9.744 14.998-14.139"/><path fill="#dcb00e" d="m3211 669 2 1-16 16-2-1c4.97-5.828 10.096-11.116 16-16"/></svg>