<?xml version="1.0" standalone="no"?>
<!DOCTYPE svg PUBLIC "-//W3C//DTD SVG 20010904//EN"
 "http://www.w3.org/TR/2001/REC-SVG-20010904/DTD/svg10.dtd">
<svg version="1.0" xmlns="http://www.w3.org/2000/svg"
 width="740.000000pt" height="493.000000pt" viewBox="0 0 740.000000 493.000000"
 preserveAspectRatio="xMidYMid meet">

<g transform="translate(0.000000,493.000000) scale(0.100000,-0.100000)"
fill="#000000" stroke="none">
<path d="M0 2465 l0 -2465 3700 0 3700 0 0 2465 0 2465 -3700 0 -3700 0 0
-2465z m2748 1608 c2 -11 -8 -42 -22 -68 -15 -26 -26 -57 -27 -69 0 -21 -1
-21 -9 -1 -15 34 -11 73 12 120 23 47 41 54 46 18z m-2007 -523 c23 -258 21
-341 -9 -373 -26 -29 -122 -201 -122 -219 0 -8 12 -25 26 -39 33 -31 126 -154
147 -196 15 -27 15 -45 6 -140 -14 -135 -13 -133 -43 -133 -26 0 -47 -29 -121
-162 l-37 -68 31 -76 c17 -42 31 -82 31 -88 0 -7 -29 -52 -66 -101 -73 -100
-74 -106 -25 -186 20 -33 30 -64 34 -116 7 -68 5 -78 -44 -215 -28 -79 -55
-165 -60 -193 -11 -58 -3 -245 13 -291 9 -24 8 -40 -2 -63 -7 -17 -16 -31 -21
-31 -5 0 -9 97 -9 216 0 213 0 217 35 357 48 195 52 234 27 283 -11 21 -23 54
-27 72 -7 33 -8 31 -37 -50 -59 -166 -99 -285 -128 -381 -36 -118 -32 -143 35
-284 29 -60 49 -117 56 -164 15 -96 -3 -114 -20 -19 -8 41 -29 101 -51 146
-22 42 -46 109 -56 150 -16 72 -15 76 4 127 54 136 137 432 148 526 6 53 3 62
-40 147 -79 153 -74 201 19 191 27 -3 56 -7 63 -9 8 -1 23 9 34 24 l21 27 -61
128 c-54 115 -60 132 -53 168 6 34 3 45 -18 74 -38 50 -33 84 25 171 28 41 63
97 79 123 l28 48 -35 37 c-19 20 -44 50 -56 65 -36 49 -112 310 -132 458 -11
80 -11 81 31 207 39 119 61 174 44 107 -4 -16 -9 -62 -10 -101 -2 -39 -10 -84
-18 -100 -8 -16 -18 -56 -21 -89 -8 -68 15 -167 77 -340 32 -87 43 -106 87
-147 28 -27 55 -48 59 -48 9 0 116 203 135 256 11 33 12 76 2 264 -8 157 -16
233 -26 250 -13 23 -50 204 -49 240 0 8 19 -37 41 -100 37 -108 41 -129 59
-340z m3540 8 c8 -101 14 -223 14 -273 0 -82 -2 -93 -26 -125 -15 -19 -41 -61
-58 -92 l-32 -57 65 -77 c36 -43 76 -99 90 -125 l26 -46 -15 -89 c-28 -162
-27 -159 -58 -160 -32 -1 -34 -4 -122 -140 l-64 -100 44 -108 c25 -60 45 -114
45 -121 0 -7 -24 -46 -54 -86 -85 -118 -83 -110 -43 -193 25 -49 37 -90 41
-133 5 -57 1 -75 -45 -205 -68 -192 -73 -223 -60 -360 5 -62 13 -129 16 -148
4 -26 0 -41 -15 -60 l-20 -25 -1 150 c-3 240 1 291 37 439 49 201 50 219 20
293 -30 73 -33 137 -8 174 77 115 82 125 82 161 0 37 -44 163 -60 173 -5 3
-19 -13 -31 -35 -15 -26 -28 -39 -38 -36 -44 12 -133 27 -138 23 -2 -3 21 -56
53 -117 68 -134 73 -178 30 -273 -14 -32 -26 -62 -26 -67 0 -6 20 -10 44 -10
48 0 58 -11 45 -47 -16 -43 -28 -223 -35 -525 -4 -170 -10 -308 -15 -308 -4 0
-18 17 -30 37 -20 32 -24 52 -25 148 -4 179 -24 354 -55 470 l-11 40 -13 -25
c-28 -55 -75 -204 -75 -240 0 -45 27 -122 75 -214 23 -44 35 -85 40 -130 11
-104 -4 -115 -25 -16 -10 49 -33 114 -54 155 -20 39 -44 105 -53 147 l-16 77
35 78 c19 43 43 101 53 130 18 51 18 53 -1 74 -20 22 -90 61 -134 74 -14 4
-49 16 -77 27 -62 23 -66 37 -32 115 16 37 20 64 17 118 -3 73 -14 100 -119
299 -26 49 -44 98 -47 126 -8 88 85 538 119 569 10 9 60 30 109 46 90 28 92
29 149 99 31 39 76 97 100 129 l42 58 -35 142 c-41 162 -60 288 -51 326 9 38
107 282 112 278 2 -2 -4 -23 -12 -47 -8 -23 -15 -65 -15 -92 0 -30 -10 -72
-26 -110 -39 -94 -36 -194 11 -334 34 -101 55 -146 55 -115 0 7 4 9 10 6 5 -3
7 0 5 8 -6 13 30 54 44 50 3 -1 5 5 3 14 -3 14 -1 14 14 -1 12 -13 19 -14 24
-5 5 8 10 5 15 -10 7 -24 24 -27 44 -8 11 10 13 10 7 0 -4 -7 -2 -13 3 -13 7
0 11 -34 11 -92 0 -85 -2 -94 -25 -118 l-25 -26 24 -23 24 -22 32 58 c78 143
79 148 69 343 -12 249 -15 284 -30 311 -12 22 -49 206 -48 239 1 8 20 -42 43
-112 40 -118 44 -141 57 -310z m-1853 94 c-20 -132 -3 -212 86 -407 55 -119
56 -122 82 -136 37 -19 53 4 63 91 5 41 9 63 10 48 l1 -28 20 20 c11 11 21 35
21 53 2 38 6 23 14 -57 6 -54 11 -62 58 -107 l52 -49 -17 -63 -16 -62 32 -40
c53 -65 56 -75 56 -207 0 -118 -1 -124 -22 -133 -23 -10 -49 -75 -117 -296
l-24 -77 23 -32 c23 -33 23 -33 89 -26 125 13 116 14 119 -20 4 -39 -20 -132
-103 -403 -41 -135 -63 -222 -59 -235 4 -12 31 -48 62 -80 l54 -60 -4 -80 c-4
-78 -72 -381 -90 -400 -4 -6 -8 74 -8 176 l0 187 -56 113 c-53 108 -56 116
-51 173 6 67 44 233 83 368 14 49 24 90 22 92 -2 3 -27 2 -54 -1 l-50 -6 9
-53 c8 -43 6 -75 -11 -162 -23 -113 -66 -371 -77 -460 -6 -50 -6 -52 22 -67
44 -22 53 -38 63 -113 5 -37 20 -102 35 -143 14 -41 24 -88 22 -105 -3 -27 -4
-26 -17 19 -11 40 -15 46 -21 30 -4 -10 -8 -16 -8 -13 -7 55 -25 116 -45 146
-14 21 -35 64 -47 96 -19 51 -25 57 -50 57 -15 0 -31 6 -36 13 -9 15 -6 127 8
230 9 67 8 82 -6 103 -19 29 -23 30 -52 2 -13 -12 -24 -20 -26 -17 -2 2 -17
24 -34 49 -65 96 -70 114 -83 295 -7 97 -17 173 -23 177 -8 5 -8 27 1 79 16
92 31 121 32 59 1 -67 19 -340 26 -383 5 -29 23 -56 83 -120 42 -45 89 -98
105 -117 l28 -34 -7 -134 c-5 -87 -4 -132 3 -128 12 7 17 32 48 241 14 94 28
224 31 291 l6 121 -76 115 c-101 154 -171 278 -203 358 l-26 67 10 177 c12
201 1 174 135 334 l70 83 -26 27 c-53 55 -166 368 -174 483 -4 42 2 110 13
180 l19 114 7 -70 c4 -39 2 -102 -4 -143z m1379 -4 c-3 -8 -6 -5 -6 6 -1 11 2
17 5 13 3 -3 4 -12 1 -19z m13 -90 c-1 -43 -3 -49 -11 -35 -10 17 -4 87 6 87
3 0 5 -24 5 -52z m-10 -119 c0 -6 -4 -7 -10 -4 -5 3 -10 11 -10 16 0 6 5 7 10
4 6 -3 10 -11 10 -16z m-913 -191 c-3 -8 -6 -5 -6 6 -1 11 2 17 5 13 3 -3 4
-12 1 -19z m18 -178 c-22 -43 -28 -37 -19 23 4 28 7 68 7 87 -1 28 2 23 13
-23 13 -51 12 -61 -1 -87z m-1240 62 c6 2 11 -31 13 -76 3 -74 -1 -90 -62
-275 -64 -192 -66 -199 -77 -356 -6 -88 -9 -207 -5 -265 6 -103 60 -482 71
-501 4 -5 13 -9 22 -9 14 0 15 -12 10 -97 -4 -54 -7 -237 -8 -408 0 -182 -4
-302 -9 -290 -5 11 -9 79 -9 150 -2 211 -20 483 -35 518 -7 18 -25 47 -40 65
l-28 32 7 113 c6 96 3 139 -20 292 -29 194 -30 249 -3 584 11 138 13 146 41
178 24 28 37 62 71 203 22 93 43 162 46 154 3 -9 10 -14 15 -12z m-858 -74
c-3 -7 -5 -2 -5 12 0 14 2 19 5 13 2 -7 2 -19 0 -25z m4279 -51 c-5 -35 -3
-45 14 -59 11 -10 20 -26 20 -37 0 -17 -3 -17 -30 7 -33 29 -35 38 -18 93 15
51 22 49 14 -4z m-4259 -44 c-11 -10 -37 12 -37 31 0 37 13 39 27 5 7 -18 12
-34 10 -36z m3507 15 c3 -13 6 -27 6 -33 -1 -15 -30 27 -30 42 0 22 17 15 24
-9z m-2496 -121 c-10 -31 -9 -40 5 -55 10 -10 17 -29 17 -43 l0 -24 -20 25
c-30 37 -33 63 -16 105 20 47 29 42 14 -8z m4367 -69 c9 -22 13 -43 10 -47
-11 -10 -55 49 -55 74 0 37 25 21 45 -27z m-5839 -32 c-3 -12 -6 -33 -6 -48 0
-16 -3 -28 -8 -28 -4 0 -6 18 -4 40 3 32 0 41 -14 47 -21 7 -34 22 -34 40 0 8
13 5 36 -9 28 -16 34 -26 30 -42z m4835 -71 c12 -55 13 -55 62 -70 28 -8 56
-15 62 -15 26 0 52 -30 48 -55 -5 -25 -23 -35 -23 -12 0 27 -20 39 -85 48 -38
5 -74 14 -82 20 -15 13 -19 154 -4 144 5 -3 15 -30 22 -60z m1159 -132 c-9
-42 -8 -58 5 -88 18 -44 15 -51 -13 -36 -18 10 -20 18 -15 68 4 56 21 118 30
110 2 -2 -1 -27 -7 -54z m-4456 -12 c20 -22 49 -126 66 -237 l13 -82 -54 -88
c-45 -73 -59 -90 -82 -92 -34 -4 -34 -13 3 -90 17 -35 30 -69 30 -76 0 -6 -22
-50 -49 -98 -41 -71 -54 -107 -79 -218 -24 -105 -35 -137 -52 -150 -22 -17
-23 -20 -16 -145 7 -115 11 -134 37 -183 16 -30 29 -62 29 -70 0 -17 -57 -119
-71 -128 -6 -3 -3 9 7 27 10 19 18 54 18 79 1 37 -5 53 -33 87 l-34 43 7 142
c5 122 9 147 26 168 30 37 45 73 85 209 57 194 64 237 48 296 -25 97 -21 108
85 233 l53 63 -11 57 c-7 31 -23 102 -36 157 -13 55 -24 103 -24 108 0 13 16
7 34 -12z m-561 -270 c24 -35 27 -47 18 -69 l-9 -27 -1 32 c-1 21 -12 45 -31
66 -31 36 -35 60 -23 118 7 32 8 31 13 -22 3 -38 14 -69 33 -98z m2040 -60
c40 -44 40 -45 27 -76 -8 -18 -9 -18 -9 6 -1 15 -15 39 -36 59 -33 32 -35 38
-34 94 l2 61 6 -51 c5 -40 14 -60 44 -93z m937 75 c0 -23 11 -45 35 -73 33
-39 47 -83 25 -83 -5 0 -10 11 -10 24 0 15 -12 33 -35 50 -32 25 -35 32 -35
77 0 31 4 48 10 44 6 -3 10 -21 10 -39z m-3004 -304 l-1 -198 54 -85 c128
-199 123 -188 117 -254 -3 -33 -8 -85 -12 -116 -6 -55 -6 -56 39 -107 44 -49
45 -53 52 -134 4 -46 5 -103 3 -128 -2 -33 -7 -14 -17 75 -16 131 -25 148 -99
187 -39 21 -41 43 -12 183 17 88 18 101 4 126 -12 24 -18 28 -34 19 -10 -5
-23 -10 -28 -10 -5 0 -27 37 -48 83 l-39 82 -3 160 c-2 88 -8 165 -13 171 -11
13 21 144 35 144 2 0 2 -89 2 -198z m2935 144 c-18 -19 -22 -32 -18 -58 3 -18
2 -42 -2 -53 -6 -16 -9 -12 -15 20 -4 22 -9 48 -12 57 -4 12 5 24 28 38 43 26
46 25 19 -4z m1079 -22 c0 -8 -4 -12 -10 -9 -5 3 -10 13 -10 21 0 8 5 12 10 9
6 -3 10 -13 10 -21z m190 -98 c0 -6 -16 -31 -35 -55 l-35 -44 2 86 2 87 33
-32 c18 -18 33 -37 33 -42z m-2962 21 c2 -10 -3 -17 -12 -17 -18 0 -29 16 -21
31 9 14 29 6 33 -14z m2667 -141 c19 -14 16 -15 -45 -16 -139 -1 -188 -33
-224 -149 -29 -92 -56 -237 -56 -302 0 -55 24 -91 138 -210 l76 -80 -11 -90
c-17 -133 -33 -158 -118 -191 -38 -15 -74 -27 -80 -28 -5 0 17 27 49 59 l59
60 -2 66 c-3 86 -9 101 -76 182 -31 38 -59 80 -62 96 -4 19 -13 29 -32 33 -72
15 -75 48 -25 238 48 184 52 205 41 244 -6 25 -4 40 8 59 19 28 106 71 180 88
47 11 54 10 105 -16 30 -15 64 -34 75 -43z m898 -142 c-10 -8 -31 -22 -48 -31
-30 -16 -30 -16 7 25 21 23 40 57 45 79 l8 38 3 -48 c2 -38 -1 -52 -15 -63z
m-1865 24 c12 -16 32 -108 32 -152 0 -38 -65 -130 -87 -122 -17 7 -16 -5 3
-54 l16 -40 -36 -49 c-20 -26 -45 -79 -57 -115 -11 -37 -27 -70 -35 -73 -20
-8 -20 -153 2 -194 17 -34 12 -58 -18 -85 -21 -19 -21 -19 -9 3 16 32 14 60
-9 91 -18 25 -18 34 -9 107 7 53 17 85 28 95 18 15 50 84 82 179 16 45 17 61
8 95 l-11 41 55 51 55 52 -17 91 c-17 87 -15 106 7 79z m-3918 -94 c0 -8 -4
-12 -10 -9 -5 3 -10 13 -10 21 0 8 5 12 10 9 6 -3 10 -13 10 -21z m330 -58
c-5 -15 -10 -44 -10 -64 0 -21 -20 -85 -45 -147 -50 -122 -55 -121 -25 5 19
80 80 244 87 236 2 -2 -1 -15 -7 -30z m2471 -86 c10 -6 19 -14 19 -19 0 -4
-25 -25 -55 -46 -62 -42 -60 -37 -76 -195 -15 -145 -20 -160 -58 -160 -24 0
-29 -5 -35 -31 -3 -17 -6 -52 -6 -77 0 -38 -5 -52 -32 -79 -47 -49 -53 -40
-12 17 36 50 36 51 33 138 l-4 87 42 3 c33 2 42 7 47 26 3 13 1 38 -5 55 -8
22 -8 50 1 103 11 65 17 77 53 111 22 20 44 37 49 37 4 0 8 9 8 20 0 23 4 24
31 10z m459 -54 c-1 -45 -13 -35 -25 21 -5 28 -4 32 9 27 11 -4 16 -19 16 -48z
m2295 34 c-5 -9 6 -14 26 -12 3 1 16 -68 27 -153 12 -85 28 -168 37 -184 8
-17 46 -54 84 -83 39 -29 73 -61 77 -72 9 -28 -6 -172 -17 -155 -5 8 -9 35 -9
60 0 108 -5 114 -114 144 -79 22 -102 47 -110 121 -25 226 -25 344 0 344 3 0
2 -4 -1 -10z m1161 -49 c-21 -22 -26 -34 -20 -55 3 -14 3 -38 -2 -53 -7 -27
-7 -27 -15 12 -14 71 -11 84 24 105 43 27 46 25 13 -9z m-2672 -201 l-8 -55
-8 80 c-6 58 -5 92 4 124 l13 44 3 -69 c2 -38 0 -94 -4 -124z m-759 170 c3 -5
1 -10 -4 -10 -6 0 -11 5 -11 10 0 6 2 10 4 10 3 0 8 -4 11 -10z m-40 -158 c6
-39 13 -47 77 -95 l70 -52 -5 -53 c-5 -51 -5 -54 26 -73 18 -10 35 -20 39 -21
3 -2 9 -25 12 -53 l6 -50 -16 45 c-21 56 -17 52 -61 59 l-38 7 3 71 c4 74 -6
95 -34 72 -12 -10 -20 -7 -44 16 -32 31 -45 64 -56 140 -3 28 -10 55 -14 60
-4 6 -2 26 3 45 l10 35 8 -55 c5 -30 11 -74 14 -98z m-1789 38 c-12 -39 -11
-53 4 -106 10 -37 13 -69 9 -83 -11 -29 -23 -27 -15 3 4 15 -3 48 -15 82 l-21
56 23 49 c12 27 24 48 25 46 2 -2 -3 -23 -10 -47z m-1547 -39 c12 -49 14 -68
5 -61 -6 6 -15 32 -18 58 -4 26 -10 56 -13 67 -3 11 -2 17 2 13 3 -3 14 -38
24 -77z m399 -35 c-18 -17 -39 -40 -46 -51 -12 -19 -13 -19 -8 5 3 14 6 35 6
47 0 12 17 39 37 60 l38 38 3 -34 c3 -27 -3 -39 -30 -65z m751 -34 c16 -31 9
-37 -16 -15 -17 15 -19 26 -15 63 l6 45 6 -35 c3 -19 12 -46 19 -58z m3785 1
c-12 -50 -23 -61 -24 -22 0 36 6 49 22 49 5 0 5 -12 2 -27z m-934 -22 c0 -20
-9 -36 -27 -51 -16 -12 -36 -36 -46 -53 l-18 -32 6 50 c4 37 13 57 37 82 39
41 48 41 48 4z m-3705 -271 c-14 -44 -15 -41 -10 82 7 180 19 222 23 78 2 -82
-2 -128 -13 -160z m4605 226 c0 -3 -4 -8 -10 -11 -5 -3 -10 -1 -10 4 0 6 5 11
10 11 6 0 10 -2 10 -4z m-816 -62 c-32 -100 -67 -158 -109 -181 -44 -25 -133
-49 -142 -39 -16 16 29 40 76 40 57 1 81 18 100 73 16 46 81 166 87 160 2 -2
-3 -26 -12 -53z m1855 -12 c-1 -33 -2 -34 -9 -12 -12 36 -12 62 0 55 6 -3 10
-23 9 -43z m-4722 -48 l2 -39 -14 35 c-17 45 -18 53 -2 48 6 -3 13 -22 14 -44z"/>
<path d="M590 2869 c0 -8 -34 -48 -75 -89 -72 -72 -75 -76 -75 -121 0 -44 2
-48 30 -54 34 -7 36 -18 15 -59 -23 -43 -19 -62 38 -179 l53 -109 67 139 c36
76 80 171 97 212 l30 73 -34 47 c-48 64 -146 159 -146 140z"/>
<path d="M545 2141 c-16 -37 -22 -42 -44 -36 -63 16 -111 22 -111 14 0 -5 21
-51 47 -102 25 -50 49 -105 52 -122 l7 -29 21 34 c12 19 35 55 52 79 36 52 40
104 13 165 l-18 39 -19 -42z"/>
<path d="M3898 2888 c-117 -104 -168 -155 -184 -188 -29 -57 -52 -154 -70
-301 -14 -112 -13 -119 7 -184 36 -119 172 -398 229 -472 17 -22 17 -21 34 35
41 144 41 142 -13 250 -63 125 -71 162 -41 192 19 19 28 21 64 15 76 -15 97
-12 118 16 l20 26 -46 91 c-43 85 -45 95 -37 134 9 37 7 45 -15 71 -27 33 -39
70 -28 89 4 7 47 77 96 155 48 78 88 148 88 156 0 13 -40 57 -53 57 -3 0 -79
-64 -169 -142z"/>
<path d="M4141 2927 c-6 -16 -11 -40 -11 -54 0 -17 -23 -49 -75 -106 -69 -74
-75 -84 -75 -123 0 -38 3 -43 30 -53 35 -12 35 -11 15 -58 -21 -50 -20 -59 23
-145 l38 -78 58 98 c88 150 178 339 172 359 -3 10 -42 56 -85 103 l-79 85 -11
-28z"/>
<path d="M2751 2844 c-35 -81 -41 -84 -115 -77 l-64 6 -17 -34 c-10 -18 -32
-77 -50 -130 l-33 -96 110 -137 c61 -75 114 -136 119 -136 17 0 133 409 155
547 6 40 4 45 -32 78 -21 19 -40 35 -43 35 -4 0 -17 -25 -30 -56z"/>
<path d="M2655 1143 c19 -44 25 -52 25 -30 0 25 -19 67 -30 67 -6 0 -4 -15 5
-37z"/>
</g>
</svg>
