<svg xmlns="http://www.w3.org/2000/svg" width="509" height="182" fill="none" viewBox="0 0 509 182"><path fill="#cf003d" fill-rule="evenodd" d="M156.922 48.107c8.621-.345 16.466.862 23.967 3.794 2.241-2.07 6.983-7.329 7.414-15.174.173-3.88-.862-7.932-2.155-10.95l-.283-.71c-1.342-3.364-2.426-6.08-1.7-10.756-6.897 2.587-7.845 7.846-7.845 7.846S172.699 4.914 159.594 0c8.399 17.118-6.432 24.662-11.646 27.315-.406.206-.753.383-1.027.532-16.553 8.535-14.57 22.502-13.622 25.864 8.104-4.052 15.691-5.345 23.623-5.604M60.781 41.81 0 179.234h105.698v-26.726H44.141l60.522-137.424H16.898L4.914 41.81zm306.489-5.427c0 4.828-1.81 8.794-5.345 12.156s-7.845 5-12.76 5c-4.914 0-9.224-1.638-12.759-5-3.535-3.276-5.345-7.328-5.345-12.156 0-4.742 1.81-8.794 5.345-12.07s7.845-4.828 12.759-4.828 9.225 1.638 12.76 4.828c3.535 3.276 5.345 7.328 5.345 12.07M334.251 61.21v118.026h30.951V56.987zM175.528 83.624c4.224 4.655 6.293 11.552 6.293 20.777l-51.469 6.983c.344-11.466 3.017-20.087 8.104-25.95 5.086-5.776 11.725-8.707 19.915-8.707 7.242 0 13.018 2.327 17.157 6.897m36.295 31.295v-5.086c0-8.277-1.12-15.864-3.362-22.502-2.414-6.811-5.776-12.674-10.259-17.588s-9.915-8.707-16.467-11.38-14.053-3.966-22.502-3.966c-8.966 0-16.898 1.552-23.967 4.656q-10.605 4.655-17.846 13.19-7.243 8.535-11.122 20.174c-2.586 7.76-3.88 16.295-3.88 25.692s1.294 18.019 3.966 25.864 6.552 14.57 11.812 20.26c5.259 5.604 11.638 10.001 19.311 13.105 7.673 3.103 16.553 4.655 26.727 4.655 8.88 0 17.415-.862 25.433-2.5 8.017-1.724 14.57-3.793 19.742-6.38l-8.88-23.105c-4.396 2.242-9.655 4.052-15.69 5.518-6.122 1.465-12.243 2.155-18.45 2.155-9.139 0-16.726-2.155-22.76-6.552q-9.053-6.596-11.122-20.174l78.885-10.691c.259-1.81.431-3.621.431-5.345m79.404 64.316V98.798q0-9.312-5.432-14.484c-3.621-3.449-9.052-5.173-16.122-5.173-3.621 0-7.069.258-10.345.948-3.276.604-5.949 1.293-8.104 2.07v97.248h-30.951V63.191c6.466-2.586 13.708-4.655 21.64-6.38 7.931-1.638 16.984-2.5 27.071-2.5 18.277 0 31.726 3.535 40.261 10.69 8.535 7.07 12.846 17.33 12.846 30.607v83.627zm167.421-28.358c4.828-3.018 8.793-7.07 11.897-12.329s5.518-11.38 7.07-18.449a97 97 0 0 0 2.241-16.984l-25.002-2.156 4.914 11.725-55.521-7.155c.345 5.086.948 9.914 1.983 14.57 1.465 7.069 3.879 13.277 7.069 18.449s7.156 9.311 11.898 12.329c4.655 3.104 10.259 4.569 16.639 4.569 6.466 0 11.984-1.552 16.812-4.569m-45.349-95.094c-3.19 5.173-5.517 11.38-7.069 18.45-1.552 7.156-2.242 14.743-2.328 22.933l35.52-4.828-3.535-8.104 42.504-5.863c-.115-.977-.307-1.877-.499-2.778-.095-.45-.191-.9-.277-1.36-1.552-7.07-3.966-13.277-7.07-18.45-3.104-5.172-7.069-9.31-11.897-12.328-4.828-3.104-10.432-4.57-16.812-4.57s-11.897 1.552-16.639 4.57c-4.742 3.017-8.708 7.156-11.898 12.328m78.713-18.45c5.69 7.674 9.915 16.726 12.76 26.986 2.845 10.259 4.224 21.208 4.224 32.847s-1.379 22.588-4.224 32.847-7.07 19.312-12.76 26.985c-5.69 7.759-12.673 13.794-21.036 18.277-8.276 4.483-18.018 6.725-29.054 6.725s-20.691-2.242-29.054-6.725-15.346-10.604-20.95-18.277c-5.604-7.759-9.828-16.725-12.673-26.985s-4.224-21.208-4.224-32.847 1.379-22.588 4.224-32.847 7.069-19.312 12.673-26.985c5.604-7.76 12.588-13.795 20.95-18.278 8.277-4.483 18.019-6.724 29.054-6.724s20.691 2.241 29.054 6.724 15.346 10.605 21.036 18.278" clip-rule="evenodd"/></svg>