<?xml version="1.0" encoding="UTF-8"?>
<svg version="1.1" xmlns="http://www.w3.org/2000/svg" width="512" height="512">
<path d="M0 0 C11.59397275 7.68753509 15.19425372 20.6633583 18.9140625 33.37890625 C19.36494779 34.88563093 19.81696971 36.39201588 20.27003479 37.89808655 C21.23303376 41.10756467 22.18838385 44.31917781 23.13754272 47.53277588 C24.64758166 52.64515819 26.17464706 57.75235784 27.7043457 62.85888672 C29.54089014 68.99351066 31.37363883 75.12924056 33.20105457 81.26659012 C36.19243798 91.31204324 39.21027196 101.34916562 42.25390625 111.37890625 C42.46068623 112.06034132 42.6674662 112.74177639 42.88051224 113.44386101 C43.90833962 116.83026986 44.93683178 120.2164763 45.96569824 123.60256958 C47.81333074 129.68399616 49.65625627 135.76684965 51.49950027 141.84960747 C52.11166342 143.86966138 52.72395164 145.88967733 53.33627319 147.90968323 C55.99357991 156.67633492 58.64804625 165.44384356 61.30117798 174.21175957 C63.15856843 180.34967294 65.01662368 186.48738505 66.875 192.625 C67.07959084 193.30071423 67.28418167 193.97642845 67.49497223 194.67261887 C73.85292641 215.66974787 80.25024333 236.65463261 86.66912842 257.63320923 C93.97246432 281.50325322 101.26321942 305.37707504 108.48922729 329.2706604 C109.32088297 332.02043205 110.15402684 334.76974531 110.98855591 337.51864624 C112.13687101 341.30162777 113.27969845 345.08625402 114.421875 348.87109375 C114.75724777 349.97390686 115.09262054 351.07671997 115.43815613 352.21295166 C119.25574257 364.90621429 122.27944931 375.6826619 116.375 388.3125 C110.00401564 399.91679295 101.27128964 404.25328723 88.98046875 407.953125 C88.13147507 408.21472916 87.28248138 408.47633331 86.40776062 408.74586487 C83.66973887 409.5874972 80.92875603 410.41896905 78.1875 411.25 C76.30144674 411.82723374 74.41554252 412.40495464 72.52978516 412.9831543 C58.04764414 417.41466515 43.54014855 421.7625517 29 426 C28.98018066 426.70608398 28.96036133 427.41216797 28.93994141 428.13964844 C28.84459585 431.34346994 28.73495487 434.54664801 28.625 437.75 C28.5940625 438.86117188 28.563125 439.97234375 28.53125 441.1171875 C28.49257813 442.18710937 28.45390625 443.25703125 28.4140625 444.359375 C28.3826416 445.34389648 28.3512207 446.32841797 28.31884766 447.34277344 C27.99522975 450.03975453 27.42989406 451.70932394 26 454 C23.30412197 456.09679403 21.907056 455.99510821 18.4375 455.8125 C14.96562555 454.99187513 14.04507359 454.75293948 12 452 C11.65942383 449.73168945 11.65942383 449.73168945 11.70703125 447.11328125 C11.71452393 446.26805908 11.7220166 445.42283691 11.72973633 444.55200195 C11.75704834 443.48296631 11.78436035 442.41393066 11.8125 441.3125 C11.84697751 439.47291941 11.88035473 437.63331799 11.9128418 435.79370117 C11.94189453 434.19580078 11.97094727 432.59790039 12 431 C11.29464615 431.21961395 10.5892923 431.43922791 9.86256409 431.66549683 C-9.35043254 437.64467992 -28.58101621 443.56441405 -47.82539368 449.44174194 C-50.10292534 450.13734673 -52.38038574 450.83318448 -54.65783691 451.52905273 C-79.84383235 459.22367168 -105.04317758 466.87390501 -130.25 474.5 C-131.05840961 474.74459206 -131.86681923 474.98918411 -132.6997261 475.24118805 C-138.11731278 476.88024678 -143.53513933 478.51851069 -148.953125 480.15625 C-149.62929556 480.36069103 -150.30546612 480.56513206 -151.00212669 480.77576828 C-162.32982819 484.2002735 -173.66421168 487.60236811 -185 491 C-161.13031369 491.09344706 -137.2606548 491.1639811 -113.39082241 491.20724869 C-102.30760521 491.22787269 -91.22450167 491.2559903 -80.14135742 491.30175781 C-70.48113191 491.3416304 -60.82098873 491.36743399 -51.16068321 491.37635398 C-46.04573854 491.38156798 -40.93102938 491.3938196 -35.8161602 491.42292023 C-31.00055897 491.45009588 -26.18529 491.4584406 -21.36961937 491.45243073 C-19.60356592 491.45352999 -17.83750121 491.46147107 -16.07151413 491.4768219 C-13.65631479 491.49678394 -11.24236261 491.49191723 -8.82713318 491.48101807 C-8.13158858 491.49266943 -7.43604399 491.5043208 -6.71942228 491.51632524 C-1.33879449 491.45089001 1.65422153 489.94814242 6 487 C9.37607692 482.96746368 10.79959068 478.95947818 12.09375 473.953125 C13 472 13 472 14.87109375 470.72265625 C18.15677405 469.60733358 20.67242505 470.21348228 24 471 C26.07748194 472.57502119 26.88043717 473.5115534 27.50390625 476.05859375 C27.71776733 484.74135365 24.57264706 491.8217042 18.94921875 498.3984375 C10.13523232 506.82103909 0.91051639 508.5979984 -10.97998047 508.50793457 C-12.2555374 508.51417453 -13.53109432 508.5204145 -14.84530449 508.52684355 C-18.36084147 508.54344451 -21.87594059 508.53533317 -25.39147854 508.52289867 C-29.19251312 508.51381231 -32.99347475 508.5278356 -36.79449463 508.53881836 C-44.23080624 508.55657008 -51.66695601 508.55277858 -59.10327387 508.5411678 C-65.14892049 508.53212053 -71.19452188 508.53091506 -77.24017334 508.53526306 C-78.53267921 508.53618246 -78.53267921 508.53618246 -79.85129631 508.53712043 C-81.60196767 508.53839938 -83.35263901 508.53969624 -85.10331035 508.5410108 C-101.50499647 508.55240679 -117.90659306 508.5393183 -134.30826449 508.51780933 C-148.37026803 508.49993924 -162.43213947 508.50304362 -176.49414062 508.52148438 C-192.83862799 508.54290844 -209.18303695 508.55130824 -225.52753639 508.53903532 C-227.27163314 508.53776117 -229.01572989 508.53650369 -230.75982666 508.53526306 C-231.61787207 508.53464596 -232.47591747 508.53402886 -233.35996425 508.53339306 C-239.39573675 508.52994476 -245.43145935 508.53575726 -251.46722412 508.54518127 C-258.82657711 508.55641972 -266.18575952 508.55332253 -273.54509306 508.5320583 C-277.29729057 508.5215726 -281.04920406 508.51738335 -284.80139923 508.53065491 C-288.87451807 508.54484329 -292.94692477 508.52785995 -297.02001953 508.50793457 C-298.19804579 508.51685746 -299.37607204 508.52578034 -300.58979607 508.53497362 C-311.11482677 508.43521878 -319.2583964 505.70923391 -326.953125 498.41015625 C-333.95814072 490.16188393 -336.12423233 481.23287026 -336.12584114 470.61798763 C-336.12975276 468.74989906 -336.12975276 468.74989906 -336.13374341 466.84407133 C-336.13158168 465.47514388 -336.12932504 464.10621658 -336.12698364 462.73728943 C-336.12813653 461.27279642 -336.12972518 459.80830369 -336.13171089 458.34381157 C-336.13588148 454.32768747 -336.13382372 450.31158715 -336.13072467 446.29546297 C-336.12846142 441.96057943 -336.1319549 437.62569998 -336.13470459 433.29081726 C-336.13915213 424.80002446 -336.13819009 416.30924049 -336.13529195 407.81844734 C-336.1330329 400.91369888 -336.13272758 394.0089529 -336.13381577 387.10420418 C-336.133969 386.12116613 -336.13412223 385.13812808 -336.13428011 384.12530099 C-336.13459984 382.12813997 -336.13492405 380.13097894 -336.1352527 378.13381792 C-336.13810478 359.40195747 -336.13482526 340.67010191 -336.12945233 321.93824226 C-336.12498942 305.88257246 -336.12575652 289.8269099 -336.13037109 273.77124023 C-336.13573005 255.11691849 -336.13782499 236.46260103 -336.13475883 217.80827862 C-336.13444029 215.81635447 -336.13412592 213.82443033 -336.13381577 211.83250618 C-336.13366149 210.85251781 -336.13350721 209.87252944 -336.13334826 208.86284445 C-336.13248671 201.97389941 -336.1339383 195.08495711 -336.13629532 188.1960125 C-336.1391084 179.78933194 -336.13832351 171.38266072 -336.13301457 162.97598123 C-336.13039713 158.69075412 -336.12933907 154.40554253 -336.13266373 150.12031555 C-336.13566754 146.18893636 -336.1339666 142.25758692 -336.12868617 138.32621039 C-336.12757922 136.91231747 -336.12811436 135.49842199 -336.13056196 134.08453076 C-336.18266679 101.45355837 -336.18266679 101.45355837 -325.2734375 89.9765625 C-319.40256192 84.87233047 -312.51509637 82.53085296 -305 81 C-305.03480469 80.18917969 -305.06960938 79.37835938 -305.10546875 78.54296875 C-305.46523318 63.82689043 -301.52021603 50.96201646 -291.29296875 40.1015625 C-280.60434155 30.30517164 -267.36063726 25.6097412 -252.99609375 25.78515625 C-238.83707099 26.80047079 -227.73369367 32.92175081 -218 43 C-213 48.94382022 -213 48.94382022 -213 52 C-196.11835918 47.3825237 -179.35839811 42.4303324 -162.63748169 37.26281738 C-158.6485444 36.03022945 -154.65735588 34.80503889 -150.66577148 33.58105469 C-139.15361446 30.04992579 -127.64310173 26.51389696 -116.14367104 22.94150829 C-110.61064244 21.22333219 -105.07334954 19.51924919 -99.5345459 17.8197937 C-97.23400961 17.11096113 -94.93506772 16.39693145 -92.63781738 15.67752075 C-89.46164219 14.68334048 -86.28051836 13.70689613 -83.09765625 12.734375 C-82.17132889 12.43955734 -81.24500153 12.14473969 -80.29060364 11.84098816 C-75.05741018 10.26521814 -71.33916268 9.66771936 -66 11 C-63.35235155 12.67684402 -63.04522955 13.85138861 -62.125 16.875 C-61.96509259 20.87268529 -62.39898821 21.94005531 -65 25 C-68.34992363 26.65939623 -71.86251462 27.6978372 -75.43359375 28.78125 C-76.50032822 29.12015259 -77.56706268 29.45905518 -78.66612244 29.80822754 C-82.10459823 30.89315862 -85.5509465 31.94922371 -89 33 C-90.09387024 33.33725098 -91.18774048 33.67450195 -92.3147583 34.02197266 C-100.55043804 36.56030949 -108.80503786 39.03363051 -117.0625 41.5 C-121.85029909 42.93369678 -126.63713866 44.3705938 -131.42386055 45.80788231 C-132.87054805 46.24224042 -134.31727867 46.67645493 -135.76405144 47.11052895 C-147.44855181 50.61687689 -159.11996785 54.16499721 -170.78594398 57.73246384 C-173.52445185 58.5697516 -176.2631851 59.4062978 -179.0019989 60.24258423 C-180.81375162 60.79583609 -182.62550394 61.34908926 -184.43725586 61.90234375 C-185.32926036 62.17472052 -186.22126486 62.44709728 -187.1402998 62.72772789 C-191.60436729 64.09129747 -196.06774617 65.45705384 -200.52981567 66.82714844 C-204.74496889 68.12141453 -208.96165045 69.41057513 -213.17950058 70.69602394 C-214.74178474 71.17323914 -216.30346642 71.65243169 -217.86450577 72.13370323 C-220.00604689 72.79371433 -222.14956628 73.44686196 -224.29370117 74.09838867 C-225.49822433 74.4674382 -226.7027475 74.83648773 -227.94377136 75.21672058 C-231 76 -231 76 -235 76 C-234.99111755 77.16796112 -234.98223511 78.33592224 -234.9730835 79.53927612 C-234.89181991 90.57321514 -234.83194934 101.60709303 -234.79275131 112.64126396 C-234.77192137 118.31337888 -234.74368759 123.98525122 -234.69824219 129.65722656 C-234.65462076 135.1361541 -234.63082837 140.61484905 -234.62049103 146.09393692 C-234.61312888 148.17902408 -234.59875255 150.26409924 -234.57707977 152.34908676 C-234.54782926 155.28101361 -234.54405303 158.21199253 -234.54589844 161.14404297 C-234.53151733 161.99641037 -234.51713623 162.84877777 -234.50231934 163.72697449 C-234.56712258 173.30948754 -238.32469374 182.10218353 -245 189 C-253.6932191 196.23341438 -262.2811397 198.64980147 -273.5078125 198.3359375 C-281.74002928 197.54402403 -287.27324877 194.96439851 -293.328125 189.33984375 C-294.20887695 188.52765381 -295.08962891 187.71546387 -295.99707031 186.87866211 C-296.65803711 186.25870361 -297.31900391 185.63874512 -298 185 C-292.30923656 204.04598599 -286.58664384 223.08222543 -280.8203125 242.10546875 C-280.59657455 242.84360054 -280.37283661 243.58173233 -280.14231873 244.34223175 C-277.87761604 251.81308404 -275.61163258 259.28354695 -273.34401894 266.7535162 C-272.48283697 269.59071397 -271.62206495 272.42803604 -270.76134872 275.26537514 C-270.16442125 277.23248356 -269.5668567 279.19939767 -268.9692688 281.16630554 C-263.37213175 299.61667279 -263.37213175 299.61667279 -264 306 C-265.5 308.5 -265.5 308.5 -268 310 C-270.90897573 310.50921708 -272.98126956 310.33541449 -276 310 C-293.08152337 296.91862722 -300.32248122 237.6920625 -306.86355209 215.97129059 C-308.12631539 211.77838065 -309.38953602 207.5856085 -310.65270996 203.39282227 C-313.10223614 195.26201084 -315.55128532 187.13105586 -318 179 C-318.09154362 217.22644504 -318.16203267 255.45287358 -318.20426132 293.67940605 C-318.20926418 298.19178846 -318.21444147 302.70417065 -318.21972656 307.21655273 C-318.2207758 308.11489161 -318.22182505 309.01323048 -318.22290608 309.93879174 C-318.24031413 324.48701413 -318.27185402 339.03517334 -318.30861118 353.58335824 C-318.34600948 368.50972189 -318.3682335 383.43605244 -318.37635398 398.36246103 C-318.38184406 407.57382269 -318.39918767 416.78500575 -318.43166587 425.99631243 C-318.45280004 432.31176066 -318.45920254 438.62711648 -318.45400551 444.94259752 C-318.451442 448.58704178 -318.45538795 452.23117383 -318.4768219 455.87556267 C-318.49989496 459.82752218 -318.49195361 463.77907481 -318.48101807 467.73109436 C-318.49266943 468.88187991 -318.5043208 470.03266545 -318.51632524 471.21832329 C-318.46772933 477.70111395 -317.93481901 481.76229826 -314 487 C-308.50374558 491.2118041 -304.08180576 491.56468112 -297.30102539 491.45410156 C-295.8803476 491.45497772 -295.8803476 491.45497772 -294.43096924 491.45587158 C-291.31948413 491.45309846 -288.20897275 491.4220426 -285.09765625 491.390625 C-282.93290225 491.38315988 -280.76814148 491.37746823 -278.6033783 491.37347412 C-272.92000503 491.35823928 -267.23704399 491.31897563 -261.55383301 491.2746582 C-255.74883601 491.23365931 -249.94377208 491.21545322 -244.13867188 491.1953125 C-232.75893398 491.15247959 -221.37950134 491.08425404 -210 491 C-210.68344482 490.60312988 -211.36688965 490.20625977 -212.07104492 489.79736328 C-213.41839722 489.00434814 -213.41839722 489.00434814 -214.79296875 488.1953125 C-215.68266357 487.67469238 -216.5723584 487.15407227 -217.48901367 486.61767578 C-229.56996816 478.83465153 -232.30009987 462.36044876 -236.17578125 449.41015625 C-236.66308147 447.79897742 -237.15094458 446.18796874 -237.639328 444.57711792 C-238.93698163 440.2914137 -240.22700297 436.00345035 -241.51516724 431.71488571 C-242.85140074 427.2698073 -244.19354645 422.82651472 -245.53515625 418.38305664 C-247.15206704 413.02646409 -248.76821224 407.66964532 -250.38101196 402.31181335 C-253.41062019 392.24918009 -256.46083199 382.19327267 -259.54320335 372.14667702 C-260.85369719 367.87252555 -262.15843461 363.59661136 -263.46420288 359.3210144 C-264.15082622 357.07810418 -264.84010717 354.83600569 -265.53213501 352.59475708 C-266.47691262 349.53287437 -267.41153657 346.46807073 -268.34375 343.40234375 C-268.61752975 342.52480438 -268.89130951 341.64726501 -269.17338562 340.74313354 C-272.18731676 330.74567001 -272.18731676 330.74567001 -270 325.6875 C-267.4407267 323.52811315 -265.37544141 323.15571429 -262.1328125 322.58984375 C-258.66881741 323.25599665 -257.26282391 325.37680932 -255 328 C-253.93059664 330.50070021 -253.1106325 332.76457225 -252.37109375 335.35546875 C-252.03063774 336.47340317 -252.03063774 336.47340317 -251.68330383 337.61392212 C-250.91972962 340.13420116 -250.17896711 342.66063655 -249.4375 345.1875 C-248.89054274 347.00721976 -248.34198732 348.82645978 -247.79199219 350.64526367 C-246.55410715 354.74774415 -245.32575847 358.85293906 -244.10302734 362.95996094 C-241.76696199 370.79604637 -239.39456403 378.62097171 -237.01953125 386.4453125 C-236.14069065 389.34089692 -235.26186614 392.23648622 -234.38305664 395.13208008 C-234.16419894 395.85309182 -233.94534124 396.57410357 -233.71985149 397.31696415 C-232.01755738 402.92659538 -230.321609 408.5381277 -228.62744236 414.15021801 C-227.0235598 419.46141504 -225.41187768 424.77021565 -223.79661465 430.07796192 C-222.56938053 434.11403259 -221.35393161 438.1534615 -220.14562607 442.19523716 C-219.34283086 444.87356191 -218.53175687 447.5493324 -217.71878815 450.22458458 C-217.15749411 452.08092826 -216.60626753 453.9403067 -216.05535889 455.79975891 C-213.87009397 462.95695413 -212.09675684 468.45377771 -206.1875 473.3125 C-200.55772294 476.29297021 -195.83135178 476.33894415 -189.81835938 474.51782227 C-188.63141479 474.16590317 -187.44447021 473.81398407 -186.22155762 473.45140076 C-184.92886925 473.05251395 -183.63626954 472.65333976 -182.34375 472.25390625 C-180.96915611 471.840463 -179.59418662 471.4282668 -178.21887207 471.01722717 C-174.55172904 469.91746899 -170.89001748 468.80057855 -167.22912598 467.68021393 C-163.60118376 466.57315365 -159.96836206 465.48237996 -156.3359375 464.39013672 C-147.87914298 461.84341821 -139.43041611 459.27050783 -130.98257446 456.6942749 C-126.69653435 455.38774105 -122.40976109 454.08361696 -118.12304688 452.77929688 C-111.86274028 450.87429147 -105.60261907 448.96867932 -99.34275055 447.06223488 C-84.16847185 442.44100618 -68.99094274 437.8304965 -53.81306362 433.22110939 C-48.12920203 431.49494225 -42.44553222 429.7681448 -36.76196289 428.04101562 C-21.41818709 423.37848203 -6.07374901 418.71815575 9.2727356 414.06454468 C15.59074335 412.1486778 21.90845647 410.23184018 28.22610664 408.31479454 C32.51751628 407.01267869 36.80908811 405.71110322 41.10107422 404.41088867 C49.45065368 401.8811854 57.79819431 399.34521673 66.13954353 396.78848839 C70.3894026 395.48722873 74.64572884 394.20955977 78.90576172 392.94189453 C80.89439342 392.33818303 82.88285328 391.73390498 84.87109375 391.12890625 C85.73283707 390.87874252 86.59458038 390.6285788 87.48243713 390.37083435 C93.36472428 388.55415648 97.98396259 386.20733225 101.375 380.8125 C103.40727987 371.66724059 101.09188448 363.64516546 98.328125 354.90625 C97.93388933 353.62406653 97.54094014 352.34148691 97.14916992 351.05854797 C96.30708742 348.31028168 95.45641757 345.5648853 94.59875488 342.82144165 C93.22083871 338.41345869 91.86243696 333.99960534 90.50683594 329.5847168 C88.85065855 324.19508657 87.19015154 318.80683049 85.52383804 313.42032528 C82.67269132 304.20218443 79.85480719 294.97440573 77.0625 285.73828125 C76.86421349 285.08248959 76.66592697 284.42669792 76.46163177 283.75103378 C75.6605091 281.10100025 74.85965738 278.45088509 74.05921555 275.80064583 C71.79984944 268.31995892 69.53293332 260.84156408 67.265625 253.36328125 C67.05548012 252.67004887 66.84533524 251.97681648 66.62882233 251.26257706 C61.09444767 233.00578345 55.54687455 214.75299877 50 196.5 C43.190653 174.09260619 36.38408766 151.68438412 29.59350491 129.27129555 C28.37490576 125.24927927 27.15571321 121.22744357 25.93596935 117.20577431 C21.88731038 103.85630226 17.84786508 90.50416352 13.83218384 77.14472961 C12.20919227 71.74569847 10.58264592 66.3477401 8.9552784 60.95002651 C7.62805021 56.54663517 6.30557628 52.14185358 4.98672771 47.7359457 C4.17431361 45.02601751 3.35737058 42.3174703 2.53917885 39.60928154 C1.98196015 37.7599325 1.43024589 35.90892774 0.87870789 34.05787659 C-1.74150265 25.40889568 -3.6348727 19.48466927 -11 14 C-16.92334508 11.03832746 -24.10248322 13.17260591 -30.0625 15 C-35.69929603 16.72542449 -40.12876644 17.67374811 -46 17 C-48.19370898 15.40593812 -48.90259384 14.52713924 -49.3984375 11.84375 C-49.39070313 11.0703125 -49.38296875 10.296875 -49.375 9.5 C-49.38273437 8.7265625 -49.39046875 7.953125 -49.3984375 7.15625 C-48.89940685 4.45561354 -48.06633709 3.76497176 -46 2 C-32.491943 -4.63410225 -13.47995905 -8.28019422 0 0 Z M-279.90625 52.6328125 C-287.2163705 60.89761292 -289.30183234 68.72958841 -289.29052734 79.57202148 C-289.29724457 80.50628967 -289.30396179 81.44055786 -289.31088257 82.40313721 C-289.32980133 85.47584423 -289.33378337 88.5483322 -289.3359375 91.62109375 C-289.34236857 93.76668893 -289.34909716 95.91228323 -289.35610962 98.05787659 C-289.36806627 102.54910312 -289.37179199 107.04025282 -289.37060547 111.53149414 C-289.37040212 117.27584825 -289.39772818 123.01970853 -289.43214989 128.76394558 C-289.45442392 133.19328561 -289.45844288 137.62250675 -289.45738602 142.05189705 C-289.45974028 144.16931933 -289.46855393 146.28674498 -289.48405075 148.40411186 C-289.50372498 151.369285 -289.49786727 154.33339238 -289.48583984 157.29858398 C-289.49707886 158.1658461 -289.50831787 159.03310822 -289.51989746 159.926651 C-289.45422037 166.32334716 -288.02193537 171.72957294 -283.58807945 176.52802181 C-278.82232683 180.73584253 -274.50469984 182.51321544 -268.11328125 182.30859375 C-261.53960692 181.34866718 -257.22016168 177.68897165 -253.12890625 172.68359375 C-250.30939273 168.47871372 -250.84507881 163.83634363 -250.83886719 158.98632812 C-250.83390228 158.06411972 -250.82893738 157.14191132 -250.82382202 156.1917572 C-250.80920502 153.13824725 -250.80240026 150.0847892 -250.796875 147.03125 C-250.79112455 144.91280109 -250.78536681 142.79435219 -250.77960205 140.67590332 C-250.76909434 136.23396563 -250.76324971 131.79204603 -250.75976562 127.35009766 C-250.75427182 121.65007537 -250.73022388 115.95029088 -250.70179367 110.25034332 C-250.68320181 105.87525729 -250.67796361 101.50022902 -250.67642975 97.12510681 C-250.67339646 95.02309362 -250.66534531 92.92108161 -250.65224457 90.81910706 C-250.63525117 87.88377566 -250.63704751 84.94903205 -250.64355469 82.01367188 C-250.6343399 81.14085068 -250.62512512 80.26802948 -250.6156311 79.36875916 C-250.51885032 75.02992538 -250.51885032 75.02992538 -252.33156204 71.24549103 C-254.0626401 69.68026059 -254.0626401 69.68026059 -257.0625 70.125 C-260.29255415 70.74650413 -260.29255415 70.74650413 -262 74 C-262.20246661 76.58049341 -262.29056931 79.05539171 -262.28710938 81.63671875 C-262.29735893 82.80057602 -262.29735893 82.80057602 -262.30781555 83.98794556 C-262.3214031 85.67232363 -262.33045668 87.35674296 -262.33552551 89.04116821 C-262.34380616 91.7055707 -262.36430247 94.36962905 -262.38806152 97.03393555 C-262.43630981 102.68923943 -262.46923929 108.34457748 -262.5 114 C-262.53564087 120.55265063 -262.57750848 127.10513281 -262.63594055 133.65762329 C-262.65603991 136.28503629 -262.66433453 138.91232099 -262.67224121 141.53979492 C-262.68521129 143.14762848 -262.69873126 144.75545773 -262.71289062 146.36328125 C-262.71190872 147.09584137 -262.71092682 147.82840149 -262.70991516 148.5831604 C-262.75527467 152.27260293 -262.8967108 153.84506619 -265 157 C-268.92010499 157.87113444 -272.17022458 158.37871915 -276 157 C-277.24377521 153.14147494 -277.16217887 149.27852169 -277.17700195 145.26904297 C-277.18357315 144.49448257 -277.19014435 143.71992218 -277.19691467 142.92189026 C-277.21660099 140.36198825 -277.22830186 137.80214488 -277.23828125 135.2421875 C-277.24235678 134.36469975 -277.2464323 133.48721199 -277.25063133 132.5831337 C-277.27147545 127.93563321 -277.2857825 123.28816208 -277.29516602 118.640625 C-277.30620736 113.85931583 -277.34058561 109.07847499 -277.38033772 104.29733086 C-277.40658801 100.60479923 -277.41486545 96.9123776 -277.41844749 93.21976089 C-277.42329429 91.45844497 -277.43485338 89.69713332 -277.45348549 87.93590927 C-277.66199742 66.91399728 -277.66199742 66.91399728 -270.6875 59.5625 C-264.00737124 55.67870421 -258.79088568 53.86965309 -251 55 C-247.09063395 56.38551576 -243.93677314 58.06322686 -241 61 C-238.64218828 60.87481578 -238.64218828 60.87481578 -236.0625 60.25 C-234.74958984 59.97929688 -234.74958984 59.97929688 -233.41015625 59.703125 C-230.77128331 59.0638124 -230.77128331 59.0638124 -228 57 C-233.95674354 49.16217956 -241.02435121 44.12884767 -250.796875 42.2265625 C-262.22338697 41.05149567 -271.78391774 44.58959387 -279.90625 52.6328125 Z M-314 102 C-317.59267648 105.71243236 -319.28651184 109.45078706 -319.30273438 114.62451172 C-319.18136854 120.20209116 -317.84700771 125.09718868 -316.15625 130.3828125 C-315.86770142 131.32309296 -315.57915283 132.26337341 -315.28186035 133.23214722 C-314.36763394 136.20066397 -313.434213 139.16272005 -312.5 142.125 C-311.87241321 144.15064409 -311.24609875 146.17668283 -310.62109375 148.203125 C-309.09539284 153.14009884 -307.55246162 158.07137901 -306 163 C-305.67 163 -305.34 163 -305 163 C-305 141.55 -305 120.1 -305 98 C-308.17086859 98 -311.45973395 100.30967259 -314 102 Z " fill="#000000" transform="translate(364,4)"/>
<path d="M0 0 C2.20738115 1.84778272 3.37789336 3.54226267 5 6 C5 6.99 5 7.98 5 9 C5.6290625 8.90460938 6.258125 8.80921875 6.90625 8.7109375 C13.85181712 7.81136104 19.35739384 7.72337115 25.5 11.5625 C27.73611344 15.19618434 27.9505391 18.85536994 27 23 C25.5546875 25.74609375 25.5546875 25.74609375 23 28 C19.87738382 28.68293025 16.81160852 28.65414581 13.625 28.625 C7.54280385 28.625 3.39925101 28.84068594 -2 32 C-2.66 32 -3.32 32 -4 32 C-5.08980717 36.91573535 -5.08980717 36.91573535 -3.84765625 41.6640625 C-2.204839 44.16466112 -2.204839 44.16466112 0.390625 44.85546875 C1.33421875 44.96503906 2.2778125 45.07460937 3.25 45.1875 C4.31347656 45.32800781 5.37695312 45.46851563 6.47265625 45.61328125 C8.21869141 45.80470703 8.21869141 45.80470703 10 46 C31.56779789 48.36692756 31.56779789 48.36692756 39 56 C46.03098535 66.03673158 47.88976305 74.79753531 47 87 C45.69739237 93.83048033 41.55631897 99.00908658 36.3046875 103.42578125 C34.79691955 104.92786735 34.79691955 104.92786735 34.8828125 107.0859375 C34.96273437 107.84132813 35.04265625 108.59671875 35.125 109.375 C35.22544534 112.99694085 35.09715903 113.84642605 33.0625 117.0625 C29.49476722 119.31963706 27.31279153 119.72772485 23.15625 119.4921875 C19.63645705 118.6887565 18.07282725 116.85013747 16 114 C15.375 111.828125 15.375 111.828125 15 110 C13.741875 110.0825 12.48375 110.165 11.1875 110.25 C4.00231972 110.238649 -2.422589 107.95883236 -8.125 103.625 C-10.3482032 100.51251551 -11 98.82877844 -11 95 C-9.5500457 90.65013709 -8.85115325 88.5674355 -5 86 C-0.85698895 85.40814128 1.68123173 86.23102264 5.3125 88.0625 C10.1743792 90.37066487 13.83936585 90.35806162 19 89 C22.20336549 87.77689681 24.26176207 86.89872444 26.4375 84.25 C27.52051361 79.91794554 26.53063888 76.19393748 24.75 72.1875 C22.19463349 68.99329186 19.36864354 68.22168981 15.38793945 67.5769043 C14.47230225 67.49351807 13.55666504 67.41013184 12.61328125 67.32421875 C11.59169922 67.21787109 10.57011719 67.11152344 9.51757812 67.00195312 C7.40132092 66.79432521 5.28410569 66.59621484 3.16601562 66.40820312 C-5.38983837 65.49092975 -12.49630728 63.27519102 -18.875 57.3125 C-24.52885643 48.49913557 -26.23803036 40.49199467 -25 30 C-23.40313327 24.54332704 -20.35048226 20.663564 -16 17 C-15.34 17 -14.68 17 -14 17 C-14.165 16.484375 -14.33 15.96875 -14.5 15.4375 C-15.40068191 11.04667568 -15.57301232 7.35713445 -13.8125 3.1875 C-9.92081697 -1.50935883 -5.67599398 -1.62171257 0 0 Z " fill="#000000" transform="translate(213,114)"/>
<path d="M0 0 C3.00342896 2.05497771 3.83287356 3.47633714 4.9375 6.9375 C5.01526249 10.74786187 4.34797776 12.01605031 2 15 C-0.43407447 16.15055471 -2.55858257 16.94171552 -5.1171875 17.6875 C-6.28034988 18.05077393 -6.28034988 18.05077393 -7.4670105 18.42138672 C-10.30563093 19.30069227 -13.15253867 20.14977148 -16 21 C-18.38605436 21.72684056 -20.77177487 22.45477769 -23.15722656 23.18359375 C-31.01946866 25.57907054 -38.89293735 27.9366972 -46.76679993 30.29363251 C-54.11453077 32.49454763 -61.45947071 34.70477502 -68.8046875 36.9140625 C-69.63961731 37.16511372 -70.47454712 37.41616493 -71.33477783 37.67482376 C-88.14640997 42.73080454 -104.9382805 47.85035659 -121.72451782 52.9899292 C-126.2274514 54.36844989 -130.73120423 55.74428003 -135.23510742 57.11962891 C-138.17369413 58.01715846 -141.11224962 58.91479015 -144.05078125 59.8125 C-144.76643187 60.03112072 -145.48208248 60.24974144 -146.21941948 60.47498703 C-154.52939596 63.0141508 -162.83608025 65.56354376 -171.13716698 68.13162804 C-176.74907343 69.86745061 -182.36443814 71.59187053 -187.9810791 73.31231689 C-190.25405753 74.01114839 -192.52567234 74.71443335 -194.79577637 75.42254639 C-197.87999446 76.38429119 -200.96855238 77.33060107 -204.05859375 78.2734375 C-204.94258347 78.55348633 -205.82657318 78.83353516 -206.73735046 79.12207031 C-212.09436713 80.73517707 -217.39284314 81.88870419 -223 81 C-225.625 78.9375 -225.625 78.9375 -227 76 C-226.94167011 72.61686661 -226.88220447 70.16153036 -224.79316711 67.41105652 C-222.44094715 65.56007716 -220.23869883 64.90888594 -217.37182617 64.0480957 C-216.22136307 63.69724411 -215.07089996 63.34639252 -213.88557434 62.98490906 C-212.6381395 62.61477188 -211.39070465 62.2446347 -210.10546875 61.86328125 C-208.79326833 61.46638099 -207.48135744 61.06852236 -206.16972351 60.66975403 C-203.45122343 59.84449749 -200.73131776 59.02413954 -198.01019287 58.20758057 C-193.13269499 56.74201425 -188.26627921 55.24096928 -183.3997345 53.73948669 C-177.37317044 51.8806328 -171.3425557 50.03498923 -165.3125 48.1875 C-163.99050745 47.78232328 -162.66851651 47.3771413 -161.3465271 46.97195435 C-146.02909394 42.27787772 -130.70674174 37.60026729 -115.375 32.953125 C-114.69053299 32.74565706 -114.00606598 32.53818913 -113.30085754 32.32443428 C-106.41809164 30.23856491 -99.53460074 28.15510939 -92.64980316 26.07595539 C-89.23511136 25.04470221 -85.82061823 24.01279269 -82.40625 22.98046875 C-81.73304214 22.77693724 -81.05983429 22.57340572 -80.3662262 22.36370659 C-70.59246874 19.40719524 -60.83124153 16.41180397 -51.07721901 13.39085579 C-46.96037361 12.11668554 -42.84207769 10.84720741 -38.7239027 9.57734203 C-35.46894394 8.57293777 -32.21528403 7.56466339 -28.96426392 6.5475769 C-25.40195992 5.43454824 -21.83620281 4.33331234 -18.26953125 3.234375 C-17.22482666 2.90419876 -16.18012207 2.57402252 -15.10375977 2.23384094 C-9.90484515 0.64454928 -5.444707 -0.56167307 0 0 Z " fill="#000000" transform="translate(408,342)"/>
<path d="M0 0 C2.00081202 3.39268126 1.99076548 5.56464161 1.4375 9.4375 C-1.97166512 14.37586917 -7.54314142 15.34773203 -13.00390625 16.984375 C-14.09538467 17.32233093 -15.1868631 17.66028687 -16.31141663 18.00848389 C-19.39260017 18.95906815 -22.47713492 19.89772097 -25.56351471 20.83126831 C-28.30905758 21.6639083 -31.05173461 22.50578913 -33.7945013 23.34752083 C-43.17413994 26.22575397 -52.563036 29.07315987 -61.95338821 31.91620636 C-66.29870034 33.23227331 -70.64332595 34.55060306 -74.98803711 35.86865234 C-84.67846756 38.80797496 -94.36984888 41.74415396 -104.06138611 44.67982483 C-108.01789736 45.87839093 -111.97428584 47.07736207 -115.93066406 48.27636719 C-117.04613947 48.61440809 -117.04613947 48.61440809 -118.18414974 48.95927811 C-121.82421155 50.06239301 -125.46425164 51.16557952 -129.10426331 52.26885986 C-135.31187174 54.15025762 -141.51964782 56.03108902 -147.72851276 57.90833664 C-151.02356699 58.90460275 -154.31847432 59.90135384 -157.61328125 60.8984375 C-158.24792738 61.09049522 -158.88257351 61.28255295 -159.53645134 61.4804306 C-168.58926655 64.22123266 -177.63142225 66.99513918 -186.66796875 69.7890625 C-189.87862096 70.77858372 -193.08942613 71.76760716 -196.30026245 72.75653076 C-199.21654139 73.65784281 -202.12989651 74.5681709 -205.04321289 75.47900391 C-206.77346298 76.0124897 -208.50384187 76.54555804 -210.234375 77.078125 C-211.38240852 77.4420787 -211.38240852 77.4420787 -212.55363464 77.81338501 C-217.93998717 79.45585577 -222.30642018 80.61458512 -227.4375 77.9375 C-230.02012227 74.89912086 -230.12136922 73.29645726 -230.12890625 69.4375 C-229.30530962 66.52935188 -227.86077395 65.38870403 -225.5625 63.4375 C-222.52645874 62.17993164 -222.52645874 62.17993164 -218.90380859 61.09765625 C-218.23724054 60.89466762 -217.57067249 60.69167898 -216.88390541 60.48253918 C-214.6630451 59.80953656 -212.43720738 59.15486442 -210.2109375 58.5 C-208.62693821 58.02386159 -207.04328657 57.54656531 -205.45996094 57.06819153 C-202.06751152 56.04586226 -198.67279932 55.03158025 -195.27606201 54.02359009 C-189.88423525 52.42355003 -184.49768904 50.80623042 -179.11181641 49.1862793 C-171.76786511 46.9789165 -164.42180027 44.77874273 -157.07421875 42.58349609 C-144.33790967 38.77703456 -131.61658421 34.92167791 -118.89737034 31.0585537 C-114.26732712 29.65258702 -109.63582846 28.2514932 -105.00366211 26.85253906 C-91.27981848 22.70591914 -77.56901676 18.52042916 -63.87390137 14.27980614 C-59.08050655 12.79702852 -54.28509877 11.32077111 -49.48967361 9.84457493 C-44.89627704 8.42963491 -40.30649263 7.00368626 -35.71914387 5.56926823 C-32.88623904 4.68632208 -30.05016645 3.81391959 -27.21314812 2.94429207 C-25.27861022 2.34778707 -23.34803073 1.738491 -21.4176178 1.12876892 C-5.90310333 -3.59945325 -5.90310333 -3.59945325 0 0 Z " fill="#000000" transform="translate(398.5625,302.5625)"/>
<path d="M0 0 C3.09623426 2.5676089 3.85529697 4.11369394 4.5 8.0625 C3.86677573 11.7826926 2.89964947 12.6240977 0 15 C-2.40836749 16.02939039 -4.67721209 16.85657739 -7.16796875 17.62109375 C-8.32343452 17.99082558 -8.32343452 17.99082558 -9.50224304 18.36802673 C-12.32948246 19.26349048 -15.16369295 20.13368354 -18 21 C-19.14341858 21.35040344 -20.28683716 21.70080688 -21.46490479 22.06182861 C-30.61560933 24.85787307 -39.77976168 27.60843192 -48.94591141 30.35333633 C-55.46713375 32.30746303 -61.98611974 34.26905021 -68.50543022 36.22954369 C-70.18300123 36.73399981 -71.86059968 37.23836465 -73.53822517 37.74263954 C-89.79209093 42.62855911 -106.03282178 47.55697091 -122.26809692 52.50427246 C-125.83516307 53.59115629 -129.40265633 54.67663006 -132.97031879 55.76155472 C-146.13839546 59.76603293 -159.30348486 63.77939035 -172.45451355 67.83955383 C-177.69244458 69.45646269 -182.93297947 71.06486866 -188.17355347 72.67318726 C-190.61438523 73.42448022 -193.05413309 74.17930493 -195.4927063 74.93789673 C-198.82324446 75.97385535 -202.15721195 76.99796459 -205.4921875 78.01953125 C-206.46166824 78.32463623 -207.43114899 78.62974121 -208.43000793 78.9440918 C-213.45782243 80.47033089 -217.73915763 81.51303302 -223 81 C-225.68601216 79.09151767 -226.7337462 77.67450962 -227.9375 74.625 C-228.02928884 70.76986858 -227.25010214 69.17501242 -225 66 C-221.56237125 64.22349154 -217.92967189 63.24904178 -214.21484375 62.203125 C-213.10680893 61.87048645 -211.99877411 61.5378479 -210.85716248 61.19512939 C-208.47112322 60.48041694 -206.08213733 59.77548335 -203.69061279 59.0793457 C-200.05961096 58.01743365 -196.44115872 56.92091762 -192.82470703 55.81054688 C-185.76965598 53.64494011 -178.70618166 51.50831543 -171.64067459 49.37715912 C-168.05870973 48.29618068 -164.47750687 47.21268348 -160.89624023 46.12939453 C-154.91158701 44.31934708 -148.92661028 42.51037367 -142.94140625 40.70214844 C-130.86821922 37.05440617 -118.7972568 33.39932684 -106.72699547 29.74191666 C-102.6289592 28.50036497 -98.53039557 27.26057281 -94.43140984 26.02215958 C-80.65791201 21.8603343 -66.89464449 17.6693857 -53.15557289 13.39513016 C-49.04961916 12.11902421 -44.94174862 10.84909693 -40.83394909 9.57894707 C-37.59169356 8.57555134 -34.35114104 7.56722827 -31.11404419 6.54730225 C-27.56768299 5.43179733 -24.01689086 4.33161495 -20.46484375 3.234375 C-19.43048187 2.9042038 -18.39612 2.57403259 -17.33041382 2.2338562 C-11.33447157 0.40063727 -6.27765611 -0.53321019 0 0 Z " fill="#000000" transform="translate(371,218)"/>
<path d="M0 0 C2.48605004 2.62811005 3.1875 3.71008294 3.1875 7.3125 C1.77460121 11.36135464 0.90589761 12.95562074 -2.98828125 14.89013672 C-4.35991433 15.32291842 -5.73984642 15.7298545 -7.125 16.1171875 C-7.90568848 16.35629852 -8.68637695 16.59540955 -9.49072266 16.84176636 C-11.26797272 17.38317455 -13.04851133 17.91386064 -14.83154297 18.43591309 C-18.03268337 19.37724762 -21.22155096 20.35397866 -24.41015625 21.33691406 C-31.49579882 23.51585112 -38.59179865 25.65925102 -45.6897583 27.79760742 C-49.32371518 28.89305019 -52.95674427 29.99156139 -56.58984375 31.08984375 C-61.89299887 32.69274956 -67.19639137 34.29486512 -72.50010681 35.89591599 C-83.20127866 39.12642377 -93.89977434 42.36571674 -104.59693909 45.60946655 C-105.95858713 46.02236091 -107.32023569 46.43525357 -108.68188477 46.84814453 C-109.3538643 47.05191648 -110.02584383 47.25568844 -110.71818638 47.4656353 C-115.45324466 48.90120647 -120.18922521 50.33370775 -124.92553711 51.76513672 C-127.64705287 52.58795112 -130.3684835 53.41104643 -133.08984375 54.234375 C-134.10080266 54.54022459 -134.10080266 54.54022459 -135.13218498 54.85225296 C-144.64659134 57.73214836 -154.1509162 60.64358842 -163.64932251 63.57580566 C-169.00699489 65.22960418 -174.36716233 66.87524749 -179.72789955 68.51908112 C-184.09724757 69.85974765 -188.46305025 71.21123045 -192.826478 72.57103348 C-195.52115374 73.40789565 -198.2189809 74.23420698 -200.91776848 75.05770111 C-202.75282249 75.62110338 -204.5839641 76.1972004 -206.41493225 76.77374268 C-212.76735606 78.69989813 -218.16621643 79.93829055 -224.8125 79.3125 C-227.90873426 76.7448911 -228.66779697 75.19880606 -229.3125 71.25 C-228.68669106 67.57337247 -227.63998923 66.68280484 -224.8125 64.3125 C-222.23088074 63.19587708 -222.23088074 63.19587708 -219.26245117 62.31567383 C-218.14139481 61.97590012 -217.02033844 61.6361264 -215.86531067 61.28605652 C-214.64518784 60.92997818 -213.425065 60.57389984 -212.16796875 60.20703125 C-210.8695837 59.81783912 -209.57159246 59.42733111 -208.27397156 59.03559875 C-205.5248565 58.20727013 -202.7738923 57.38553294 -200.02142334 56.56842041 C-195.92361682 55.34937973 -191.83485999 54.10214236 -187.74853516 52.84521484 C-187.0793295 52.63940827 -186.41012384 52.4336017 -185.72063923 52.22155857 C-184.35527818 51.80157578 -182.9899336 51.38153944 -181.62460518 50.96145058 C-178.08960997 49.87523905 -174.55274451 48.79515868 -171.01586914 47.71508789 C-170.29569201 47.49513625 -169.57551489 47.27518461 -168.83351421 47.04856777 C-167.3536562 46.59663153 -165.87378782 46.14472923 -164.39390945 45.69285965 C-162.07975541 44.9861836 -159.76568352 44.27923909 -157.45162964 43.57223511 C-140.36346174 38.35170378 -123.27199935 33.14218232 -106.171875 27.9609375 C-105.46596159 27.74704187 -104.76004818 27.53314625 -104.03274345 27.31276894 C-97.09971416 25.21227883 -90.16612983 23.11363595 -83.23141766 21.01870823 C-79.88977841 20.00915137 -76.54833401 18.99895119 -73.20703125 17.98828125 C-72.55879457 17.79220465 -71.9105579 17.59612804 -71.24267769 17.39410973 C-61.82097889 14.54266204 -52.41268384 11.64954244 -43.01171875 8.73046875 C-40.70697131 8.01677645 -38.40220302 7.30315152 -36.09741211 6.58959961 C-31.8621861 5.27807518 -27.63050676 3.95587305 -23.40063477 2.62719727 C-21.53284074 2.04793374 -19.66492832 1.46905179 -17.796875 0.890625 C-16.96584763 0.62610031 -16.13482025 0.36157562 -15.27861023 0.08903503 C-5.07496749 -3.04498049 -5.07496749 -3.04498049 0 0 Z " fill="#000000" transform="translate(384.8125,260.6875)"/>
</svg>
