<?xml version="1.0" encoding="UTF-8"?>
<svg version="1.1" xmlns="http://www.w3.org/2000/svg" width="512" height="512">
<path d="M0 0 C1.07245103 -0.00307895 1.07245103 -0.00307895 2.16656774 -0.0062201 C4.56871614 -0.01188653 6.97080714 -0.01043329 9.37296104 -0.00901413 C11.11010313 -0.01159797 12.84724461 -0.01461119 14.58438528 -0.01801753 C19.3633189 -0.02608859 24.14223751 -0.02787716 28.92117715 -0.028615 C34.0733628 -0.03046538 39.22554065 -0.03801266 44.37772179 -0.04475021 C55.64639889 -0.05833501 66.91507243 -0.06435854 78.18375635 -0.06876087 C85.21978042 -0.07152316 92.25580311 -0.0757605 99.29182625 -0.08026505 C118.77174417 -0.09245811 138.25166099 -0.10275722 157.73158264 -0.10614014 C159.60191638 -0.10646949 159.60191638 -0.10646949 161.51003464 -0.10680549 C162.75991214 -0.10702377 164.00978964 -0.10724204 165.29754221 -0.10746694 C167.8302807 -0.1079104 170.36301919 -0.10835697 172.89575768 -0.10880661 C174.78024744 -0.10913875 174.78024744 -0.10913875 176.70280771 -0.10947761 C197.05816697 -0.11342532 217.41349043 -0.13087835 237.76883586 -0.15416613 C258.66636802 -0.17788125 279.56388221 -0.19034207 300.46142805 -0.19150805 C312.19499624 -0.19242475 323.92851779 -0.19817558 335.66207314 -0.21632767 C345.65395245 -0.23173082 355.6457707 -0.23684784 365.63765962 -0.22858956 C370.73467381 -0.22468379 375.83156503 -0.22560919 380.92856407 -0.23964691 C385.59824585 -0.25239001 390.26771233 -0.25118465 394.93739383 -0.2390562 C396.6231645 -0.23709992 398.30895045 -0.24017445 399.99469967 -0.24890056 C417.47472615 -0.33362669 432.5450176 3.18555085 445.57105064 15.64705276 C453.25457632 24.11624224 459.93194651 35.87011711 459.95917797 47.58814621 C459.96363581 48.48045928 459.96809366 49.37277236 459.97268659 50.29212523 C459.97241004 51.75649417 459.97241004 51.75649417 459.97212791 53.25044632 C459.9758046 54.29078663 459.97948129 55.33112695 459.98326939 56.40299273 C459.99431094 59.90036666 459.99815092 63.39771088 460.00195885 66.89509964 C460.00822322 69.39835581 460.01487 71.90161105 460.02187157 74.40486526 C460.04110248 81.92575233 460.0517012 89.44663417 460.06059936 96.96753955 C460.0649856 100.51244999 460.07035161 104.05735895 460.07558823 107.60226822 C460.09260058 119.39249995 460.10709292 131.18273075 460.11433697 142.97297287 C460.11624676 146.03165056 460.1181671 149.09032823 460.12012291 152.14900589 C460.12060665 152.90919354 460.12109039 153.66938119 460.12158879 154.45260483 C460.12988225 166.75655677 460.15520754 179.06041127 460.18770359 191.3643207 C460.22082125 204.00708596 460.23879006 216.64980179 460.24198121 229.29261065 C460.24414218 236.38672585 460.25282988 243.48069906 460.27844238 250.57477188 C460.30249742 257.25277752 460.3059456 263.93048416 460.295681 270.60853958 C460.29518615 273.05459823 460.30149159 275.50066953 460.31523705 277.94668961 C460.42051106 297.79713359 458.25440697 312.79960815 444.22339439 327.95955276 C437.32322283 334.20791659 428.90936862 338.98452578 419.82495689 341.13142776 C419.10669216 341.3034656 418.38842742 341.47550344 417.64839709 341.65275455 C414.27365044 342.22489376 411.07417769 342.25950538 407.64991379 342.26285553 C406.93494643 342.26490816 406.21997908 342.2669608 405.48334605 342.26907563 C403.08119765 342.27474206 400.67910665 342.27328882 398.27695274 342.27186966 C396.53981066 342.2744535 394.80266918 342.27746672 393.06552851 342.28087306 C388.28659488 342.28894412 383.50767628 342.29073269 378.72873664 342.29147053 C373.57655099 342.29332091 368.42437314 342.30086819 363.272192 342.30760574 C352.0035149 342.32119054 340.73484136 342.32721407 329.46615744 342.3316164 C322.43013337 342.33437869 315.39411068 342.33861603 308.35808754 342.34312057 C288.87816962 342.35531364 269.3982528 342.36561275 249.91833115 342.36899567 C248.04799741 342.36932502 248.04799741 342.36932502 246.13987914 342.36966102 C244.89000165 342.3698793 243.64012415 342.37009757 242.35237157 342.37032247 C239.81963309 342.37076593 237.2868946 342.3712125 234.75415611 342.37166214 C232.86966635 342.37199428 232.86966635 342.37199428 230.94710608 342.37233314 C210.59174682 342.37628085 190.23642336 342.39373388 169.88107793 342.41702166 C148.98354577 342.44073678 128.08603158 342.4531976 107.18848574 342.45436358 C95.45491755 342.45528028 83.721396 342.4610311 71.98784065 342.4791832 C61.99596134 342.49458635 52.00414309 342.49970337 42.01225416 342.49144509 C36.91523998 342.48753932 31.81834876 342.48846471 26.72134972 342.50250244 C22.05166794 342.51524554 17.38220146 342.51404018 12.71251996 342.50191173 C11.02674929 342.49995545 9.34096334 342.50302998 7.65521412 342.51175609 C-9.82481236 342.59648222 -24.89510381 339.07730468 -37.92113686 326.61580276 C-45.60466253 318.14661329 -52.28203272 306.39273842 -52.30926418 294.67470932 C-52.31372203 293.78239625 -52.31817987 292.89008317 -52.3227728 291.9707303 C-52.32258844 290.99448434 -52.32240408 290.01823838 -52.32221413 289.01240921 C-52.32589081 287.9720689 -52.3295675 286.93172858 -52.33335561 285.8598628 C-52.34439716 282.36248887 -52.34823713 278.86514465 -52.35204506 275.36775589 C-52.35830943 272.86449972 -52.36495621 270.36124448 -52.37195778 267.85799026 C-52.39118869 260.3371032 -52.40178742 252.81622136 -52.41068557 245.29531598 C-52.41507181 241.75040554 -52.42043783 238.20549658 -52.42567444 234.66058731 C-52.44268679 222.87035558 -52.45717913 211.08012478 -52.46442318 199.28988266 C-52.46633297 196.23120497 -52.46825331 193.1725273 -52.47020912 190.11384964 C-52.47069286 189.35366199 -52.4711766 188.59347434 -52.471675 187.8102507 C-52.47996846 175.50629876 -52.50529375 163.20244426 -52.5377898 150.89853483 C-52.57090746 138.25576957 -52.58887627 125.61305374 -52.59206742 112.97024488 C-52.59422839 105.87612968 -52.60291609 98.78215647 -52.62852859 91.68808365 C-52.65258363 85.01007801 -52.65603182 78.33237137 -52.64576721 71.65431595 C-52.64527236 69.2082573 -52.6515778 66.762186 -52.66532326 64.31616592 C-52.77059727 44.46572194 -50.60449318 29.46324738 -36.57348061 14.30330276 C-29.67330904 8.05493894 -21.25945483 3.27832975 -12.17504311 1.13142776 C-11.45677837 0.95938993 -10.73851363 0.78735209 -9.9984833 0.61010098 C-6.62373665 0.03796177 -3.4242639 0.00335015 0 0 Z M-22.17504311 32.13142776 C-30.48184308 42.26979389 -30.17504311 50.43250345 -30.17504311 64.13142776 C124.26495689 64.13142776 278.70495689 64.13142776 437.82495689 64.13142776 C438.15423166 46.24880989 438.15423166 46.24880989 429.91480064 32.20955276 C422.6102784 24.94599046 413.71745517 21.88565141 403.5287571 21.87415886 C402.82498904 21.87065278 402.12122099 21.86714671 401.39612663 21.86353439 C399.04405627 21.85424987 396.69223511 21.85913601 394.34015465 21.86400223 C392.63428348 21.86026448 390.92841403 21.85566246 389.22254729 21.85027158 C384.53932826 21.83804157 379.85618067 21.83830206 375.17294931 21.84066033 C370.12031549 21.8410685 365.06770456 21.83002937 360.01508141 21.8205452 C350.11758159 21.80393418 340.22010559 21.7984356 330.322593 21.79732044 C322.27698826 21.79637001 314.23139137 21.79225996 306.18578911 21.78591919 C283.37312769 21.76830645 260.56048509 21.75908036 237.74781683 21.76058014 C236.51804844 21.76066005 235.28828005 21.76073996 234.02124596 21.7608223 C232.17434007 21.76094494 232.17434007 21.76094494 230.29012296 21.76107006 C210.33579959 21.76188295 190.38155171 21.74274446 170.42725018 21.71454556 C149.93645521 21.68581709 129.44569705 21.67200525 108.95488143 21.67373312 C97.45160278 21.67439703 85.94840326 21.66890399 74.44514275 21.64737701 C64.65092206 21.62916573 54.85681638 21.6248175 45.0625861 21.63839586 C40.06678683 21.64492574 35.0712082 21.64504186 30.07542992 21.62768936 C25.4982859 21.61195467 20.92153739 21.6148264 16.344403 21.63225763 C14.69233955 21.63532663 13.04024655 21.63169887 11.38821796 21.62053747 C-1.17788029 21.54129026 -12.80117176 22.86011518 -22.17504311 32.13142776 Z M-30.17504311 86.13142776 C-30.17504311 99.99142776 -30.17504311 113.85142776 -30.17504311 128.13142776 C124.26495689 128.13142776 278.70495689 128.13142776 437.82495689 128.13142776 C437.82495689 114.27142776 437.82495689 100.41142776 437.82495689 86.13142776 C283.38495689 86.13142776 128.94495689 86.13142776 -30.17504311 86.13142776 Z M-30.17504311 150.13142776 C-43.22614869 236.21297843 -43.22614869 236.21297843 -22.26488686 310.05330276 C-14.96036461 317.31686507 -6.06754138 320.37720412 4.12115669 320.38869667 C4.82492475 320.39220275 5.5286928 320.39570882 6.25378716 320.39932114 C8.60585752 320.40860566 10.95767868 320.40371952 13.30975914 320.3988533 C15.0156303 320.40259105 16.72149975 320.40719307 18.4273665 320.41258395 C23.11058553 320.42481396 27.79373312 320.42455347 32.47696447 320.4221952 C37.5295983 320.42178703 42.58220923 320.43282616 47.63483238 320.44231033 C57.5323322 320.45892135 67.42980819 320.46441993 77.32732078 320.46553509 C85.37292553 320.46648552 93.41852242 320.47059557 101.46412468 320.47693634 C124.27678609 320.49454908 147.08942869 320.50377517 169.90209696 320.50227539 C171.13186535 320.50219548 172.36163373 320.50211557 173.62866783 320.50203323 C174.85993842 320.50195147 176.09120901 320.50186971 177.35979083 320.50178547 C197.3141142 320.50097258 217.26836208 320.52011107 237.22266361 320.54830997 C257.71345858 320.57703844 278.20421674 320.59085028 298.69503236 320.58912241 C310.19831101 320.5884585 321.70151053 320.59395154 333.20477104 320.61547852 C342.99899173 320.6336898 352.79309741 320.63803803 362.58732769 320.62445967 C367.58312696 320.61792979 372.57870559 320.61781367 377.57448387 320.63516617 C382.15162789 320.65090086 386.72837639 320.64802913 391.30551079 320.6305979 C392.95757424 320.6275289 394.60966724 320.63115666 396.26169583 320.64231806 C408.04668433 320.71663926 418.55030351 319.61335844 428.03980064 311.89705276 C433.44047954 306.55546226 435.73601806 301.44271368 437.82495689 294.13142776 C437.82495689 246.61142776 437.82495689 199.09142776 437.82495689 150.13142776 C283.38495689 150.13142776 128.94495689 150.13142776 -30.17504311 150.13142776 Z " fill="#000000" transform="translate(52.1750431060791,84.86857223510742)"/>
<path d="M0 0 C0.99341967 -0.00551503 0.99341967 -0.00551503 2.00690842 -0.01114148 C4.21848078 -0.02212455 6.43000608 -0.02601287 8.64160156 -0.02983093 C10.2302668 -0.03609935 11.81893058 -0.04274648 13.40759277 -0.04974365 C18.61579375 -0.07073085 23.82399486 -0.08113688 29.03222656 -0.09111023 C30.82661962 -0.09515893 32.62101253 -0.09927589 34.41540527 -0.10346031 C42.84143922 -0.12249545 51.26746447 -0.13673341 59.69351578 -0.14507228 C69.41942523 -0.1548571 79.14510786 -0.18121598 88.87093735 -0.22157317 C96.39122589 -0.25170859 103.91144927 -0.26653846 111.43179703 -0.26985329 C115.92285491 -0.27220552 120.41366997 -0.28118922 124.90466309 -0.30631447 C129.12693449 -0.32955711 133.34880247 -0.33384395 137.57112122 -0.32355309 C139.12031901 -0.32305678 140.66953644 -0.32940505 142.21867371 -0.34310913 C144.33441864 -0.36077858 146.44870762 -0.35374852 148.56445312 -0.34057617 C149.74799377 -0.34296453 150.93153442 -0.34535288 152.15093994 -0.34781361 C155.92461479 0.24871787 157.56181123 1.52170745 160.28222656 4.14717102 C162.57076651 7.4165138 162.75384874 10.21698622 162.28222656 14.14717102 C160.24228748 17.80499282 158.77803395 19.81663276 155.28222656 22.14717102 C152.47626495 22.3977108 152.47626495 22.3977108 148.99719238 22.39872742 C147.67952881 22.40411026 146.36186523 22.4094931 145.00427246 22.41503906 C143.54028278 22.41102455 142.07629352 22.40685362 140.61230469 22.40254211 C139.07307754 22.40529173 137.53385181 22.40897145 135.99462891 22.41351318 C132.67649928 22.42163266 129.35843706 22.42379167 126.04029846 22.42156601 C120.78620908 22.41873346 115.53225427 22.43308497 110.27819824 22.45054626 C95.33620242 22.49757171 80.39421495 22.52149694 65.45214844 22.5280304 C57.20215876 22.53179002 48.95232065 22.54989603 40.70239592 22.58312476 C35.48772305 22.60327075 30.27344299 22.60574177 25.05874729 22.59484458 C21.80005669 22.59222303 18.54159094 22.60631244 15.28295898 22.62492561 C13.78145674 22.63021388 12.27991219 22.62880898 10.77842712 22.61989021 C-1.44389468 22.55319857 -12.67281987 24.20500101 -21.71777344 33.14717102 C-27.00324859 39.76749832 -28.94853731 46.72199207 -28.99121094 55.18232727 C-29.01183594 56.48621399 -29.03246094 57.79010071 -29.05371094 59.13349915 C-29.07631862 61.17629998 -29.09279937 63.21875258 -29.09863281 65.26167297 C-29.1082001 67.25621341 -29.14318749 69.25058025 -29.17871094 71.24482727 C-29.1910376 73.01612 -29.1910376 73.01612 -29.20361328 74.82319641 C-29.82456737 78.83757911 -31.19702464 80.99466348 -33.71777344 84.14717102 C-37.41952083 86.61500262 -40.42270819 86.82789834 -44.71777344 86.14717102 C-50.21777344 83.14717102 -50.21777344 83.14717102 -51.71777344 80.14717102 C-51.85342846 77.5160249 -51.93051103 74.91273923 -51.95605469 72.27998352 C-51.96412643 71.49001984 -51.97219818 70.70005615 -51.98051453 69.88615417 C-51.99436585 68.20658057 -52.00508331 66.52697868 -52.01293945 64.84736633 C-52.0243755 63.14838782 -52.04469189 61.4494428 -52.07446289 59.75068665 C-52.38736817 41.89236057 -48.55495845 27.7586123 -36.11621094 14.31904602 C-25.91790671 5.08409952 -13.67069619 0.0493616 0 0 Z " fill="#000000" transform="translate(115.7177734375,276.8528289794922)"/>
</svg>
