<?xml version="1.0" encoding="UTF-8"?>
<svg version="1.1" xmlns="http://www.w3.org/2000/svg" width="512" height="512">
<path d="M0 0 C1.12842632 -0.00445784 2.25685265 -0.00891569 3.41947371 -0.01350862 C5.287135 -0.01323207 5.287135 -0.01323207 7.19252682 -0.01294994 C9.17039469 -0.01846498 9.17039469 -0.01846498 11.18821949 -0.02409142 C14.85624673 -0.03411662 18.52425762 -0.03782906 22.19229662 -0.04048073 C26.1454444 -0.04438233 30.09857921 -0.05396086 34.05171871 -0.0626936 C43.60343359 -0.08246359 53.15514954 -0.09252555 62.70687976 -0.10142139 C67.20491331 -0.10580399 71.70294567 -0.11117093 76.20097828 -0.11641026 C91.15401528 -0.13342416 106.10705155 -0.14791781 121.06009674 -0.155159 C124.94123047 -0.1570689 128.82236418 -0.15898923 132.70349789 -0.16094494 C134.15045725 -0.16167055 134.15045725 -0.16167055 135.62664812 -0.16241082 C151.24933288 -0.17070914 166.87194101 -0.19604199 182.49459232 -0.22852562 C198.53413314 -0.26160408 214.57363503 -0.27960853 230.61321014 -0.28280324 C239.61874766 -0.28496776 248.6241735 -0.29370778 257.62967777 -0.31926441 C265.30025561 -0.34098228 272.97069464 -0.34901654 280.64129973 -0.33929763 C284.55345774 -0.33475587 288.46532943 -0.33663164 292.37744808 -0.35605907 C295.96351756 -0.37371311 299.54909234 -0.37267535 303.13516723 -0.35716178 C305.03741574 -0.35367055 306.93966957 -0.36979548 308.84184557 -0.38676625 C320.26252905 -0.30130247 328.10971011 2.74044965 336.39563656 10.62250233 C341.66932292 16.6348788 344.74922518 23.71412472 344.69641781 31.72156239 C344.69320019 32.63790958 344.68998257 33.55425678 344.68666744 34.49837208 C344.6782835 35.49678623 344.66989956 36.49520039 344.66126156 37.52386951 C344.65181473 39.71614954 344.64263123 41.9084307 344.63367367 44.10071278 C344.62737942 45.26367626 344.62108517 46.42663975 344.61460018 47.62484455 C344.58755625 53.80374572 344.5975127 59.98262101 344.60266781 66.16156483 C344.60886017 74.01553953 344.60377543 81.86879623 344.54749203 89.72259998 C344.5029514 96.07539398 344.50283304 102.42686801 344.53162289 108.77973652 C344.53468387 111.18920884 344.52199573 113.59875932 344.49256039 116.00805378 C344.31617749 131.29941527 345.6792789 141.57492884 354.59876156 154.13422108 C364.06067361 171.26016594 370.25274542 190.02253866 374.47376156 209.07172108 C374.66486507 209.93313709 374.85596859 210.79455311 375.05286312 211.68207264 C378.07880682 226.32851884 378.9815228 240.90623721 378.91126156 255.82172108 C378.90910641 256.65182697 378.90695126 257.48193287 378.9047308 258.33719349 C378.85021666 271.47053056 378.26761113 284.23716013 375.59876156 297.13422108 C375.39476742 298.13163319 375.19077328 299.1290453 374.9805975 300.15668201 C370.27577519 322.51657262 363.20516745 349.16031128 349.37380409 367.78356647 C345.25289241 373.49131033 344.89898716 378.15013004 345.00281429 385.05731678 C344.99672649 386.65653477 344.99672649 386.65653477 344.99051571 388.28806019 C344.98501514 390.59223728 344.99095975 392.89646449 345.0071764 395.20059109 C345.03266883 398.85494607 345.02777289 402.50817696 345.01528072 406.16258717 C344.99456148 413.92408945 345.01418873 421.68524191 345.03626156 429.44672108 C345.05740811 438.43456339 345.06184509 447.42204193 345.03575993 456.40987682 C345.03241439 459.99666507 345.05357133 463.58274855 345.07616329 467.16945362 C345.07365013 469.38728453 345.07008821 471.60511458 345.06531429 473.82294178 C345.07819988 474.80875736 345.09108547 475.79457294 345.10436153 476.81026173 C345.02683791 487.67921344 341.62960925 496.1399691 334.11438656 503.96625233 C328.11829599 509.13369063 321.11395026 512.25395975 313.19752312 512.26844215 C312.06909679 512.2729 310.94067047 512.27735784 309.77804941 512.28195077 C307.91038812 512.28167423 307.91038812 512.28167423 306.0049963 512.2813921 C304.02712843 512.28690713 304.02712843 512.28690713 302.00930363 512.29253358 C298.34127638 512.30255877 294.6732655 512.30627121 291.00522649 512.30892289 C287.05207871 512.31282448 283.09894391 512.32240302 279.14580441 512.33113575 C269.59408953 512.35090574 260.04237358 512.3609677 250.49064335 512.36986354 C245.99260981 512.37424614 241.49457745 512.37961308 236.99654484 512.38485241 C222.04350784 512.40186631 207.09047157 512.41635997 192.13742638 512.42360115 C188.25629265 512.42551105 184.37515893 512.42743138 180.49402523 512.42938709 C179.52938565 512.42987083 178.56474608 512.43035457 177.570875 512.43085297 C161.94819024 512.43915129 146.32558211 512.46448415 130.7029308 512.49696777 C114.66338998 512.53004624 98.62388808 512.54805068 82.58431298 512.55124539 C73.57877545 512.55340991 64.57334962 512.56214994 55.56784534 512.58770657 C47.89726751 512.60942444 40.22682848 512.6174587 32.55622339 512.60773978 C28.64406538 512.60319802 24.73219369 512.60507379 20.82007504 512.62450123 C17.23400556 512.64215526 13.64843078 512.64111751 10.06235588 512.62560394 C8.16010738 512.6221127 6.25785355 512.63823764 4.35567755 512.65520841 C-7.06500593 512.56974462 -14.91218699 509.52799251 -23.19811344 501.64593983 C-28.47179981 495.63356335 -31.55170206 488.55431743 -31.49889469 480.54687977 C-31.49406826 479.17235897 -31.49406826 479.17235897 -31.48914433 477.77007008 C-31.48076038 476.77165592 -31.47237644 475.77324177 -31.46373844 474.74457264 C-31.45429161 472.55229262 -31.44510812 470.36001145 -31.43615055 468.16772938 C-31.4298563 467.00476589 -31.42356205 465.84180241 -31.41707706 464.6435976 C-31.39003313 458.46469643 -31.39998959 452.28582114 -31.40514469 446.10687733 C-31.41133706 438.25290263 -31.40625232 430.39964592 -31.34996891 422.54584217 C-31.30542828 416.19304818 -31.30530992 409.84157414 -31.33409977 403.48870564 C-31.33716075 401.07923331 -31.32447262 398.66968284 -31.29503727 396.26038837 C-31.11865437 380.96902688 -32.48175578 370.69351332 -41.40123844 358.13422108 C-58.45006164 327.27606002 -65.86283413 291.83189904 -65.77623844 256.82172108 C-65.77536228 255.94982136 -65.77448612 255.07792164 -65.77358341 254.17960072 C-65.64007635 213.66413399 -55.09601283 172.17638267 -32.40123844 138.13422108 C-32.10225004 136.00824494 -32.10225004 136.00824494 -32.14968204 133.63348866 C-32.1442992 132.71129032 -32.13891636 131.78909199 -32.1333704 130.83894825 C-32.13749439 129.8290836 -32.14161839 128.81921894 -32.14586735 127.77875233 C-32.14224689 126.71333714 -32.13862644 125.64792194 -32.13489628 124.55022144 C-32.12799427 122.23232347 -32.12549834 119.91440921 -32.12684345 117.59650135 C-32.12780748 113.92178829 -32.1148785 110.24736876 -32.0978632 106.57269764 C-32.05156869 96.12301419 -32.02700523 85.67335895 -32.02037907 75.22357655 C-32.01534966 68.83333489 -31.99102028 62.44339666 -31.95505238 56.05325794 C-31.94528131 53.62295832 -31.94290764 51.1926168 -31.94822407 48.76230335 C-31.95533551 45.34949102 -31.93792522 41.93757398 -31.9153986 38.52484608 C-31.92357105 37.53117527 -31.93174351 36.53750446 -31.94016361 35.51372242 C-31.81312108 24.6246856 -28.45215988 16.14937767 -20.91686344 8.30218983 C-14.92077287 3.13475153 -7.91642715 0.0144824 0 0 Z M-10.71373844 24.69672108 C-13.7080167 29.02178967 -13.53883355 32.94102696 -13.51476383 38.002141 C-13.51490986 38.80237186 -13.51505589 39.60260273 -13.51520634 40.42708302 C-13.51450949 43.0729795 -13.50672773 45.71880564 -13.49889469 48.36468983 C-13.4970297 50.198862 -13.49560618 52.03303468 -13.49460697 53.86720753 C-13.49078817 58.69558556 -13.48096329 63.52393354 -13.46990299 68.35229969 C-13.45967521 73.27895164 -13.45510642 78.20560845 -13.45006657 83.13226795 C-13.43934047 92.79959887 -13.42227166 102.46690747 -13.40123844 112.13422108 C-10.47614887 109.2127871 -7.5632729 106.28281272 -4.68639469 103.31390858 C3.93324475 94.49378862 12.65179351 86.4187183 22.59876156 79.13422108 C23.73843293 78.27661102 24.87775403 77.41853531 26.01673031 76.56000233 C34.45043866 70.28433814 43.27525669 64.97836776 52.59876156 60.13422108 C53.38106136 59.72671619 54.16336117 59.31921131 54.96936703 58.8993578 C86.68024565 42.60183485 120.71883406 34.66475349 156.28626156 34.82172108 C157.60861309 34.8249538 157.60861309 34.8249538 158.95767879 34.82825184 C172.06373553 34.87961961 184.75109612 35.34571647 197.59876156 38.13422108 C198.56169125 38.33289783 199.52462093 38.53157459 200.51673031 38.73627186 C235.44709288 46.04995348 267.92713478 60.43270058 295.59876156 83.13422108 C296.16836605 83.6008617 296.73797054 84.06750233 297.32483578 84.54828358 C305.89986336 91.62593393 313.84546323 99.17293561 321.59876156 107.13422108 C323.26405403 108.8022608 324.93052659 110.46912419 326.59876156 112.13422108 C326.66832339 101.54641558 326.7216043 90.95866461 326.75419807 80.37067699 C326.76984278 75.45404828 326.79105932 70.53757611 326.82507992 65.62103748 C326.85771586 60.8748124 326.87562356 56.12873774 326.88339329 51.3824091 C326.88892918 49.57313768 326.89973948 47.76387434 326.91595173 45.95466709 C326.93778239 43.41717056 326.94072615 40.88029275 326.93933773 38.34271717 C326.95012356 37.59752827 326.96090939 36.85233936 326.97202206 36.08456898 C326.94001555 30.66573806 325.81101209 26.50408742 322.06360531 22.48968983 C317.77142363 19.20743325 315.76065107 18.0099609 310.40310192 18 C309.29510022 17.99554216 308.18709853 17.99108431 307.04552102 17.98649138 C305.20441629 17.98676793 305.20441629 17.98676793 303.32611752 17.98705006 C302.03007241 17.98337337 300.7340273 17.97969668 299.39870811 17.97590858 C295.78910848 17.96587172 292.17952547 17.96216908 288.56991386 17.95951927 C284.6815835 17.95562119 280.79326636 17.94604252 276.90494442 17.9373064 C267.50856325 17.91752781 258.11218098 17.90747398 248.71578419 17.89857861 C244.29344209 17.89419796 239.87110119 17.88883057 235.44876003 17.88358974 C220.75224843 17.866576 206.05573758 17.85208116 191.35921764 17.844841 C187.54388331 17.84293103 183.72854899 17.84101071 179.91321468 17.83905506 C178.96490405 17.83857132 178.01659342 17.83808758 177.0395461 17.83758918 C161.67275601 17.82928643 146.30604369 17.80394603 130.93928757 17.77147438 C115.17100067 17.73842528 99.40275333 17.72039419 83.6344316 17.71719676 C74.77767697 17.71502966 65.92103577 17.70625182 57.06431484 17.68073559 C49.52242205 17.6590579 41.98067023 17.65096366 34.43874982 17.66070237 C30.58987595 17.66525565 26.74129311 17.66330164 22.89245892 17.64394093 C18.72121324 17.62313939 14.55061656 17.63326688 10.37934017 17.64647388 C9.1608599 17.63550464 7.94237963 17.62453539 6.68697572 17.61323375 C-1.44334163 17.67561155 -5.18791934 18.57351612 -10.71373844 24.69672108 Z M12.59876156 111.13422108 C11.82016781 111.85996326 11.04157406 112.58570545 10.23938656 113.33343983 C-4.48409613 127.4564968 -15.96348077 145.1615959 -25.40123844 163.13422108 C-25.74541813 163.7884203 -26.08959782 164.44261951 -26.44420719 165.11664295 C-40.9912573 193.23536625 -47.86302454 224.47080332 -47.77623844 256.00922108 C-47.77569462 256.76302052 -47.77515079 257.51681995 -47.77459049 258.2934618 C-47.70334149 279.97538852 -44.19799139 300.54315898 -37.40123844 321.13422108 C-37.17742496 321.82596424 -36.95361149 322.51770741 -36.72301579 323.23041248 C-28.88473221 347.03795491 -15.89895058 369.30990851 0.59876156 388.13422108 C1.30258968 388.94761951 2.00641781 389.76101795 2.73157406 390.59906483 C16.93565721 406.71229894 32.45889699 419.6808235 50.59876156 431.13422108 C51.65966 431.81097889 52.72055843 432.4877367 53.81360531 433.18500233 C76.80093109 447.0888515 103.19147698 455.04615695 129.59876156 459.13422108 C130.26415951 459.23807117 130.92955746 459.34192127 131.61511898 459.44891834 C182.9151334 466.27540247 237.97290015 451.39152505 279.08728695 420.07294178 C286.26709159 414.46343953 293.01269906 408.42417995 299.59876156 402.13422108 C300.52430843 401.26152576 301.44985531 400.38883045 302.40344906 399.48968983 C309.55657312 392.56959955 315.72902858 385.1460817 321.59876156 377.13422108 C322.01480648 376.56783924 322.4308514 376.00145741 322.85950375 375.41791248 C335.44451415 358.0274441 344.81457397 338.45002424 351.59876156 318.13422108 C351.84706722 317.39462147 352.09537289 316.65502186 352.35120296 315.89301014 C368.84286666 265.40086171 361.88509468 210.00314896 338.72376156 162.88422108 C329.2748002 144.28208788 316.96588994 128.17769073 302.59876156 113.13422108 C301.28971859 111.74590076 301.28971859 111.74590076 299.95423031 110.32953358 C266.16875556 75.4063342 215.59162703 52.94560247 167.01282406 51.89593983 C107.88708773 50.99281942 55.56965775 70.18909571 12.59876156 111.13422108 Z M-13.40123844 400.13422108 C-13.47080028 410.72202657 -13.52408118 421.30977754 -13.55667496 431.89776516 C-13.57231967 436.81439387 -13.5935362 441.73086604 -13.6275568 446.64740467 C-13.66019274 451.39362975 -13.67810045 456.13970441 -13.68587017 460.88603306 C-13.69140607 462.69530447 -13.70221636 464.50456781 -13.71842861 466.31377506 C-13.74025927 468.85127159 -13.74320303 471.3881494 -13.74181461 473.92572498 C-13.75260044 474.67091389 -13.76338627 475.41610279 -13.77449894 476.18387318 C-13.74249243 481.60270409 -12.61348897 485.76435474 -8.86608219 489.77875233 C-4.57390052 493.0610089 -2.56312795 494.25848125 2.7944212 494.26844215 C4.45642374 494.27512892 4.45642374 494.27512892 6.1520021 494.28195077 C7.99310683 494.28167423 7.99310683 494.28167423 9.8714056 494.2813921 C11.16745071 494.28506879 12.46349581 494.28874547 13.79881501 494.29253358 C17.40841464 494.30257043 21.01799764 494.30627307 24.62760925 494.30892289 C28.51593962 494.31282096 32.40425676 494.32239964 36.2925787 494.33113575 C45.68895987 494.35091434 55.08534214 494.36096818 64.48173892 494.36986354 C68.90408103 494.3742442 73.32642193 494.37961158 77.74876308 494.38485241 C92.44527469 494.40186616 107.14178553 494.41636099 121.83830547 494.42360115 C125.6536398 494.42551112 129.46897413 494.42743144 133.28430843 494.42938709 C134.23261907 494.42987083 135.1809297 494.43035457 136.15797701 494.43085297 C151.52476711 494.43915573 166.89147942 494.46449613 182.25823554 494.49696777 C198.02652245 494.53001687 213.79476979 494.54804797 229.56309152 494.55124539 C238.41984614 494.5534125 247.27648735 494.56219034 256.13320827 494.58770657 C263.67510106 494.60938426 271.21685289 494.61747849 278.7587733 494.60773978 C282.60764716 494.60318651 286.45623001 494.60514051 290.3050642 494.62450123 C294.47630987 494.64530276 298.64690655 494.63517527 302.81818295 494.62196827 C304.64590335 494.63842214 304.64590335 494.63842214 306.5105474 494.65520841 C312.83909008 494.60665426 316.8283108 494.46525248 321.59876156 490.13422108 C326.27816236 484.94893911 326.74448668 481.03690349 326.71228695 474.26630116 C326.71250599 473.06595486 326.71250599 473.06595486 326.71272945 471.84135914 C326.71203261 469.19546266 326.70425084 466.54963651 326.69641781 463.90375233 C326.69455282 462.06958015 326.6931293 460.23540748 326.69213009 458.40123463 C326.68831128 453.57285659 326.6784864 448.74450862 326.66742611 443.91614246 C326.65719833 438.98949051 326.65262953 434.06283371 326.64758968 429.1361742 C326.63686359 419.46884328 326.61979477 409.80153468 326.59876156 400.13422108 C323.71832168 403.01226388 320.84469679 405.89546269 317.99719906 408.80609608 C310.53661724 416.38890662 303.09563547 423.6996952 294.59876156 430.13422108 C294.05461605 430.55477772 293.51047054 430.97533436 292.94983578 431.40863514 C253.7888325 461.61265818 206.28519927 477.6646201 156.91126156 477.44672108 C156.02969387 477.44456593 155.14812618 477.44241077 154.23984432 477.44019032 C141.13577961 477.38883035 128.44354146 476.92992293 115.59876156 474.13422108 C114.61987972 473.93022694 113.64099789 473.7262328 112.63245296 473.51605701 C77.88673719 466.16342904 45.15502575 451.74109929 17.59876156 429.13422108 C17.02915707 428.66758045 16.45955257 428.20093983 15.87268734 427.72015858 C7.29765975 420.64250822 -0.64794011 413.09550654 -8.40123844 405.13422108 C-10.06653092 403.46618135 -11.73300348 401.79931797 -13.40123844 400.13422108 Z " fill="#000000" transform="translate(99.40123844146729,-0.13422107696533203)"/>
<path d="M0 0 C1.29189114 -0.00623996 2.58378227 -0.01247993 3.91482162 -0.01890898 C7.47596299 -0.0355126 11.03667222 -0.02739735 14.59781456 -0.0149641 C18.447929 -0.00587886 22.29797137 -0.01990049 26.14807129 -0.03088379 C33.6806361 -0.04863668 41.21304116 -0.04484348 48.74561214 -0.03323323 C54.8694432 -0.02418643 60.9932296 -0.02298029 67.11706543 -0.02732849 C67.98983745 -0.02794142 68.86260948 -0.02855436 69.76182914 -0.02918586 C71.5350485 -0.03046481 73.30826784 -0.03176166 75.08148718 -0.03307623 C91.69491335 -0.04447256 108.30825113 -0.03138319 124.92166281 -0.00987476 C139.1655929 0.00799536 153.40939258 0.00489099 167.65332031 -0.0135498 C184.20875825 -0.03497325 200.76411877 -0.04337401 217.31956863 -0.03110075 C219.08613331 -0.0298266 220.852698 -0.02856912 222.6192627 -0.02732849 C223.92291546 -0.02640284 223.92291546 -0.02640284 225.25290465 -0.02545848 C231.36682356 -0.02201001 237.48069322 -0.02782309 243.59460449 -0.0372467 C251.04911096 -0.04848446 258.50344902 -0.04538938 265.95793629 -0.02412373 C269.75873898 -0.01363712 273.55926126 -0.00945036 277.36006165 -0.02272034 C281.48572616 -0.0369063 285.61068741 -0.01992725 289.73632812 0 C291.5267132 -0.01338433 291.5267132 -0.01338433 293.35326767 -0.02703905 C302.30727249 0.05676483 309.81094458 1.63768119 316.74316406 7.57043457 C321.98006472 13.33969156 324.19164079 20.57418534 324.02172852 28.28747559 C323.73063318 32.49655685 323.01223398 36.61315352 322.24316406 40.75793457 C322.06567627 41.71522461 321.88818848 42.67251465 321.70532227 43.65881348 C318.66872153 59.31205869 313.86404299 74.18253792 306.86816406 88.50793457 C306.52914063 89.20515625 306.19011719 89.90237793 305.84082031 90.62072754 C285.85862293 131.17983056 249.54309146 163.82479029 206.80224609 178.92126465 C156.82125012 195.65472659 106.23702512 191.57459132 59.13769531 168.23840332 C53.00196286 165.11493438 47.37910893 161.65319339 41.86816406 157.50793457 C40.81886719 156.73965332 39.76957031 155.97137207 38.68847656 155.17980957 C30.95408679 149.43719628 23.8436246 143.14237259 16.86816406 136.50793457 C16.23523438 135.92785645 15.60230469 135.34777832 14.95019531 134.75012207 C8.86076998 128.99337318 3.86223195 122.2082797 -1.13183594 115.50793457 C-1.55368164 114.94638672 -1.97552734 114.38483887 -2.41015625 113.80627441 C-14.95514928 96.85209995 -23.86266059 76.87557955 -29.13183594 56.50793457 C-29.33244629 55.74932129 -29.53305664 54.99070801 -29.73974609 54.20910645 C-37.50693102 24.25448618 -37.50693102 24.25448618 -30.13183594 11.50793457 C-22.81828177 1.1760882 -11.83377949 -0.08846545 0 0 Z M-15.13183594 22.50793457 C-17.24865556 28.20570739 -15.32453704 34.36923048 -14.13183594 40.13293457 C-13.90254395 41.24378418 -13.67325195 42.35463379 -13.43701172 43.49914551 C-4.42890909 85.26561735 20.86321636 121.92981471 56.59008789 145.38220215 C80.12187453 160.35591261 107.77266257 170.6178567 135.86816406 171.50793457 C136.4969043 171.52839844 137.12564453 171.5488623 137.7734375 171.56994629 C184.45585214 172.87206067 225.08688533 155.3720911 259.29394531 124.30480957 C283.1611345 101.41265653 297.94560894 70.309787 304.30566406 38.19543457 C304.57008301 36.87914062 304.57008301 36.87914062 304.83984375 35.53625488 C305.67280888 30.99809181 306.40530708 26.97422564 304.86816406 22.50793457 C302.65180691 19.86008674 300.815153 18.64783444 297.37681198 18.139884 C294.08903354 17.9891431 290.82296387 17.97528467 287.53173828 18 C286.26509275 17.99376004 284.99844723 17.98752007 283.6934185 17.98109102 C280.17973624 17.96438484 276.66648825 17.97264958 273.15280437 17.9850359 C269.36268348 17.99407892 265.57263774 17.9801204 261.78253174 17.96911621 C254.35857604 17.95131835 246.93478198 17.95517657 239.51081991 17.96676677 C233.47788255 17.97579586 227.44499052 17.97702738 221.41204834 17.97267151 C220.12468696 17.97175211 220.12468696 17.97175211 218.81131828 17.97081414 C217.06788459 17.96953525 215.32445092 17.9682384 213.58101726 17.96692377 C197.22814777 17.95551427 180.87536794 17.96863748 164.52251315 17.99012524 C150.48729459 18.00799657 136.45220836 18.00489256 122.41699219 17.9864502 C106.12312961 17.96505002 89.82934563 17.95661294 73.53547096 17.96889925 C71.79840725 17.97017346 70.06134352 17.97143095 68.32427979 17.97267151 C67.04223626 17.97359716 67.04223626 17.97359716 65.73429286 17.97454152 C59.70775078 17.97799698 53.6812585 17.97216185 47.65472412 17.9627533 C40.31157575 17.95154139 32.96859843 17.95455624 25.62546968 17.97587627 C21.87797663 17.9863977 18.13076891 17.99049019 14.38327789 17.97727966 C10.32346618 17.96318447 6.26437654 17.97999999 2.20458984 18 C1.01637068 17.99107711 -0.17184849 17.98215423 -1.3960743 17.97296095 C-9.1512509 17.92748487 -9.1512509 17.92748487 -15.13183594 22.50793457 Z " fill="#000000" transform="translate(111.1318359375,246.4920654296875)"/>
<path d="M0 0 C0.86615506 -0.00384115 1.73231011 -0.00768229 2.62471229 -0.01163983 C3.57683622 -0.01077335 4.52896016 -0.00990687 5.50993633 -0.00901413 C7.02651263 -0.01347081 7.02651263 -0.01347081 8.57372683 -0.01801753 C11.97765777 -0.02672198 15.38155361 -0.02821425 18.7854948 -0.02970505 C21.21952166 -0.03433196 23.65354778 -0.03935645 26.08757305 -0.04475021 C32.71155313 -0.05788789 39.33552589 -0.06435833 45.95951581 -0.06876087 C50.09522744 -0.07152315 54.23093672 -0.07576047 58.36664677 -0.08026505 C69.81629095 -0.09245772 81.26593326 -0.10275708 92.7155838 -0.10614014 C93.44843666 -0.1063597 94.18128951 -0.10657927 94.93635003 -0.10680549 C95.67096007 -0.10702377 96.40557012 -0.10724204 97.16244107 -0.10746694 C98.65105013 -0.1079104 100.13965919 -0.10835697 101.62826824 -0.10880661 C102.36667034 -0.10902804 103.10507243 -0.10924947 103.86585035 -0.10947761 C115.83117484 -0.1134258 127.79643844 -0.13088046 139.76173941 -0.15416613 C152.04510058 -0.17787792 164.3284312 -0.19034191 176.61181563 -0.19150805 C183.50898917 -0.19242491 190.40608337 -0.19817974 197.30323505 -0.21632767 C203.78991592 -0.23333536 210.27648631 -0.23498255 216.76318455 -0.22618866 C219.1456432 -0.22541623 221.52810983 -0.22978793 223.91054821 -0.23964691 C227.15992305 -0.25230615 230.40875899 -0.24652208 233.65812969 -0.23606491 C234.60356146 -0.24412132 235.54899323 -0.25217772 236.52307445 -0.26047826 C242.57765371 -0.2148264 247.01511152 0.58607209 251.63778973 4.85017776 C252.11603191 5.43799026 252.5942741 6.02580276 253.08700848 6.63142776 C253.57814129 7.21924026 254.0692741 7.80705276 254.57528973 8.41267776 C256.59052905 11.30096866 256.90564818 13.87695107 256.95151043 17.29231644 C256.96434566 18.12716064 256.9771809 18.96200485 256.99040508 19.82214737 C257.00148548 21.1721357 257.00148548 21.1721357 257.01278973 22.54939651 C257.02086147 23.48060822 257.02893322 24.41181992 257.03724957 25.37125015 C257.05108212 27.34410623 257.06180798 29.31698615 257.06967449 31.28987503 C257.08684444 34.29026291 257.13073289 37.28953636 257.1748991 40.28963089 C257.18503033 42.20954469 257.19354509 44.12946783 257.20028973 46.04939651 C257.21779781 46.93926758 257.2353059 47.82913864 257.25334454 48.74597549 C257.23283164 54.7100728 256.38474953 59.28715354 252.77450848 64.13142776 C247.08226863 69.14130909 241.73272571 69.85327753 234.37533855 69.76634598 C232.84222011 69.77804591 232.84222011 69.77804591 231.27812958 69.7899822 C227.86639546 69.80986487 224.45578137 69.79415133 221.04403973 69.77840042 C218.59281038 69.78517814 216.14158613 69.79408214 213.69037151 69.80495071 C207.73158705 69.82536767 201.77323925 69.82240112 195.81447196 69.80788751 C190.97012071 69.79657847 186.12585767 69.79507153 181.281497 69.80050659 C180.59105039 69.80127276 179.90060379 69.80203892 179.18923455 69.8028283 C177.78644265 69.80442699 176.38365077 69.80604806 174.98085892 69.80769126 C161.83829602 69.82193635 148.69590772 69.80557561 135.55337346 69.77868943 C124.28552636 69.7563517 113.01793686 69.76023218 101.75009441 69.78328323 C88.65338401 69.81006327 75.5568265 69.82056317 62.46009254 69.80522192 C61.06256837 69.80362923 59.66504417 69.80205738 58.26751995 69.80050659 C57.236207 69.79934953 57.236207 69.79934953 56.18405944 69.79816908 C51.34760469 69.79385867 46.51124723 69.80112437 41.67480755 69.81290436 C35.16085583 69.82842202 28.64731454 69.81731554 22.13338375 69.78843307 C19.74371046 69.78182556 17.35399622 69.78371413 14.96433926 69.7947464 C11.70023463 69.8084256 8.4376842 69.7912551 5.1736784 69.76634598 C4.22970101 69.77749959 3.28572363 69.78865319 2.31314087 69.80014479 C-3.96602618 69.70730248 -8.44987156 68.33757012 -13.22549152 64.13142776 C-17.40468296 58.50494754 -17.80878971 52.9894889 -17.72158527 46.15486526 C-17.7230405 45.22598495 -17.72449574 44.29710464 -17.72599506 43.34007645 C-17.72434422 41.38865883 -17.71287499 39.43722708 -17.69204426 37.48591995 C-17.66300507 34.50781678 -17.67146965 31.53148781 -17.6844759 28.55330276 C-17.67823989 26.64964833 -17.66985003 24.74599948 -17.65908527 22.84236526 C-17.66202091 21.9578569 -17.66495655 21.07334854 -17.66798115 20.1620369 C-17.57761021 14.21563623 -16.68797043 9.80097876 -12.50674152 5.26814651 C-11.91892902 4.78990433 -11.33111652 4.31166214 -10.72549152 3.81892776 C-10.13767902 3.32779495 -9.54986652 2.83666214 -8.94424152 2.33064651 C-6.02041229 0.29061111 -3.45379379 0.00574806 0 0 Z M0.77450848 18.13142776 C0.77450848 29.02142776 0.77450848 39.91142776 0.77450848 51.13142776 C11.66450848 51.13142776 22.55450848 51.13142776 33.77450848 51.13142776 C33.77450848 40.24142776 33.77450848 29.35142776 33.77450848 18.13142776 C22.88450848 18.13142776 11.99450848 18.13142776 0.77450848 18.13142776 Z M51.77450848 18.13142776 C51.77450848 29.02142776 51.77450848 39.91142776 51.77450848 51.13142776 C62.66450848 51.13142776 73.55450848 51.13142776 84.77450848 51.13142776 C84.77450848 40.24142776 84.77450848 29.35142776 84.77450848 18.13142776 C73.88450848 18.13142776 62.99450848 18.13142776 51.77450848 18.13142776 Z M102.77450848 18.13142776 C102.77450848 29.02142776 102.77450848 39.91142776 102.77450848 51.13142776 C113.99450848 51.13142776 125.21450848 51.13142776 136.77450848 51.13142776 C136.77450848 40.24142776 136.77450848 29.35142776 136.77450848 18.13142776 C125.55450848 18.13142776 114.33450848 18.13142776 102.77450848 18.13142776 Z M154.77450848 18.13142776 C154.77450848 29.02142776 154.77450848 39.91142776 154.77450848 51.13142776 C165.66450848 51.13142776 176.55450848 51.13142776 187.77450848 51.13142776 C187.77450848 40.24142776 187.77450848 29.35142776 187.77450848 18.13142776 C176.88450848 18.13142776 165.99450848 18.13142776 154.77450848 18.13142776 Z M205.77450848 18.13142776 C205.77450848 29.02142776 205.77450848 39.91142776 205.77450848 51.13142776 C216.66450848 51.13142776 227.55450848 51.13142776 238.77450848 51.13142776 C238.77450848 40.24142776 238.77450848 29.35142776 238.77450848 18.13142776 C227.88450848 18.13142776 216.99450848 18.13142776 205.77450848 18.13142776 Z " fill="#000000" transform="translate(136.22549152374268,135.86857223510742)"/>
<path d="M0 0 C2.20420125 1.99089145 2.83450673 3.56262492 3.875 6.3125 C4.17743449 12.81484146 -0.59533029 18.73438374 -4.10546875 23.90234375 C-4.5895369 24.6249086 -5.07360504 25.34747345 -5.57234192 26.0919342 C-7.10530407 28.37748952 -8.64624022 30.65753419 -10.1875 32.9375 C-11.23425752 34.49508426 -12.2804869 36.0530236 -13.32617188 37.61132812 C-15.8780257 41.41168525 -18.43704053 45.20712461 -21 49 C-19.44889526 49.02187378 -19.44889526 49.02187378 -17.86645508 49.04418945 C-14.01763918 49.10230882 -10.16940001 49.17954023 -6.32104492 49.26245117 C-4.65772892 49.29563655 -2.99430204 49.32368834 -1.33081055 49.34643555 C1.06509499 49.38009999 3.45999035 49.4324194 5.85546875 49.48828125 C6.96513252 49.49786613 6.96513252 49.49786613 8.09721375 49.50764465 C12.54740074 49.63342159 15.46044075 50.25181746 19 53 C20.60388112 55.69743643 21.01679467 57.41924932 20.92626953 60.54956055 C19.55676838 65.65107866 16.73241515 69.53950299 13.8046875 73.89453125 C13.17901886 74.84132248 12.55335022 75.78811371 11.90872192 76.76359558 C10.58361497 78.76462304 9.2535658 80.76238525 7.91894531 82.75708008 C5.8935181 85.78481796 3.88297608 88.82199596 1.875 91.86132812 C0.58159678 93.81047184 -0.71264767 95.75905765 -2.0078125 97.70703125 C-2.60288605 98.60420364 -3.19795959 99.50137604 -3.81106567 100.42573547 C-15.77330327 118.27782809 -15.77330327 118.27782809 -20.3125 119.75 C-24.1975809 120.11140287 -26.61893258 118.98647673 -29.75 116.75 C-31.66168111 114.07364645 -31.93773369 112.30011419 -32 109 C-29.79580895 103.24113659 -26.23455971 98.07948095 -22.796875 93 C-22.3142218 92.2788501 -21.8315686 91.5577002 -21.33428955 90.81469727 C-19.81055029 88.54017203 -18.28040856 86.2700417 -16.75 84 C-15.70790469 82.44690211 -14.66623399 80.89351922 -13.625 79.33984375 C-11.08822603 75.55658619 -8.54570564 71.77725271 -6 68 C-7.69527832 68.0314209 -7.69527832 68.0314209 -9.42480469 68.06347656 C-13.62161569 68.13592696 -17.81837152 68.18181784 -22.015625 68.21972656 C-23.8314748 68.23983061 -25.64725995 68.26711835 -27.46289062 68.30175781 C-30.07438105 68.35033039 -32.68501498 68.37298027 -35.296875 68.390625 C-36.10743347 68.41127014 -36.91799194 68.43191528 -37.75311279 68.45318604 C-41.21020948 68.45455946 -43.53602209 68.29671944 -46.48144531 66.41308594 C-48.56269038 63.10584699 -49.00465853 60.917825 -49 57 C-47.75991757 54.32972192 -46.5812394 52.25315609 -44.9296875 49.8671875 C-44.48172821 49.18719696 -44.03376892 48.50720642 -43.57223511 47.80661011 C-42.58903141 46.31946217 -41.59688216 44.83819954 -40.5970459 43.36218262 C-38.94464323 40.91812207 -37.32187501 38.45635936 -35.70410156 35.98925781 C-32.8055771 31.57927035 -29.87512607 27.19175572 -26.9296875 22.81298828 C-25.09834111 20.08529296 -23.27978147 17.3493242 -21.4609375 14.61328125 C-20.28983815 12.86927057 -19.11799165 11.12576131 -17.9453125 9.3828125 C-17.40673615 8.56837677 -16.86815979 7.75394104 -16.31326294 6.91482544 C-15.55129105 5.79127151 -15.55129105 5.79127151 -14.77392578 4.64501953 C-14.33331818 3.98712433 -13.89271057 3.32922913 -13.43875122 2.65139771 C-9.64761143 -1.70007006 -5.19457684 -1.52521618 0 0 Z " fill="#000000" transform="translate(270,282)"/>
</svg>
